SplineFontDB: 3.2
FontName: ATM386-Regular
FullName: ATM386-Regular
FamilyName: ATM 386
Weight: Book
Copyright: AzhaguThamizh
Version: 1.001
ItalicAngle: -11
UnderlinePosition: -271
UnderlineWidth: 102
Ascent: 1600
Descent: 400
InvalidEm: 0
sfntRevision: 0x00010042
LayerCount: 2
Layer: 0 1 "Back" 1
Layer: 1 1 "Fore" 0
XUID: [1021 192 2086997156 29650]
StyleMap: 0x0040
FSType: 8
OS2Version: 3
OS2_WeightWidthSlopeOnly: 0
OS2_UseTypoMetrics: 0
CreationTime: 1517825424
ModificationTime: 1545726147
PfmFamily: 17
TTFWeight: 400
TTFWidth: 5
LineGap: 0
VLineGap: 0
Panose: 2 11 6 4 2 2 2 2 2 4
OS2TypoAscent: 2000
OS2TypoAOffset: 0
OS2TypoDescent: -1320
OS2TypoDOffset: 0
OS2TypoLinegap: 0
OS2WinAscent: 2000
OS2WinAOffset: 0
OS2WinDescent: 744
OS2WinDOffset: 0
HheadAscent: 2000
HheadAOffset: 0
HheadDescent: -1320
HheadDOffset: 0
OS2SubXSize: 1400
OS2SubYSize: 1300
OS2SubXOff: 0
OS2SubYOff: 0
OS2SupXSize: 1400
OS2SupYSize: 1300
OS2SupXOff: 0
OS2SupYOff: 0
OS2StrikeYSize: 100
OS2StrikeYPos: 518
OS2CapHeight: 1586
OS2XHeight: -200
OS2Vendor: '    '
OS2CodePages: 00000001.00000000
OS2UnicodeRanges: 00100003.00000000.00000000.00000000
Lookup: 4 0 0 "'akhn' Akhand in Tamil2 lookup 0" { "'akhn' Akhand in Tamil2 lookup 0 subtable"  } ['akhn' ('tml2' <'dflt' > ) ]
Lookup: 4 0 0 "'akhn' Akhand in Tamil lookup 1" { "'akhn' Akhand in Tamil lookup 1 subtable"  } ['akhn' ('taml' <'dflt' > ) ]
Lookup: 4 0 0 "'half' Half Forms in Tamil lookup 2" { "'half' Half Forms in Tamil lookup 2 subtable"  } ['half' ('taml' <'dflt' > ) ]
Lookup: 4 0 0 "'haln' Halant Forms in Tamil2 lookup 3" { "'haln' Halant Forms in Tamil2 lookup 3 subtable"  } ['haln' ('tml2' <'dflt' > ) ]
Lookup: 4 0 0 "'haln' Halant Forms in Tamil lookup 4" { "'haln' Halant Forms in Tamil lookup 4 subtable"  } ['haln' ('taml' <'dflt' > ) ]
Lookup: 4 0 0 "'abvs' Above Base Substitutions lookup 5" { "'abvs' Above Base Substitutions lookup 5 subtable"  } ['abvs' ('taml' <'dflt' > 'tml2' <'dflt' > ) ]

StartChar: .notdef
Encoding: 65536 -1 0
Width: 1514
Flags: W
LayerCount: 2
Fore
SplineSet
1324 171 m 1,0,-1
 1324 1429 l 1,1,-1
 265 1429 l 1,2,-1
 265 171 l 1,3,-1
 1324 171 l 1,0,-1
95 0 m 1,4,-1
 95 1600 l 1,5,-1
 1495 1600 l 1,6,-1
 1495 0 l 1,7,-1
 95 0 l 1,4,-1
1476 19 m 1,8,-1
 1476 1581 l 1,9,-1
 114 1581 l 1,10,-1
 114 19 l 1,11,-1
 1476 19 l 1,8,-1
246 152 m 1,12,-1
 246 1448 l 1,13,-1
 1343 1448 l 1,14,-1
 1343 152 l 1,15,-1
 246 152 l 1,12,-1
132 38 m 1,16,-1
 132 1562 l 1,17,-1
 1457 1562 l 1,18,-1
 1457 38 l 1,19,-1
 132 38 l 1,16,-1
1362 133 m 1,20,-1
 1362 1467 l 1,21,-1
 227 1467 l 1,22,-1
 227 133 l 1,23,-1
 1362 133 l 1,20,-1
EndSplineSet
EndChar

StartChar: exclam
Encoding: 33 33 4
Width: 493
GlyphClass: 2
Flags: W
LayerCount: 2
Fore
SplineSet
225 -72 m 1,0,-1
 225 176 l 1,1,-1
 421 176 l 1,2,-1
 421 -72 l 1,3,-1
 225 -72 l 1,0,-1
278 189 m 1,4,-1
 177 975 l 1,5,-1
 470 975 l 1,6,-1
 368 189 l 1,7,-1
 278 189 l 1,4,-1
354 207 m 1,8,-1
 452 956 l 1,9,-1
 195 956 l 1,10,-1
 292 207 l 1,11,-1
 354 207 l 1,8,-1
406 -54 m 1,12,-1
 406 157 l 1,13,-1
 241 157 l 1,14,-1
 241 -54 l 1,15,-1
 406 -54 l 1,12,-1
256 -35 m 1,16,-1
 256 138 l 1,17,-1
 390 138 l 1,18,-1
 390 -35 l 1,19,-1
 256 -35 l 1,16,-1
305 226 m 1,20,-1
 213 937 l 1,21,-1
 433 937 l 1,22,-1
 341 226 l 1,23,-1
 305 226 l 1,20,-1
EndSplineSet
EndChar

StartChar: quotedbl
Encoding: 34 34 5
Width: 743
GlyphClass: 2
Flags: W
LayerCount: 2
Fore
SplineSet
250 688 m 1,0,-1
 281 980 l 2,1,2
 287 1031 287 1031 290.5 1063.5 c 128,-1,3
 294 1096 294 1096 296 1105 c 2,4,-1
 296 1103 l 1,5,6
 314 1189 314 1189 366 1229 c 1,7,8
 413 1258 413 1258 453 1258 c 0,9,10
 554 1258 554 1258 554 1163 c 0,11,12
 554 1143 554 1143 534 1089.5 c 128,-1,13
 514 1036 514 1036 478 960 c 0,14,15
 463 929 463 929 446.5 894 c 128,-1,16
 430 859 430 859 413.5 824 c 128,-1,17
 397 789 397 789 380.5 754 c 128,-1,18
 364 719 364 719 350 688 c 1,19,-1
 250 688 l 1,0,-1
568 688 m 1,20,-1
 597 977 l 1,21,-1
 611 1092 l 2,22,23
 618 1157 618 1157 658 1206 c 0,24,25
 702 1258 702 1258 772 1258 c 0,26,27
 862 1258 862 1258 871 1169 c 0,28,29
 871 1137 871 1137 857 1095 c 1,30,-1
 857 1096 l 1,31,32
 842 1051 842 1051 828.5 1016.5 c 128,-1,33
 815 982 815 982 802 958 c 2,34,-1
 670 688 l 1,35,-1
 568 688 l 1,20,-1
659 705 m 1,36,-1
 786 965 l 2,37,38
 799 989 799 989 812.5 1024 c 128,-1,39
 826 1059 826 1059 840 1101 c 0,40,41
 846 1120 846 1120 849.5 1137 c 128,-1,42
 853 1154 853 1154 853 1166 c 0,43,44
 844 1240 844 1240 772 1240 c 0,45,46
 711 1240 711 1240 673 1194 c 0,47,48
 635 1150 635 1150 628 1089 c 2,49,-1
 614 975 l 1,50,-1
 588 705 l 1,51,-1
 659 705 l 1,36,-1
338 705 m 1,52,53
 367 768 367 768 400 836.5 c 128,-1,54
 433 905 433 905 462 968 c 1,55,-1
 462 967 l 1,56,57
 500 1046 500 1046 518 1095 c 128,-1,58
 536 1144 536 1144 536 1163 c 0,59,60
 536 1240 536 1240 453 1240 c 0,61,62
 436 1240 436 1240 416.5 1233 c 128,-1,63
 397 1226 397 1226 374 1213 c 1,64,65
 351 1194 351 1194 336 1166 c 128,-1,66
 321 1138 321 1138 313 1100 c 1,67,-1
 314 1101 l 1,68,69
 312 1090 312 1090 308 1059 c 128,-1,70
 304 1028 304 1028 299 979 c 2,71,-1
 271 705 l 1,72,-1
 338 705 l 1,52,53
607 723 m 1,73,-1
 632 973 l 1,74,-1
 646 1087 l 2,75,76
 653 1144 653 1144 686 1183 c 128,-1,77
 719 1222 719 1222 772 1222 c 0,78,79
 828 1222 828 1222 835 1165 c 0,80,81
 835 1142 835 1142 823 1107 c 0,82,83
 795 1022 795 1022 770 973 c 2,84,-1
 648 723 l 1,85,-1
 607 723 l 1,73,-1
290 723 m 1,86,-1
 317 977 l 2,87,88
 327 1080 327 1080 331 1096 c 0,89,90
 345 1168 345 1168 386 1200 c 1,91,92
 423 1222 423 1222 453 1222 c 0,93,94
 519 1222 519 1222 519 1163 c 0,95,96
 519 1129 519 1129 446 975 c 2,97,-1
 327 723 l 1,98,-1
 290 723 l 1,86,-1
EndSplineSet
EndChar

StartChar: numbersign
Encoding: 35 35 6
Width: 983
GlyphClass: 2
Flags: W
LayerCount: 2
Fore
SplineSet
664 619 m 1,0,-1
 435 619 l 1,1,2
 429 592 429 592 424.5 569.5 c 128,-1,3
 420 547 420 547 415.5 524.5 c 128,-1,4
 411 502 411 502 406 478 c 128,-1,5
 401 454 401 454 395 424 c 1,6,-1
 622 424 l 1,7,-1
 664 619 l 1,0,-1
993 259 m 1,8,-1
 753 259 l 1,9,-1
 692 -34 l 1,10,-1
 529 -34 l 1,11,-1
 589 259 l 1,12,-1
 361 259 l 1,13,-1
 300 -34 l 1,14,-1
 137 -34 l 1,15,-1
 197 259 l 1,16,-1
 63 259 l 1,17,-1
 63 424 l 1,18,-1
 232 424 l 1,19,-1
 272 619 l 1,20,-1
 63 619 l 1,21,-1
 63 784 l 1,22,-1
 305 784 l 1,23,24
 320 855 320 855 337 932.5 c 128,-1,25
 354 1010 354 1010 368 1078 c 1,26,-1
 531 1078 l 1,27,-1
 469 784 l 1,28,-1
 695 784 l 1,29,30
 710 855 710 855 726.5 932.5 c 128,-1,31
 743 1010 743 1010 757 1078 c 1,32,-1
 920 1078 l 1,33,-1
 859 784 l 1,34,-1
 993 784 l 1,35,-1
 993 619 l 1,36,-1
 827 619 l 1,37,-1
 785 424 l 1,38,-1
 993 424 l 1,39,-1
 993 259 l 1,8,-1
974 405 m 1,40,-1
 763 405 l 1,41,42
 770 437 770 437 776 465.5 c 128,-1,43
 782 494 782 494 788 522 c 128,-1,44
 794 550 794 550 800.5 578.5 c 128,-1,45
 807 607 807 607 813 638 c 1,46,-1
 974 638 l 1,47,-1
 974 765 l 1,48,-1
 837 765 l 1,49,-1
 898 1060 l 1,50,-1
 771 1060 l 1,51,-1
 711 765 l 1,52,-1
 447 765 l 1,53,-1
 509 1060 l 1,54,-1
 382 1060 l 1,55,56
 368 992 368 992 351 913 c 128,-1,57
 334 834 334 834 320 765 c 1,58,-1
 81 765 l 1,59,-1
 81 638 l 1,60,-1
 294 638 l 1,61,62
 287 606 287 606 281 577.5 c 128,-1,63
 275 549 275 549 269 521 c 128,-1,64
 263 493 263 493 257.5 464.5 c 128,-1,65
 252 436 252 436 246 405 c 1,66,-1
 81 405 l 1,67,-1
 81 278 l 1,68,-1
 220 278 l 1,69,-1
 159 -15 l 1,70,-1
 286 -15 l 1,71,-1
 346 278 l 1,72,-1
 612 278 l 1,73,-1
 552 -15 l 1,74,-1
 679 -15 l 1,75,-1
 738 278 l 1,76,-1
 974 278 l 1,77,-1
 974 405 l 1,40,-1
636 405 m 1,78,-1
 373 405 l 1,79,80
 379 437 379 437 385 465.5 c 128,-1,81
 391 494 391 494 397 522 c 128,-1,82
 403 550 403 550 409 578.5 c 128,-1,83
 415 607 415 607 421 638 c 1,84,-1
 686 638 l 1,85,-1
 636 405 l 1,78,-1
956 297 m 1,86,-1
 724 297 l 1,87,-1
 663 4 l 1,88,-1
 575 4 l 1,89,-1
 635 297 l 1,90,-1
 331 297 l 1,91,-1
 271 4 l 1,92,-1
 182 4 l 1,93,-1
 243 297 l 1,94,-1
 99 297 l 1,95,-1
 99 386 l 1,96,-1
 262 386 l 1,97,-1
 317 657 l 1,98,-1
 99 657 l 1,99,-1
 99 746 l 1,100,-1
 335 746 l 1,101,-1
 398 1041 l 1,102,-1
 486 1041 l 1,103,-1
 424 746 l 1,104,-1
 726 746 l 1,105,-1
 786 1041 l 1,106,-1
 875 1041 l 1,107,-1
 814 746 l 1,108,-1
 956 746 l 1,109,-1
 956 657 l 1,110,-1
 797 657 l 1,111,-1
 740 386 l 1,112,-1
 956 386 l 1,113,-1
 956 297 l 1,86,-1
709 657 m 1,114,-1
 405 657 l 1,115,-1
 350 386 l 1,116,-1
 652 386 l 1,117,-1
 709 657 l 1,114,-1
EndSplineSet
EndChar

StartChar: dollar
Encoding: 36 36 7
Width: 852
GlyphClass: 2
Flags: W
LayerCount: 2
Fore
SplineSet
493 952 m 1,0,1
 440 932 440 932 408 895.5 c 128,-1,2
 376 859 376 859 360 803 c 0,3,4
 359 797 359 797 358 792 c 128,-1,5
 357 787 357 787 357 781 c 0,6,7
 357 745 357 745 390 712 c 1,8,-1
 390 713 l 1,9,10
 398 707 398 707 410 699 c 128,-1,11
 422 691 422 691 439 682 c 1,12,-1
 493 952 l 1,0,1
587 301 m 1,13,14
 584 348 584 348 508 393 c 1,15,-1
 449 110 l 1,16,17
 484 125 484 125 515 154 c 0,18,19
 566 202 566 202 583 267 c 1,20,-1
 587 301 l 1,13,14
781 312 m 2,21,22
 772 246 772 246 736.5 187.5 c 128,-1,23
 701 129 701 129 639 84 c 0,24,25
 548 18 548 18 426 -9 c 1,26,-1
 410 -84 l 1,27,-1
 281 -84 l 1,28,-1
 293 -18 l 1,29,-1
 258 -17 l 1,30,-1
 225 -17 l 1,31,-1
 200 -8 l 1,32,33
 162 0 162 0 117.5 17 c 128,-1,34
 73 34 73 34 18 62 c 1,35,-1
 43 130 l 1,36,-1
 43 131 l 1,37,38
 47 148 47 148 52 164 c 128,-1,39
 57 180 57 180 61 197 c 2,40,-1
 86 302 l 1,41,-1
 197 302 l 1,42,-1
 186 212 l 1,43,44
 186 155 186 155 230 125 c 0,45,46
 264 101 264 101 314 95 c 1,47,-1
 389 450 l 1,48,49
 274 499 274 499 215.5 565.5 c 128,-1,50
 157 632 157 632 157 717 c 0,51,52
 157 737 157 737 158 752 c 128,-1,53
 159 767 159 767 162 776 c 2,54,-1
 162 774 l 1,55,56
 192 905 192 905 310 990 c 0,57,58
 355 1022 355 1022 407.5 1045 c 128,-1,59
 460 1068 460 1068 520 1079 c 1,60,61
 523 1096 523 1096 526 1113 c 128,-1,62
 529 1130 529 1130 531 1140 c 1,63,-1
 665 1140 l 1,64,-1
 651 1081 l 1,65,66
 713 1076 713 1076 770.5 1056 c 128,-1,67
 828 1036 828 1036 885 1001 c 1,68,-1
 823 779 l 1,69,-1
 719 779 l 1,70,-1
 720 853 l 1,71,72
 726 953 726 953 626 965 c 1,73,74
 617 920 617 920 609 879 c 128,-1,75
 601 838 601 838 592.5 796.5 c 128,-1,76
 584 755 584 755 575.5 713 c 128,-1,77
 567 671 567 671 558 625 c 1,78,79
 609 602 609 602 642 583 c 128,-1,80
 675 564 675 564 696 547 c 2,81,-1
 695 548 l 1,82,83
 786 475 786 475 786 362 c 1,84,-1
 781 312 l 2,21,22
768 364 m 1,85,86
 768 415 768 415 746 458 c 128,-1,87
 724 501 724 501 684 533 c 0,88,89
 665 549 665 549 628.5 568.5 c 128,-1,90
 592 588 592 588 538 613 c 1,91,92
 557 708 557 708 575 800 c 128,-1,93
 593 892 593 892 612 986 c 1,94,95
 677 981 677 981 709.5 948 c 128,-1,96
 742 915 742 915 739 852 c 2,97,-1
 737 798 l 1,98,-1
 809 798 l 1,99,-1
 864 992 l 1,100,101
 810 1025 810 1025 752.5 1043.5 c 128,-1,102
 695 1062 695 1062 630 1064 c 1,103,-1
 640 1121 l 1,104,-1
 546 1121 l 1,105,-1
 535 1063 l 1,106,107
 475 1052 475 1052 420 1029 c 128,-1,108
 365 1006 365 1006 320 974 c 0,109,110
 266 934 266 934 230.5 882.5 c 128,-1,111
 195 831 195 831 180 771 c 0,112,113
 178 761 178 761 177 747.5 c 128,-1,114
 176 734 176 734 176 717 c 0,115,116
 176 556 176 556 410 461 c 1,117,118
 388 360 388 360 369 267.5 c 128,-1,119
 350 175 350 175 329 75 c 1,120,121
 298 77 298 77 269.5 86 c 128,-1,122
 241 95 241 95 220 109 c 0,123,124
 194 126 194 126 181.5 154 c 128,-1,125
 169 182 169 182 168 214 c 1,126,-1
 176 283 l 1,127,-1
 101 283 l 1,128,129
 96 264 96 264 89.5 237.5 c 128,-1,130
 83 211 83 211 79 191 c 1,131,-1
 80 192 l 1,132,133
 75 175 75 175 70.5 158.5 c 128,-1,134
 66 142 66 142 61 125 c 1,135,-1
 61 127 l 1,136,-1
 41 71 l 1,137,138
 89 47 89 47 129 32 c 128,-1,139
 169 17 169 17 205 9 c 1,140,-1
 204 10 l 1,141,-1
 227 2 l 1,142,-1
 258 2 l 1,143,-1
 313 0 l 1,144,-1
 314 0 l 1,145,-1
 302 -66 l 1,146,-1
 396 -66 l 1,147,-1
 411 7 l 1,148,149
 536 33 536 33 628 99 c 0,150,151
 748 186 748 186 762 314 c 2,152,-1
 768 364 l 1,85,86
602 263 m 1,153,-1
 602 266 l 1,154,155
 584 192 584 192 527 140 c 0,156,157
 481 97 481 97 425 81 c 1,158,-1
 495 421 l 1,159,160
 551 391 551 391 577.5 361 c 128,-1,161
 604 331 604 331 605 300 c 2,162,-1
 602 263 l 1,153,-1
451 655 m 1,163,164
 425 667 425 667 406.5 678.5 c 128,-1,165
 388 690 388 690 378 699 c 0,166,167
 338 737 338 737 338 779 c 1,168,-1
 342 809 l 1,169,-1
 341 806 l 1,170,171
 360 876 360 876 402.5 918.5 c 128,-1,172
 445 961 445 961 517 978 c 1,173,-1
 451 655 l 1,163,164
744 315 m 2,174,175
 731 197 731 197 618 115 c 0,176,177
 525 49 525 49 395 23 c 1,178,-1
 380 -47 l 1,179,-1
 324 -47 l 1,180,-1
 336 19 l 1,181,-1
 313 19 l 1,182,-1
 258 21 l 1,183,-1
 229 21 l 1,184,185
 214 26 214 26 208 28 c 0,186,187
 139 43 139 43 64 81 c 1,188,-1
 79 120 l 1,189,-1
 97 188 l 1,190,-1
 115 265 l 1,191,-1
 155 265 l 1,192,-1
 150 214 l 1,193,194
 150 135 150 135 210 94 c 0,195,196
 263 56 263 56 344 56 c 1,197,-1
 431 473 l 1,198,199
 194 565 194 565 194 717 c 0,200,201
 194 751 194 751 197 766 c 0,202,203
 225 882 225 882 331 959 c 0,204,205
 424 1027 424 1027 550 1046 c 1,206,-1
 561 1102 l 1,207,-1
 618 1102 l 1,208,-1
 607 1046 l 1,209,210
 744 1046 744 1046 843 984 c 1,211,-1
 795 817 l 1,212,-1
 755 817 l 1,213,-1
 757 852 l 2,214,215
 764 1004 764 1004 598 1004 c 1,216,-1
 516 603 l 1,217,218
 633 550 633 550 673 518 c 0,219,220
 750 458 750 458 750 366 c 1,221,-1
 744 315 l 2,174,175
464 629 m 1,222,-1
 541 1002 l 1,223,224
 367 972 367 972 324 811 c 1,225,-1
 320 781 l 1,226,227
 320 728 320 728 366 685 c 0,228,229
 391 661 391 661 464 629 c 1,222,-1
620 261 m 1,230,-1
 623 298 l 1,231,232
 623 379 623 379 483 449 c 1,233,-1
 400 56 l 1,234,235
 479 69 479 69 539.5 125.5 c 128,-1,236
 600 182 600 182 620 261 c 1,230,-1
EndSplineSet
EndChar

StartChar: percent
Encoding: 37 37 8
Width: 1198
GlyphClass: 2
Flags: W
LayerCount: 2
Fore
SplineSet
246 614 m 2,0,1
 245 610 245 610 243 606 c 0,2,3
 242 604 242 604 242 603 c 0,4,5
 242 599 242 599 248 599 c 2,6,-1
 422 599 l 2,7,8
 429 599 429 599 429 605 c 0,9,10
 429 610 429 610 427 618.5 c 128,-1,11
 425 627 425 627 422 640 c 0,12,13
 417 660 417 660 413 672.5 c 128,-1,14
 409 685 409 685 407 685 c 2,15,-1
 262 685 l 2,16,17
 264 684 264 684 262 672 c 128,-1,18
 260 660 260 660 255 640 c 2,19,-1
 246 614 l 2,0,1
839 201 m 2,20,21
 837 199 837 199 837 197 c 128,-1,22
 837 195 837 195 837 194 c 0,23,24
 837 191 837 191 843 191 c 2,25,-1
 1018 191 l 2,26,27
 1024 191 1024 191 1024 198 c 0,28,29
 1024 207 1024 207 1018 233 c 0,30,31
 1013 253 1013 253 1009 265 c 128,-1,32
 1005 277 1005 277 1003 277 c 2,33,-1
 858 277 l 2,34,35
 859 277 859 277 857 264.5 c 128,-1,36
 855 252 855 252 850 232 c 2,37,-1
 839 201 l 2,20,21
384 -146 m 1,38,-1
 773 963 l 1,39,-1
 911 963 l 1,40,-1
 521 -146 l 1,41,-1
 384 -146 l 1,38,-1
705 146 m 0,42,43
 705 169 705 169 718 214 c 2,44,-1
 717 210 l 2,45,46
 719 218 719 218 719 218 c 1,47,-1
 749 325 l 2,48,49
 758 357 758 357 779.5 376 c 128,-1,50
 801 395 801 395 829 395 c 2,51,-1
 1032 395 l 2,52,53
 1058 395 1058 395 1082.5 371.5 c 128,-1,54
 1107 348 1107 348 1118 310 c 1,55,-1
 1118 311 l 1,56,-1
 1147 215 l 1,57,-1
 1155 187 l 2,58,59
 1160 173 1160 173 1162 162 c 128,-1,60
 1164 151 1164 151 1164 146 c 0,61,62
 1164 116 1164 116 1152.5 89 c 128,-1,63
 1141 62 1141 62 1121.5 42.5 c 128,-1,64
 1102 23 1102 23 1075 11.5 c 128,-1,65
 1048 0 1048 0 1018 0 c 2,66,-1
 843 0 l 2,67,68
 784 0 784 0 744 44 c 0,69,70
 705 86 705 86 705 146 c 0,42,43
109 555 m 0,71,72
 109 563 109 563 113 582.5 c 128,-1,73
 117 602 117 602 125 631 c 2,74,-1
 153 732 l 2,75,76
 163 764 163 764 184.5 783.5 c 128,-1,77
 206 803 206 803 233 803 c 2,78,-1
 437 803 l 2,79,80
 463 803 463 803 488.5 779 c 128,-1,81
 514 755 514 755 523 717 c 1,82,-1
 522 718 l 1,83,84
 530 694 530 694 538 668.5 c 128,-1,85
 546 643 546 643 553 619 c 2,86,-1
 560 592 l 2,87,88
 565 578 565 578 566.5 569 c 128,-1,89
 568 560 568 560 568 555 c 0,90,91
 568 525 568 525 556.5 498 c 128,-1,92
 545 471 545 471 525.5 451 c 128,-1,93
 506 431 506 431 479 419.5 c 128,-1,94
 452 408 452 408 422 408 c 2,95,-1
 248 408 l 2,96,97
 190 408 190 408 148 451 c 0,98,99
 109 491 109 491 109 555 c 0,71,72
127 555 m 0,100,101
 127 502 127 502 162 464 c 256,102,103
 197 426 197 426 248 426 c 2,104,-1
 422 426 l 2,105,106
 449 426 449 426 472 436 c 128,-1,107
 495 446 495 446 512 463.5 c 128,-1,108
 529 481 529 481 539 504.5 c 128,-1,109
 549 528 549 528 549 555 c 0,110,111
 549 565 549 565 542 589 c 1,112,-1
 543 588 l 1,113,-1
 536 613 l 2,114,115
 529 637 529 637 520.5 663.5 c 128,-1,116
 512 690 512 690 505 714 c 1,117,-1
 505 713 l 1,118,119
 497 745 497 745 477 764.5 c 128,-1,120
 457 784 457 784 437 784 c 2,121,-1
 233 784 l 2,122,123
 213 784 213 784 196.5 767.5 c 128,-1,124
 180 751 180 751 172 727 c 2,125,-1
 143 625 l 1,126,-1
 143 626 l 1,127,128
 135 598 135 598 131 580 c 128,-1,129
 127 562 127 562 127 555 c 0,100,101
723 146 m 0,130,131
 723 95 723 95 758 57 c 0,132,133
 792 19 792 19 843 19 c 2,134,-1
 1018 19 l 2,135,136
 1044 19 1044 19 1067 29 c 128,-1,137
 1090 39 1090 39 1107.5 56 c 128,-1,138
 1125 73 1125 73 1135 96.5 c 128,-1,139
 1145 120 1145 120 1145 146 c 0,140,141
 1145 150 1145 150 1143 160.5 c 128,-1,142
 1141 171 1141 171 1138 182 c 2,143,-1
 1129 211 l 1,144,-1
 1101 305 l 2,145,146
 1091 337 1091 337 1072 357 c 128,-1,147
 1053 377 1053 377 1032 377 c 2,148,-1
 829 377 l 2,149,150
 808 377 808 377 792 361 c 128,-1,151
 776 345 776 345 768 319 c 2,152,-1
 737 213 l 2,153,154
 737 212 737 212 736 210 c 128,-1,155
 735 208 735 208 735 206 c 0,156,157
 730 184 730 184 726.5 169 c 128,-1,158
 723 154 723 154 723 146 c 0,130,131
508 -127 m 1,159,-1
 885 945 l 1,160,-1
 786 945 l 1,161,-1
 410 -127 l 1,162,-1
 508 -127 l 1,159,-1
223 605 m 0,163,164
 223 606 223 606 224 609 c 128,-1,165
 225 612 225 612 227 617 c 2,166,-1
 236 645 l 2,167,168
 242 671 242 671 249.5 687 c 128,-1,169
 257 703 257 703 262 703 c 2,170,-1
 407 703 l 2,171,172
 415 703 415 703 424.5 687 c 128,-1,173
 434 671 434 671 441 645 c 0,174,175
 443 632 443 632 445 622.5 c 128,-1,176
 447 613 447 613 447 605 c 0,177,178
 447 595 447 595 440 587.5 c 128,-1,179
 433 580 433 580 422 580 c 2,180,-1
 248 580 l 2,181,182
 237 580 237 580 230 587.5 c 128,-1,183
 223 595 223 595 223 605 c 0,163,164
823 207 m 2,184,-1
 832 236 l 2,185,186
 838 263 838 263 845.5 279.5 c 128,-1,187
 853 296 853 296 858 296 c 2,188,-1
 1003 296 l 2,189,190
 1011 296 1011 296 1020.5 279.5 c 128,-1,191
 1030 263 1030 263 1036 237 c 0,192,193
 1039 224 1039 224 1041 215 c 128,-1,194
 1043 206 1043 206 1043 198 c 0,195,196
 1043 187 1043 187 1035.5 180 c 128,-1,197
 1028 173 1028 173 1018 173 c 2,198,-1
 843 173 l 2,199,200
 833 173 833 173 826 179 c 128,-1,201
 819 185 819 185 818 196 c 0,202,203
 818 197 818 197 823 207 c 2,184,-1
146 555 m 0,204,205
 146 561 146 561 149.5 578 c 128,-1,206
 153 595 153 595 161 620 c 2,207,-1
 190 722 l 2,208,209
 195 742 195 742 206.5 754 c 128,-1,210
 218 766 218 766 233 766 c 2,211,-1
 437 766 l 2,212,213
 451 766 451 766 466 749.5 c 128,-1,214
 481 733 481 733 487 708 c 2,215,-1
 517 613 l 2,216,217
 519 607 519 607 525 584 c 128,-1,218
 531 561 531 561 531 555 c 0,219,220
 531 509 531 509 499.5 477 c 128,-1,221
 468 445 468 445 422 445 c 2,222,-1
 248 445 l 2,223,224
 206 445 206 445 176 477 c 128,-1,225
 146 509 146 509 146 555 c 0,204,205
204 605 m 0,226,227
 204 588 204 588 217 574.5 c 128,-1,228
 230 561 230 561 248 561 c 2,229,-1
 422 561 l 2,230,231
 441 561 441 561 453.5 574.5 c 128,-1,232
 466 588 466 588 466 605 c 0,233,234
 466 613 466 613 464 624 c 128,-1,235
 462 635 462 635 458 649 c 0,236,237
 451 682 451 682 436.5 702 c 128,-1,238
 422 722 422 722 407 722 c 2,239,-1
 262 722 l 2,240,241
 251 722 251 722 238.5 702 c 128,-1,242
 226 682 226 682 218 649 c 0,243,244
 215 637 215 637 209.5 623 c 128,-1,245
 204 609 204 609 204 605 c 0,226,227
742 146 m 0,246,247
 742 154 742 154 745.5 170.5 c 128,-1,248
 749 187 749 187 756 212 c 2,249,-1
 785 314 l 2,250,251
 791 334 791 334 802.5 346 c 128,-1,252
 814 358 814 358 829 358 c 2,253,-1
 1032 358 l 2,254,255
 1047 358 1047 358 1061 342 c 128,-1,256
 1075 326 1075 326 1083 299 c 2,257,-1
 1112 205 l 2,258,259
 1114 200 1114 200 1120.5 177 c 128,-1,260
 1127 154 1127 154 1127 146 c 0,261,262
 1127 101 1127 101 1095 69 c 128,-1,263
 1063 37 1063 37 1018 37 c 2,264,-1
 843 37 l 2,265,266
 801 37 801 37 771.5 69 c 128,-1,267
 742 101 742 101 742 146 c 0,246,247
799 198 m 0,268,269
 799 179 799 179 812 166.5 c 128,-1,270
 825 154 825 154 843 154 c 2,271,-1
 1018 154 l 2,272,273
 1035 154 1035 154 1048.5 166.5 c 128,-1,274
 1062 179 1062 179 1062 198 c 0,275,276
 1062 205 1062 205 1060 216 c 128,-1,277
 1058 227 1058 227 1054 242 c 0,278,279
 1047 274 1047 274 1032.5 294 c 128,-1,280
 1018 314 1018 314 1003 314 c 2,281,-1
 858 314 l 2,282,283
 847 314 847 314 834.5 294 c 128,-1,284
 822 274 822 274 814 242 c 0,285,286
 811 229 811 229 805 215 c 128,-1,287
 799 201 799 201 799 198 c 0,268,269
437 -108 m 1,288,-1
 799 926 l 1,289,-1
 858 926 l 1,290,-1
 495 -108 l 1,291,-1
 437 -108 l 1,288,-1
EndSplineSet
EndChar

StartChar: ampersand
Encoding: 38 38 9
Width: 955
GlyphClass: 2
Flags: W
LayerCount: 2
Fore
SplineSet
545 867 m 0,0,1
 545 908 545 908 525 936 c 128,-1,2
 505 964 505 964 469 964 c 0,3,4
 434 964 434 964 410 940 c 256,5,6
 386 916 386 916 386 880 c 0,7,8
 386 859 386 859 389 847 c 2,9,-1
 405 801 l 1,10,-1
 405 802 l 1,11,12
 418 764 418 764 448 715 c 1,13,14
 464 726 464 726 477.5 737 c 128,-1,15
 491 748 491 748 500 757 c 1,16,-1
 500 756 l 1,17,18
 545 805 545 805 545 867 c 0,0,1
587 160 m 1,19,-1
 454 340 l 1,20,-1
 395 427 l 1,21,-1
 333 525 l 1,22,23
 238 441 238 441 238 341 c 0,24,25
 238 251 238 251 306 188 c 0,26,27
 375 125 375 125 469 125 c 0,28,29
 512 125 512 125 559 144 c 1,30,-1
 558 144 l 1,31,32
 576 153 576 153 579 156 c 2,33,-1
 587 160 l 1,19,-1
1003 -6 m 1,34,-1
 892 0 l 1,35,-1
 823 0 l 1,36,-1
 715 -5 l 1,37,-1
 655 76 l 1,38,39
 625 54 625 54 593.5 35.5 c 128,-1,40
 562 17 562 17 530 3 c 1,41,-1
 473 -12 l 1,42,-1
 474 -12 l 1,43,44
 455 -18 455 -18 431.5 -20 c 128,-1,45
 408 -22 408 -22 379 -22 c 0,46,47
 232 -22 232 -22 135 65 c 0,48,49
 33 155 33 155 33 302 c 0,50,51
 33 500 33 500 261 617 c 1,52,-1
 273 624 l 1,53,54
 263 644 263 644 253 663 c 128,-1,55
 243 682 243 682 233 702 c 2,56,-1
 214 757 l 1,57,-1
 209 804 l 1,58,59
 209 929 209 929 314 1009 c 0,60,61
 409 1078 409 1078 525 1078 c 0,62,63
 607 1078 607 1078 673 1026 c 0,64,65
 743 972 743 972 743 884 c 0,66,67
 743 827 743 827 714.5 781 c 128,-1,68
 686 735 686 735 635 701 c 2,69,-1
 565 657 l 1,70,-1
 507 625 l 1,71,-1
 592 498 l 1,72,-1
 591 500 l 1,73,-1
 725 316 l 1,74,75
 750 366 750 366 750 425 c 256,76,77
 750 484 750 484 699 481 c 2,78,-1
 610 479 l 1,79,-1
 646 589 l 1,80,-1
 1003 589 l 1,81,-1
 1003 479 l 1,82,-1
 931 479 l 2,83,84
 901 479 901 479 890 466 c 1,85,-1
 890 467 l 1,86,87
 886 462 886 462 881 446.5 c 128,-1,88
 876 431 876 431 869 408 c 2,89,-1
 856 356 l 2,90,91
 852 341 852 341 846.5 327 c 128,-1,92
 841 313 841 313 834 299 c 2,93,-1
 837 304 l 1,94,95
 832 287 832 287 821.5 268.5 c 128,-1,96
 811 250 811 250 796 227 c 1,97,-1
 861 153 l 2,98,99
 869 144 869 144 879 135 c 2,100,-1
 920 109 l 2,101,102
 928 104 928 104 942 104 c 2,103,-1
 1003 104 l 1,104,-1
 1003 -6 l 1,34,-1
985 86 m 1,105,-1
 942 86 l 2,106,107
 922 86 922 86 913 92 c 2,108,-1
 868 119 l 1,109,-1
 846 141 l 2,110,111
 828 161 828 161 809 183.5 c 128,-1,112
 790 206 790 206 773 226 c 1,113,114
 790 251 790 251 801.5 271.5 c 128,-1,115
 813 292 813 292 819 309 c 0,116,117
 829 328 829 328 838 361 c 0,118,119
 841 374 841 374 845 387.5 c 128,-1,120
 849 401 849 401 852 414 c 1,121,-1
 851 413 l 1,122,123
 865 468 865 468 875 478 c 0,124,125
 892 498 892 498 931 498 c 2,126,-1
 985 498 l 1,127,-1
 985 571 l 1,128,-1
 660 571 l 1,129,-1
 636 498 l 1,130,-1
 698 500 l 2,131,132
 769 503 769 503 769 425 c 0,133,134
 769 387 769 387 759 350.5 c 128,-1,135
 749 314 749 314 728 282 c 1,136,-1
 576 488 l 1,137,-1
 577 488 l 1,138,139
 554 523 554 523 529.5 559 c 128,-1,140
 505 595 505 595 481 630 c 1,141,-1
 556 673 l 1,142,-1
 625 717 l 1,143,-1
 624 717 l 1,144,145
 724 778 724 778 724 884 c 0,146,147
 724 963 724 963 661 1011 c 0,148,149
 602 1059 602 1059 525 1059 c 0,150,151
 411 1059 411 1059 325 994 c 0,152,153
 227 919 227 919 227 807 c 1,154,-1
 233 760 l 1,155,-1
 249 709 l 1,156,157
 261 686 261 686 273.5 663 c 128,-1,158
 286 640 286 640 298 616 c 1,159,-1
 269 600 l 1,160,161
 52 488 52 488 52 302 c 0,162,163
 52 162 52 162 147 79 c 256,164,165
 242 -4 242 -4 379 -4 c 0,166,167
 405 -4 405 -4 427 -1.5 c 128,-1,168
 449 1 449 1 468 7 c 2,169,-1
 533 23 l 1,170,171
 590 46 590 46 659 102 c 1,172,-1
 725 15 l 1,173,-1
 823 19 l 1,174,-1
 893 19 l 1,175,-1
 985 14 l 1,176,-1
 985 86 l 1,105,-1
589 140 m 2,177,178
 587 137 587 137 580.5 134 c 128,-1,179
 574 131 574 131 565 127 c 1,180,-1
 565 128 l 1,181,182
 539 117 539 117 515.5 111.5 c 128,-1,183
 492 106 492 106 469 106 c 0,184,185
 369 106 369 106 293 174 c 0,186,187
 220 242 220 242 220 341 c 0,188,189
 220 457 220 457 336 553 c 1,190,-1
 411 437 l 1,191,-1
 468 351 l 1,192,-1
 613 157 l 1,193,-1
 589 140 l 2,177,178
564 867 m 0,194,195
 564 798 564 798 513 744 c 1,196,-1
 514 744 l 1,197,198
 502 731 502 731 485 717.5 c 128,-1,199
 468 704 468 704 443 689 c 1,200,201
 423 720 423 720 408.5 747.5 c 128,-1,202
 394 775 394 775 387 795 c 2,203,-1
 370 844 l 1,204,-1
 370 842 l 2,205,206
 369 847 369 847 368.5 856.5 c 128,-1,207
 368 866 368 866 368 880 c 0,208,209
 368 922 368 922 397 953 c 0,210,211
 429 983 429 983 469 983 c 0,212,213
 514 983 514 983 539 949 c 128,-1,214
 564 915 564 915 564 867 c 0,194,195
966 34 m 1,215,-1
 894 37 l 1,216,-1
 822 37 l 1,217,-1
 734 34 l 1,218,-1
 661 129 l 1,219,220
 589 67 589 67 521 39 c 1,221,-1
 464 24 l 2,222,223
 429 15 429 15 379 15 c 0,224,225
 248 15 248 15 159 93.5 c 128,-1,226
 70 172 70 172 70 302 c 0,227,228
 70 475 70 475 277 584 c 2,229,-1
 323 608 l 1,230,-1
 266 718 l 1,231,-1
 251 763 l 1,232,-1
 246 809 l 1,233,234
 246 912 246 912 336 979 c 0,235,236
 419 1040 419 1040 525 1040 c 0,237,238
 595 1040 595 1040 650.5 996.5 c 128,-1,239
 706 953 706 953 706 884 c 0,240,241
 706 789 706 789 615 733 c 2,242,-1
 547 690 l 1,243,-1
 455 638 l 1,244,-1
 562 477 l 1,245,-1
 728 250 l 1,246,247
 787 328 787 328 787 425 c 256,248,249
 787 522 787 522 698 518 c 2,250,-1
 661 516 l 1,251,-1
 673 552 l 1,252,-1
 966 552 l 1,253,-1
 966 516 l 1,254,-1
 931 516 l 2,255,256
 883 516 883 516 861 490 c 0,257,258
 848 475 848 475 833 418 c 2,259,-1
 820 365 l 2,260,261
 813 337 813 337 802 317 c 0,262,263
 789 282 789 282 750 224 c 1,264,-1
 833 129 l 1,265,-1
 857 104 l 1,266,-1
 900 78 l 2,267,268
 915 67 915 67 942 67 c 2,269,-1
 966 67 l 1,270,-1
 966 34 l 1,215,-1
582 867 m 0,271,272
 582 923 582 923 552.5 962 c 128,-1,273
 523 1001 523 1001 469 1001 c 0,274,275
 419 1001 419 1001 384 965.5 c 128,-1,276
 349 930 349 930 349 880 c 0,277,278
 349 852 349 852 353 837 c 2,279,-1
 370 789 l 2,280,281
 386 742 386 742 438 664 c 1,282,283
 499 701 499 701 527 731 c 0,284,285
 582 791 582 791 582 867 c 0,271,272
639 153 m 1,286,-1
 484 362 l 1,287,-1
 427 447 l 1,288,-1
 342 580 l 1,289,290
 201 475 201 475 201 341 c 0,291,292
 201 233 201 233 280.5 160.5 c 128,-1,293
 360 88 360 88 469 88 c 0,294,295
 519 88 519 88 573 110 c 0,296,297
 595 119 595 119 600 125 c 2,298,-1
 639 153 l 1,286,-1
EndSplineSet
EndChar

StartChar: quotesingle
Encoding: 39 39 10
Width: 327
GlyphClass: 2
Flags: W
LayerCount: 2
Fore
SplineSet
197 688 m 1,0,-1
 223 980 l 2,1,2
 226 1012 226 1012 232.5 1054.5 c 128,-1,3
 239 1097 239 1097 249 1152 c 1,4,5
 267 1221 267 1221 332 1249 c 0,6,7
 343 1253 343 1253 352.5 1255.5 c 128,-1,8
 362 1258 362 1258 372 1258 c 0,9,10
 451 1258 451 1258 460 1166 c 0,11,12
 460 1149 460 1149 458.5 1135 c 128,-1,13
 457 1121 457 1121 452 1109 c 0,14,15
 449 1095 449 1095 434 1057 c 128,-1,16
 419 1019 419 1019 395 960 c 0,17,18
 369 897 369 897 339 824 c 128,-1,19
 309 751 309 751 284 688 c 1,20,-1
 197 688 l 1,0,-1
274 705 m 1,21,22
 299 768 299 768 327 836.5 c 128,-1,23
 355 905 355 905 381 968 c 1,24,-1
 381 967 l 1,25,26
 404 1024 404 1024 418 1059.5 c 128,-1,27
 432 1095 432 1095 437 1112 c 0,28,29
 445 1133 445 1133 445 1165 c 0,30,31
 437 1240 437 1240 372 1240 c 0,32,33
 358 1240 358 1240 337 1232 c 0,34,35
 280 1208 280 1208 262 1144 c 1,36,37
 254 1095 254 1095 248 1054 c 128,-1,38
 242 1013 242 1013 239 979 c 2,39,-1
 214 705 l 1,40,-1
 274 705 l 1,21,22
231 723 m 1,41,-1
 254 977 l 2,42,43
 260 1038 260 1038 278 1144 c 1,44,45
 292 1194 292 1194 343 1215 c 0,46,47
 359 1222 359 1222 372 1222 c 0,48,49
 424 1222 424 1222 430 1163 c 0,50,51
 430 1136 430 1136 422 1119 c 0,52,53
 416 1094 416 1094 367 975 c 2,54,-1
 265 723 l 1,55,-1
 231 723 l 1,41,-1
EndSplineSet
EndChar

StartChar: parenleft
Encoding: 40 40 11
Width: 601
GlyphClass: 2
Flags: W
LayerCount: 2
Fore
SplineSet
100 480 m 0,0,1
 100 672 100 672 216 842 c 0,2,3
 329 1010 329 1010 569 1128 c 1,4,-1
 569 1004 l 1,5,6
 411 903 411 903 329 764 c 0,7,8
 249 629 249 629 249 480 c 0,9,10
 249 414 249 414 268.5 348 c 128,-1,11
 288 282 288 282 328 217 c 0,12,13
 408 88 408 88 569 -13 c 1,14,-1
 569 -263 l 1,15,16
 324 -108 324 -108 213 81 c 0,17,18
 100 274 100 274 100 480 c 0,0,1
117 480 m 0,19,20
 117 279 117 279 227 92 c 0,21,22
 338 -96 338 -96 552 -230 c 1,23,-1
 552 -25 l 1,24,25
 397 72 397 72 314 206 c 0,26,27
 272 273 272 273 252 342 c 128,-1,28
 232 411 232 411 232 480 c 0,29,30
 232 633 232 633 314 775 c 0,31,32
 399 917 399 917 552 1016 c 1,33,-1
 552 1100 l 1,34,35
 341 994 341 994 230 831 c 0,36,37
 117 665 117 665 117 480 c 0,19,20
134 480 m 0,38,39
 134 659 134 659 243.5 819.5 c 128,-1,40
 353 980 353 980 535 1070 c 1,41,-1
 535 1026 l 1,42,43
 386 932 386 932 300 785.5 c 128,-1,44
 214 639 214 639 214 480 c 0,45,46
 214 334 214 334 300 196 c 128,-1,47
 386 58 386 58 535 -36 c 1,48,-1
 535 -198 l 1,49,50
 349 -80 349 -80 241.5 102.5 c 128,-1,51
 134 285 134 285 134 480 c 0,38,39
EndSplineSet
EndChar

StartChar: parenright
Encoding: 41 41 12
Width: 601
GlyphClass: 2
Flags: W
LayerCount: 2
Fore
SplineSet
569 480 m 0,0,1
 569 275 569 275 456 81 c 0,2,3
 345 -108 345 -108 100 -263 c 1,4,-1
 100 -13 l 1,5,6
 258 86 258 86 340 217 c 0,7,8
 420 347 420 347 420 480 c 0,9,10
 420 627 420 627 339 764 c 0,11,12
 256 905 256 905 100 1004 c 1,13,-1
 100 1128 l 1,14,15
 340 1010 340 1010 453 842 c 0,16,17
 569 672 569 672 569 480 c 0,0,1
552 480 m 0,18,19
 552 665 552 665 439 831 c 0,20,21
 328 994 328 994 117 1100 c 1,22,-1
 117 1016 l 1,23,24
 268 918 268 918 354 775 c 0,25,26
 437 632 437 632 437 480 c 0,27,28
 437 340 437 340 354 206 c 1,29,-1
 355 206 l 1,30,31
 271 70 271 70 117 -25 c 1,32,-1
 117 -230 l 1,33,34
 331 -96 331 -96 442 92 c 0,35,36
 552 279 552 279 552 480 c 0,18,19
535 480 m 0,37,38
 535 285 535 285 427.5 102.5 c 128,-1,39
 320 -80 320 -80 134 -198 c 1,40,-1
 134 -36 l 1,41,42
 283 58 283 58 368.5 196 c 128,-1,43
 454 334 454 334 454 480 c 0,44,45
 454 639 454 639 368.5 785.5 c 128,-1,46
 283 932 283 932 134 1026 c 1,47,-1
 134 1070 l 1,48,49
 316 980 316 980 425.5 819.5 c 128,-1,50
 535 659 535 659 535 480 c 0,37,38
EndSplineSet
EndChar

StartChar: asterisk
Encoding: 42 42 13
Width: 1024
GlyphClass: 2
Flags: W
LayerCount: 2
Fore
SplineSet
293 -24 m 1,0,-1
 293 257 l 1,1,2
 269 271 269 271 239.5 288 c 128,-1,3
 210 305 210 305 179.5 322 c 128,-1,4
 149 339 149 339 121 355 c 128,-1,5
 93 371 93 371 72 383 c 1,6,-1
 293 518 l 1,7,-1
 293 806 l 1,8,-1
 551 666 l 1,9,-1
 797 808 l 1,10,-1
 797 526 l 1,11,-1
 1028 397 l 1,12,-1
 797 262 l 1,13,-1
 797 -27 l 1,14,-1
 550 115 l 1,15,-1
 293 -24 l 1,0,-1
552 135 m 1,16,-1
 778 5 l 1,17,-1
 778 273 l 1,18,-1
 990 397 l 1,19,-1
 778 515 l 1,20,-1
 778 776 l 1,21,-1
 553 645 l 1,22,-1
 312 776 l 1,23,-1
 312 507 l 1,24,-1
 109 383 l 1,25,26
 130 371 130 371 155.5 356.5 c 128,-1,27
 181 342 181 342 208.5 326.5 c 128,-1,28
 236 311 236 311 262.5 296 c 128,-1,29
 289 281 289 281 312 268 c 1,30,-1
 312 5 l 1,31,-1
 552 135 l 1,16,-1
330 36 m 1,32,-1
 330 278 l 1,33,-1
 144 384 l 1,34,-1
 330 497 l 1,35,-1
 330 745 l 1,36,-1
 552 624 l 1,37,-1
 760 745 l 1,38,-1
 760 504 l 1,39,-1
 954 397 l 1,40,-1
 760 284 l 1,41,-1
 760 36 l 1,42,-1
 552 157 l 1,43,-1
 330 36 l 1,32,-1
EndSplineSet
EndChar

StartChar: plus
Encoding: 43 43 14
Width: 681
GlyphClass: 2
Flags: W
LayerCount: 2
Fore
SplineSet
102 240 m 1,0,-1
 102 362 l 1,1,-1
 307 362 l 1,2,-1
 307 536 l 1,3,-1
 445 536 l 1,4,-1
 445 362 l 1,5,-1
 649 362 l 1,6,-1
 649 240 l 1,7,-1
 445 240 l 1,8,-1
 445 67 l 1,9,-1
 307 67 l 1,10,-1
 307 240 l 1,11,-1
 102 240 l 1,0,-1
325 257 m 1,12,-1
 325 84 l 1,13,-1
 427 84 l 1,14,-1
 427 257 l 1,15,-1
 632 257 l 1,16,-1
 632 345 l 1,17,-1
 427 345 l 1,18,-1
 427 519 l 1,19,-1
 325 519 l 1,20,-1
 325 345 l 1,21,-1
 120 345 l 1,22,-1
 120 257 l 1,23,-1
 325 257 l 1,12,-1
137 274 m 1,24,-1
 137 328 l 1,25,-1
 342 328 l 1,26,-1
 342 501 l 1,27,-1
 410 501 l 1,28,-1
 410 328 l 1,29,-1
 614 328 l 1,30,-1
 614 274 l 1,31,-1
 410 274 l 1,32,-1
 410 101 l 1,33,-1
 342 101 l 1,34,-1
 342 274 l 1,35,-1
 137 274 l 1,24,-1
EndSplineSet
EndChar

StartChar: comma
Encoding: 44 44 15
Width: 277
GlyphClass: 2
Flags: W
LayerCount: 2
Fore
SplineSet
80 208 m 1,0,-1
 252 208 l 1,1,-1
 252 -45 l 2,2,3
 252 -70 252 -70 244 -92.5 c 128,-1,4
 236 -115 236 -115 222 -131.5 c 128,-1,5
 208 -148 208 -148 189.5 -157.5 c 128,-1,6
 171 -167 171 -167 150 -167 c 2,7,-1
 80 -167 l 1,8,-1
 80 208 l 1,0,-1
179 16 m 1,9,-1
 179 7 l 2,10,11
 179 -3 179 -3 170 -9 c 128,-1,12
 161 -15 161 -15 150 -15 c 2,13,-1
 94 -15 l 1,14,-1
 94 -151 l 1,15,-1
 150 -151 l 2,16,17
 168 -151 168 -151 184 -142.5 c 128,-1,18
 200 -134 200 -134 212 -119.5 c 128,-1,19
 224 -105 224 -105 231 -86 c 128,-1,20
 238 -67 238 -67 238 -45 c 2,21,-1
 238 191 l 1,22,-1
 94 191 l 1,23,-1
 94 16 l 1,24,-1
 179 16 l 1,9,-1
107 33 m 1,25,-1
 107 175 l 1,26,-1
 225 175 l 1,27,-1
 225 -45 l 2,28,29
 225 -82 225 -82 203 -108 c 128,-1,30
 181 -134 181 -134 150 -134 c 2,31,-1
 107 -134 l 1,32,-1
 107 -31 l 1,33,-1
 150 -31 l 2,34,35
 167 -31 167 -31 179.5 -20 c 128,-1,36
 192 -9 192 -9 192 7 c 2,37,-1
 192 33 l 1,38,-1
 107 33 l 1,25,-1
EndSplineSet
EndChar

StartChar: hyphen
Encoding: 45 45 16
Width: 519
GlyphClass: 2
Flags: W
LayerCount: 2
Fore
SplineSet
97 137 m 1,0,-1
 97 200 l 1,1,-1
 488 200 l 1,2,-1
 488 137 l 1,3,-1
 97 137 l 1,0,-1
472 146 m 1,4,-1
 472 192 l 1,5,-1
 114 192 l 1,6,-1
 114 146 l 1,7,-1
 472 146 l 1,4,-1
130 155 m 1,8,-1
 130 183 l 1,9,-1
 455 183 l 1,10,-1
 455 155 l 1,11,-1
 130 155 l 1,8,-1
EndSplineSet
EndChar

StartChar: period
Encoding: 46 46 17
Width: 277
GlyphClass: 2
Flags: W
LayerCount: 2
Fore
SplineSet
80 0 m 1,0,-1
 80 187 l 1,1,-1
 252 187 l 1,2,-1
 252 0 l 1,3,-1
 80 0 l 1,0,-1
238 14 m 1,4,-1
 238 173 l 1,5,-1
 94 173 l 1,6,-1
 94 14 l 1,7,-1
 238 14 l 1,4,-1
107 28 m 1,8,-1
 107 159 l 1,9,-1
 225 159 l 1,10,-1
 225 28 l 1,11,-1
 107 28 l 1,8,-1
EndSplineSet
EndChar

StartChar: slash
Encoding: 47 47 18
Width: 584
GlyphClass: 2
Flags: W
LayerCount: 2
Fore
SplineSet
85 -146 m 1,0,-1
 442 963 l 1,1,-1
 567 963 l 1,2,-1
 211 -146 l 1,3,-1
 85 -146 l 1,0,-1
199 -127 m 1,4,-1
 543 945 l 1,5,-1
 454 945 l 1,6,-1
 109 -127 l 1,7,-1
 199 -127 l 1,4,-1
133 -108 m 1,8,-1
 466 926 l 1,9,-1
 518 926 l 1,10,-1
 187 -108 l 1,11,-1
 133 -108 l 1,8,-1
EndSplineSet
EndChar

StartChar: zero
Encoding: 48 48 19
Width: 891
GlyphClass: 2
Flags: W
LayerCount: 2
Fore
SplineSet
635 869 m 1,0,-1
 636 867 l 2,1,2
 631 881 631 881 628.5 889.5 c 128,-1,3
 626 898 626 898 625 898 c 2,4,-1
 333 898 l 2,5,6
 337 896 337 896 337 887.5 c 128,-1,7
 337 879 337 879 333 867 c 2,8,-1
 334 869 l 1,9,-1
 213 348 l 2,10,11
 203 306 203 306 197.5 279 c 128,-1,12
 192 252 192 252 192 240 c 0,13,14
 192 231 192 231 197.5 225 c 128,-1,15
 203 219 203 219 211 219 c 2,16,-1
 753 219 l 2,17,18
 760 219 760 219 765 225 c 128,-1,19
 770 231 770 231 770 240 c 0,20,21
 770 255 770 255 766.5 275 c 128,-1,22
 763 295 763 295 758 318 c 2,23,-1
 635 869 l 1,0,-1
66 153 m 0,24,25
 66 177 66 177 69.5 205 c 128,-1,26
 73 233 73 233 81 263 c 1,27,-1
 81 262 l 1,28,-1
 229 930 l 2,29,30
 240 967 240 967 266.5 991.5 c 128,-1,31
 293 1016 293 1016 325 1016 c 2,32,-1
 659 1016 l 2,33,34
 686 1016 686 1016 710 981.5 c 128,-1,35
 734 947 734 947 747 893 c 2,36,-1
 883 270 l 2,37,38
 890 240 890 240 894 210 c 128,-1,39
 898 180 898 180 898 153 c 0,40,41
 898 89 898 89 856 44 c 0,42,43
 814 0 814 0 753 0 c 2,44,-1
 211 0 l 2,45,46
 152 0 152 0 108 44 c 0,47,48
 66 87 66 87 66 153 c 0,24,25
84 153 m 0,49,50
 84 97 84 97 121 57 c 0,51,52
 161 19 161 19 211 19 c 2,53,-1
 753 19 l 2,54,55
 806 19 806 19 842 57 c 0,56,57
 879 95 879 95 879 153 c 0,58,59
 879 180 879 180 875.5 208.5 c 128,-1,60
 872 237 872 237 866 265 c 2,61,-1
 729 888 l 2,62,63
 716 936 716 936 697.5 966.5 c 128,-1,64
 679 997 679 997 659 997 c 2,65,-1
 325 997 l 2,66,67
 299 997 299 997 277.5 977 c 128,-1,68
 256 957 256 957 246 925 c 2,69,-1
 99 258 l 1,70,-1
 99 259 l 1,71,72
 91 229 91 229 87.5 202.5 c 128,-1,73
 84 176 84 176 84 153 c 0,49,50
775 323 m 2,74,75
 781 298 781 298 784.5 276.5 c 128,-1,76
 788 255 788 255 788 240 c 0,77,78
 788 223 788 223 777.5 211.5 c 128,-1,79
 767 200 767 200 753 200 c 2,80,-1
 211 200 l 2,81,82
 196 200 196 200 185 211.5 c 128,-1,83
 174 223 174 223 174 240 c 0,84,85
 174 254 174 254 179.5 281.5 c 128,-1,86
 185 309 185 309 194 351 c 2,87,-1
 316 872 l 1,88,-1
 316 871 l 1,89,90
 322 891 322 891 326 904 c 128,-1,91
 330 917 330 917 332 917 c 2,92,-1
 625 917 l 2,93,94
 632 917 632 917 639.5 904 c 128,-1,95
 647 891 647 891 653 871 c 2,96,-1
 652 873 l 1,97,-1
 775 323 l 2,74,75
102 153 m 0,98,99
 102 174 102 174 105.5 199.5 c 128,-1,100
 109 225 109 225 117 254 c 2,101,-1
 265 921 l 2,102,103
 272 946 272 946 289 962.5 c 128,-1,104
 306 979 306 979 325 979 c 2,105,-1
 659 979 l 2,106,107
 672 979 672 979 687 952.5 c 128,-1,108
 702 926 702 926 712 884 c 2,109,-1
 848 261 l 2,110,111
 854 233 854 233 857.5 205.5 c 128,-1,112
 861 178 861 178 861 153 c 0,113,114
 861 104 861 104 829 70.5 c 128,-1,115
 797 37 797 37 753 37 c 2,116,-1
 211 37 l 2,117,118
 167 37 167 37 134.5 70.5 c 128,-1,119
 102 104 102 104 102 153 c 0,98,99
671 877 m 2,120,121
 663 903 663 903 651 919 c 128,-1,122
 639 935 639 935 625 935 c 2,123,-1
 332 935 l 2,124,125
 323 935 323 935 314.5 919 c 128,-1,126
 306 903 306 903 298 877 c 2,127,-1
 177 356 l 2,128,129
 167 312 167 312 161.5 283 c 128,-1,130
 156 254 156 254 156 240 c 0,131,132
 156 216 156 216 172 199 c 128,-1,133
 188 182 188 182 211 182 c 2,134,-1
 753 182 l 2,135,136
 775 182 775 182 790.5 199 c 128,-1,137
 806 216 806 216 806 240 c 0,138,139
 806 258 806 258 802.5 279.5 c 128,-1,140
 799 301 799 301 794 326 c 2,141,-1
 671 877 l 2,120,121
EndSplineSet
EndChar

StartChar: one
Encoding: 49 49 20
Width: 840
GlyphClass: 2
Flags: W
LayerCount: 2
Fore
SplineSet
497 0 m 1,0,-1
 497 889 l 1,1,2
 471 860 471 860 443 827.5 c 128,-1,3
 415 795 415 795 386.5 762 c 128,-1,4
 358 729 358 729 331 697.5 c 128,-1,5
 304 666 304 666 280 639 c 1,6,-1
 192 713 l 1,7,-1
 457 1016 l 1,8,-1
 606 1016 l 1,9,-1
 606 254 l 2,10,11
 606 240 606 240 634 229.5 c 128,-1,12
 662 219 662 219 700 219 c 1,13,-1
 700 0 l 1,14,-1
 497 0 l 1,0,-1
683 19 m 1,15,-1
 683 200 l 1,16,17
 644 200 644 200 616.5 215.5 c 128,-1,18
 589 231 589 231 589 254 c 2,19,-1
 589 997 l 1,20,-1
 464 997 l 1,21,-1
 217 716 l 1,22,-1
 279 664 l 1,23,-1
 499 917 l 1,24,-1
 514 917 l 1,25,-1
 514 19 l 1,26,-1
 683 19 l 1,15,-1
532 37 m 1,27,-1
 532 935 l 1,28,-1
 491 935 l 1,29,-1
 276 689 l 1,30,-1
 243 718 l 1,31,-1
 471 979 l 1,32,-1
 572 979 l 1,33,-1
 572 254 l 2,34,35
 572 223 572 223 599.5 202.5 c 128,-1,36
 627 182 627 182 666 182 c 1,37,-1
 666 37 l 1,38,-1
 532 37 l 1,27,-1
EndSplineSet
EndChar

StartChar: two
Encoding: 50 50 21
Width: 878
GlyphClass: 2
Flags: W
LayerCount: 2
Fore
SplineSet
120 138 m 0,0,1
 120 191 120 191 129 221 c 1,2,-1
 128 220 l 1,3,-1
 162 354 l 1,4,5
 164 389 164 389 199 420 c 128,-1,6
 234 451 234 451 288 464 c 2,7,-1
 640 537 l 1,8,-1
 638 537 l 1,9,10
 660 543 660 543 674.5 550.5 c 128,-1,11
 689 558 689 558 689 565 c 0,12,13
 689 591 689 591 674 630 c 1,14,-1
 639 864 l 1,15,16
 632 880 632 880 624.5 889 c 128,-1,17
 617 898 617 898 612 898 c 2,18,-1
 373 898 l 2,19,20
 362 898 362 898 351 875 c 1,21,-1
 304 667 l 1,22,-1
 188 667 l 1,23,-1
 240 894 l 2,24,25
 255 948 255 948 284 982 c 128,-1,26
 313 1016 313 1016 345 1016 c 2,27,-1
 653 1016 l 2,28,29
 668 1016 668 1016 683.5 1004.5 c 128,-1,30
 699 993 699 993 713 973 c 128,-1,31
 727 953 727 953 739.5 925.5 c 128,-1,32
 752 898 752 898 761 865 c 2,33,-1
 795 639 l 2,34,35
 800 624 800 624 801 604.5 c 128,-1,36
 802 585 802 585 802 558 c 0,37,38
 802 513 802 513 767 475.5 c 128,-1,39
 732 438 732 438 674 421 c 1,40,-1
 317 349 l 1,41,-1
 319 349 l 1,42,-1
 308 345 l 1,43,-1
 310 346 l 1,44,45
 281 336 281 336 280 341 c 2,46,-1
 253 223 l 2,47,48
 253 219 253 219 261 219 c 2,49,-1
 831 219 l 1,50,-1
 831 0 l 1,51,-1
 233 0 l 2,52,53
 210 0 210 0 189.5 11 c 128,-1,54
 169 22 169 22 153.5 40.5 c 128,-1,55
 138 59 138 59 129 84 c 128,-1,56
 120 109 120 109 120 138 c 0,0,1
138 138 m 256,57,58
 138 113 138 113 145.5 91.5 c 128,-1,59
 153 70 153 70 166 54 c 128,-1,60
 179 38 179 38 196 28.5 c 128,-1,61
 213 19 213 19 233 19 c 2,62,-1
 813 19 l 1,63,-1
 813 200 l 1,64,-1
 261 200 l 2,65,66
 248 200 248 200 240.5 208.5 c 128,-1,67
 233 217 233 217 236 228 c 0,68,69
 242 259 242 259 249.5 289.5 c 128,-1,70
 257 320 257 320 264 350 c 1,71,72
 263 349 263 349 305 363 c 1,73,-1
 304 363 l 1,74,-1
 315 367 l 1,75,-1
 314 366 l 1,76,-1
 668 438 l 1,77,78
 720 454 720 454 752 486.5 c 128,-1,79
 784 519 784 519 784 558 c 0,80,81
 784 608 784 608 777 636 c 1,82,-1
 778 634 l 1,83,-1
 742 865 l 1,84,85
 726 922 726 922 702 959.5 c 128,-1,86
 678 997 678 997 653 997 c 2,87,-1
 345 997 l 2,88,89
 319 997 319 997 295 966.5 c 128,-1,90
 271 936 271 936 258 888 c 2,91,-1
 210 685 l 1,92,-1
 289 685 l 1,93,-1
 333 881 l 1,94,-1
 333 878 l 1,95,96
 340 895 340 895 350.5 906 c 128,-1,97
 361 917 361 917 373 917 c 2,98,-1
 612 917 l 2,99,100
 623 917 623 917 635.5 902.5 c 128,-1,101
 648 888 648 888 657 865 c 1,102,-1
 692 633 l 1,103,104
 707 594 707 594 707 565 c 0,105,106
 707 552 707 552 688.5 539 c 128,-1,107
 670 526 670 526 643 518 c 1,108,-1
 644 519 l 1,109,-1
 291 446 l 2,110,111
 243 433 243 433 212.5 405.5 c 128,-1,112
 182 378 182 378 180 349 c 1,113,-1
 146 215 l 1,114,-1
 146 216 l 1,115,116
 141 202 141 202 139.5 182.5 c 128,-1,117
 138 163 138 163 138 138 c 256,57,58
156 138 m 0,118,119
 156 162 156 162 157.5 180 c 128,-1,120
 159 198 159 198 163 210 c 2,121,-1
 198 349 l 1,122,123
 198 372 198 372 225 394.5 c 128,-1,124
 252 417 252 417 296 428 c 2,125,-1
 647 501 l 2,126,127
 680 510 680 510 702 528 c 128,-1,128
 724 546 724 546 724 565 c 0,129,130
 724 582 724 582 720.5 600 c 128,-1,131
 717 618 717 618 710 638 c 2,132,-1
 675 870 l 1,133,134
 664 899 664 899 646.5 917 c 128,-1,135
 629 935 629 935 612 935 c 2,136,-1
 373 935 l 2,137,138
 355 935 355 935 340 921.5 c 128,-1,139
 325 908 325 908 316 884 c 2,140,-1
 275 704 l 1,141,-1
 233 704 l 1,142,-1
 275 884 l 2,143,144
 287 926 287 926 306 952.5 c 128,-1,145
 325 979 325 979 345 979 c 2,146,-1
 653 979 l 2,147,148
 671 979 671 979 690.5 946 c 128,-1,149
 710 913 710 913 724 863 c 1,150,-1
 760 631 l 2,151,152
 763 618 763 618 764.5 600 c 128,-1,153
 766 582 766 582 766 558 c 0,154,155
 766 526 766 526 739 498 c 128,-1,156
 712 470 712 470 668 457 c 1,157,-1
 310 385 l 2,158,159
 275 374 275 374 261.5 368.5 c 128,-1,160
 248 363 248 363 246 356 c 2,161,-1
 218 233 l 2,162,163
 213 212 213 212 226.5 197 c 128,-1,164
 240 182 240 182 261 182 c 2,165,-1
 795 182 l 1,166,-1
 795 37 l 1,167,-1
 233 37 l 2,168,169
 201 37 201 37 178.5 66.5 c 128,-1,170
 156 96 156 96 156 138 c 0,118,119
EndSplineSet
EndChar

StartChar: three
Encoding: 51 51 22
Width: 882
GlyphClass: 2
Flags: W
LayerCount: 2
Fore
SplineSet
106 146 m 0,0,1
 106 168 106 168 109.5 188 c 128,-1,2
 113 208 113 208 119 228 c 2,3,-1
 159 407 l 1,4,-1
 279 407 l 1,5,-1
 246 232 l 1,6,7
 257 219 257 219 276 219 c 2,8,-1
 691 219 l 2,9,10
 704 219 704 219 712.5 225 c 128,-1,11
 721 231 721 231 721 240 c 0,12,13
 721 255 721 255 717.5 275.5 c 128,-1,14
 714 296 714 296 709 322 c 2,15,-1
 701 396 l 1,16,17
 694 418 694 418 680 433.5 c 128,-1,18
 666 449 666 449 652 449 c 2,19,-1
 414 449 l 1,20,-1
 414 566 l 1,21,-1
 623 566 l 2,22,23
 625 566 625 566 626 572.5 c 128,-1,24
 627 579 627 579 627 588 c 0,25,26
 627 609 627 609 624 633 c 128,-1,27
 621 657 621 657 616 682 c 2,28,-1
 587 885 l 2,29,30
 583 898 583 898 570 898 c 2,31,-1
 395 898 l 2,32,33
 391 898 391 898 386.5 886 c 128,-1,34
 382 874 382 874 378 856 c 2,35,-1
 339 667 l 1,36,-1
 217 667 l 1,37,-1
 274 928 l 2,38,39
 286 966 286 966 315 991 c 128,-1,40
 344 1016 344 1016 384 1016 c 2,41,-1
 584 1016 l 2,42,43
 624 1016 624 1016 656 983 c 128,-1,44
 688 950 688 950 699 898 c 2,45,-1
 740 592 l 1,46,-1
 739 594 l 1,47,48
 746 566 746 566 738 541 c 1,49,50
 764 524 764 524 784 493 c 128,-1,51
 804 462 804 462 814 420 c 1,52,-1
 841 215 l 1,53,-1
 840 216 l 1,54,55
 848 184 848 184 848 153 c 0,56,57
 848 89 848 89 806 44 c 0,58,59
 765 0 765 0 704 0 c 2,60,-1
 249 0 l 2,61,62
 190 0 190 0 148 43 c 0,63,64
 106 85 106 85 106 146 c 0,0,1
124 146 m 0,65,66
 124 93 124 93 161 56 c 0,67,68
 197 19 197 19 249 19 c 2,69,-1
 704 19 l 2,70,71
 757 19 757 19 793 57 c 0,72,73
 830 97 830 97 830 153 c 0,74,75
 830 170 830 170 828 185 c 128,-1,76
 826 200 826 200 823 214 c 2,77,-1
 823 213 l 1,78,-1
 797 413 l 1,79,80
 786 458 786 458 765 489.5 c 128,-1,81
 744 521 744 521 716 533 c 1,82,83
 721 546 721 546 723 561.5 c 128,-1,84
 725 577 725 577 722 591 c 2,85,-1
 682 895 l 1,86,87
 672 940 672 940 645 968.5 c 128,-1,88
 618 997 618 997 584 997 c 2,89,-1
 384 997 l 2,90,91
 350 997 350 997 325 975 c 128,-1,92
 300 953 300 953 291 921 c 2,93,-1
 239 685 l 1,94,-1
 325 685 l 1,95,-1
 361 859 l 2,96,97
 365 884 365 884 375 900.5 c 128,-1,98
 385 917 385 917 395 917 c 2,99,-1
 570 917 l 2,100,101
 584 917 584 917 593 909 c 128,-1,102
 602 901 602 901 606 887 c 2,103,-1
 605 889 l 1,104,-1
 634 685 l 2,105,106
 639 660 639 660 642 635.5 c 128,-1,107
 645 611 645 611 645 588 c 0,108,109
 645 571 645 571 639 559.5 c 128,-1,110
 633 548 633 548 623 548 c 2,111,-1
 432 548 l 1,112,-1
 432 467 l 1,113,-1
 652 467 l 2,114,115
 673 467 673 467 692.5 447 c 128,-1,116
 712 427 712 427 719 396 c 2,117,-1
 727 322 l 2,118,119
 732 296 732 296 735.5 275.5 c 128,-1,120
 739 255 739 255 739 240 c 0,121,122
 739 223 739 223 725 211.5 c 128,-1,123
 711 200 711 200 691 200 c 2,124,-1
 276 200 l 2,125,126
 260 200 260 200 247.5 208 c 128,-1,127
 235 216 235 216 228 227 c 1,128,-1
 258 388 l 1,129,-1
 173 388 l 1,130,131
 169 370 169 370 164.5 349 c 128,-1,132
 160 328 160 328 155 306 c 128,-1,133
 150 284 150 284 145 262 c 128,-1,134
 140 240 140 240 136 222 c 0,135,136
 124 184 124 184 124 146 c 0,65,66
142 146 m 0,137,138
 142 164 142 164 145.5 182 c 128,-1,139
 149 200 149 200 154 218 c 2,140,-1
 188 370 l 1,141,-1
 236 370 l 1,142,-1
 209 225 l 1,143,144
 216 206 216 206 234.5 194 c 128,-1,145
 253 182 253 182 276 182 c 2,146,-1
 691 182 l 2,147,148
 719 182 719 182 738 199 c 128,-1,149
 757 216 757 216 757 240 c 0,150,151
 757 258 757 258 753.5 279.5 c 128,-1,152
 750 301 750 301 745 326 c 2,153,-1
 737 400 l 2,154,155
 729 438 729 438 704.5 462 c 128,-1,156
 680 486 680 486 652 486 c 2,157,-1
 450 486 l 1,158,-1
 450 529 l 1,159,-1
 623 529 l 2,160,161
 641 529 641 529 652 546.5 c 128,-1,162
 663 564 663 564 663 588 c 0,163,164
 663 613 663 613 659.5 638.5 c 128,-1,165
 656 664 656 664 652 689 c 2,166,-1
 623 892 l 2,167,168
 618 911 618 911 603.5 923 c 128,-1,169
 589 935 589 935 570 935 c 2,170,-1
 395 935 l 2,171,172
 378 935 378 935 363 914.5 c 128,-1,173
 348 894 348 894 343 863 c 2,174,-1
 310 704 l 1,175,-1
 262 704 l 1,176,-1
 310 921 l 2,177,178
 317 946 317 946 337 962.5 c 128,-1,179
 357 979 357 979 384 979 c 2,180,-1
 584 979 l 2,181,182
 611 979 611 979 633 954.5 c 128,-1,183
 655 930 655 930 663 892 c 2,184,-1
 704 588 l 2,185,186
 708 569 708 569 703.5 552 c 128,-1,187
 699 535 699 535 685 522 c 1,188,189
 715 522 715 522 740.5 491.5 c 128,-1,190
 766 461 766 461 778 413 c 1,191,-1
 805 210 l 2,192,193
 808 197 808 197 810 182.5 c 128,-1,194
 812 168 812 168 812 153 c 0,195,196
 812 104 812 104 780 70.5 c 128,-1,197
 748 37 748 37 704 37 c 2,198,-1
 249 37 l 2,199,200
 205 37 205 37 173.5 68.5 c 128,-1,201
 142 100 142 100 142 146 c 0,137,138
EndSplineSet
EndChar

StartChar: four
Encoding: 52 52 23
Width: 883
GlyphClass: 2
Flags: W
LayerCount: 2
Fore
SplineSet
102 247 m 1,0,-1
 102 438 l 1,1,-1
 428 1016 l 1,2,-1
 569 1016 l 1,3,-1
 258 465 l 1,4,-1
 583 465 l 1,5,-1
 583 885 l 1,6,-1
 697 885 l 1,7,-1
 697 465 l 1,8,-1
 852 465 l 1,9,-1
 852 247 l 1,10,-1
 698 247 l 1,11,12
 705 235 705 235 728 227 c 128,-1,13
 751 219 751 219 782 219 c 1,14,-1
 782 0 l 1,15,-1
 583 0 l 1,16,-1
 583 247 l 1,17,-1
 102 247 l 1,0,-1
601 265 m 1,18,-1
 601 19 l 1,19,-1
 764 19 l 1,20,-1
 764 200 l 1,21,22
 729 200 729 200 704 215.5 c 128,-1,23
 679 231 679 231 679 254 c 2,24,-1
 679 265 l 1,25,-1
 834 265 l 1,26,-1
 834 447 l 1,27,-1
 679 447 l 1,28,-1
 679 867 l 1,29,-1
 601 867 l 1,30,-1
 601 447 l 1,31,-1
 226 447 l 1,32,-1
 537 997 l 1,33,-1
 439 997 l 1,34,-1
 120 433 l 1,35,-1
 120 265 l 1,36,-1
 601 265 l 1,18,-1
138 284 m 1,37,-1
 138 428 l 1,38,-1
 449 979 l 1,39,-1
 506 979 l 1,40,-1
 195 428 l 1,41,-1
 619 428 l 1,42,-1
 619 848 l 1,43,-1
 661 848 l 1,44,-1
 661 428 l 1,45,-1
 816 428 l 1,46,-1
 816 284 l 1,47,-1
 661 284 l 1,48,-1
 661 254 l 2,49,50
 661 223 661 223 685.5 202.5 c 128,-1,51
 710 182 710 182 745 182 c 1,52,-1
 745 37 l 1,53,-1
 619 37 l 1,54,-1
 619 284 l 1,55,-1
 138 284 l 1,37,-1
EndSplineSet
EndChar

StartChar: five
Encoding: 53 53 24
Width: 880
GlyphClass: 2
Flags: W
LayerCount: 2
Fore
SplineSet
113 153 m 0,0,1
 113 170 113 170 118 196.5 c 128,-1,2
 123 223 123 223 134 264 c 1,3,-1
 134 262 l 1,4,-1
 162 393 l 1,5,-1
 286 393 l 1,6,-1
 247 231 l 2,7,8
 245 226 245 226 252.5 222.5 c 128,-1,9
 260 219 260 219 268 219 c 2,10,-1
 677 219 l 2,11,12
 685 219 685 219 690.5 222.5 c 128,-1,13
 696 226 696 226 696 233 c 0,14,15
 696 248 696 248 695 262.5 c 128,-1,16
 694 277 694 277 691 289 c 2,17,-1
 649 486 l 1,18,-1
 649 484 l 1,19,20
 644 507 644 507 634 507 c 2,21,-1
 209 507 l 1,22,-1
 324 1016 l 1,23,-1
 783 1016 l 1,24,-1
 783 898 l 1,25,-1
 423 898 l 1,26,-1
 358 625 l 1,27,-1
 662 625 l 2,28,29
 693 625 693 625 716.5 599.5 c 128,-1,30
 740 574 740 574 753 531 c 2,31,-1
 817 262 l 1,32,-1
 816 264 l 1,33,34
 840 183 840 183 840 146 c 0,35,36
 840 84 840 84 795 42 c 0,37,38
 754 0 754 0 691 0 c 2,39,-1
 268 0 l 2,40,41
 206 0 206 0 159 44 c 0,42,43
 113 87 113 87 113 153 c 0,0,1
131 153 m 0,44,45
 131 96 131 96 171 57 c 0,46,47
 211 19 211 19 268 19 c 2,48,-1
 691 19 l 2,49,50
 745 19 745 19 783 56 c 1,51,-1
 783 55 l 1,52,53
 822 92 822 92 822 146 c 0,54,55
 822 164 822 164 816 192 c 128,-1,56
 810 220 810 220 799 260 c 1,57,-1
 799 259 l 1,58,-1
 736 527 l 2,59,60
 725 563 725 563 706 584.5 c 128,-1,61
 687 606 687 606 662 606 c 2,62,-1
 333 606 l 1,63,64
 343 648 343 648 352.5 686.5 c 128,-1,65
 362 725 362 725 371.5 762.5 c 128,-1,66
 381 800 381 800 390 838 c 128,-1,67
 399 876 399 876 409 917 c 1,68,-1
 765 917 l 1,69,-1
 765 997 l 1,70,-1
 340 997 l 1,71,-1
 232 526 l 1,72,-1
 634 526 l 2,73,74
 645 526 645 526 653.5 515.5 c 128,-1,75
 662 505 662 505 667 489 c 1,76,-1
 666 489 l 1,77,-1
 708 293 l 2,78,79
 712 279 712 279 713 263.5 c 128,-1,80
 714 248 714 248 714 233 c 0,81,82
 714 219 714 219 702.5 209.5 c 128,-1,83
 691 200 691 200 677 200 c 2,84,-1
 268 200 l 2,85,86
 250 200 250 200 237.5 211 c 128,-1,87
 225 222 225 222 229 235 c 2,88,-1
 263 375 l 1,89,-1
 177 375 l 1,90,-1
 151 258 l 1,91,-1
 152 259 l 1,92,93
 131 178 131 178 131 153 c 0,44,45
149 153 m 0,94,95
 149 166 149 166 154 191 c 128,-1,96
 159 216 159 216 169 254 c 2,97,-1
 191 356 l 1,98,-1
 241 356 l 1,99,-1
 212 240 l 2,100,101
 206 218 206 218 224 200 c 128,-1,102
 242 182 242 182 268 182 c 2,103,-1
 677 182 l 2,104,105
 699 182 699 182 715.5 196 c 128,-1,106
 732 210 732 210 732 233 c 0,107,108
 732 250 732 250 731 267 c 128,-1,109
 730 284 730 284 726 298 c 2,110,-1
 684 493 l 2,111,112
 678 515 678 515 664 529.5 c 128,-1,113
 650 544 650 544 634 544 c 2,114,-1
 254 544 l 1,115,-1
 353 979 l 1,116,-1
 747 979 l 1,117,-1
 747 935 l 1,118,-1
 395 935 l 1,119,-1
 311 588 l 1,120,-1
 662 588 l 2,121,122
 680 588 680 588 695 570 c 128,-1,123
 710 552 710 552 719 522 c 2,124,-1
 782 254 l 2,125,126
 793 216 793 216 798.5 189 c 128,-1,127
 804 162 804 162 804 146 c 0,128,129
 804 100 804 100 771 68.5 c 128,-1,130
 738 37 738 37 691 37 c 2,131,-1
 268 37 l 2,132,133
 219 37 219 37 184 70.5 c 128,-1,134
 149 104 149 104 149 153 c 0,94,95
EndSplineSet
EndChar

StartChar: six
Encoding: 54 54 25
Width: 894
GlyphClass: 2
Flags: W
LayerCount: 2
Fore
SplineSet
177 233 m 0,0,1
 177 226 177 226 182 222.5 c 128,-1,2
 187 219 187 219 194 219 c 2,3,-1
 760 219 l 2,4,5
 771 219 771 219 778.5 222.5 c 128,-1,6
 786 226 786 226 786 233 c 0,7,8
 786 234 786 234 785 235 c 0,9,10
 783 237 783 237 783 241 c 2,11,-1
 783 240 l 1,12,-1
 780 252 l 1,13,-1
 730 477 l 2,14,15
 727 491 727 491 722 499 c 128,-1,16
 717 507 717 507 712 507 c 2,17,-1
 237 507 l 1,18,-1
 199 337 l 1,19,-1
 184 271 l 2,20,21
 180 255 180 255 178.5 245.5 c 128,-1,22
 177 236 177 236 177 233 c 0,0,1
54 153 m 0,23,24
 54 176 54 176 57.5 202 c 128,-1,25
 61 228 61 228 67 255 c 2,26,-1
 196 885 l 2,27,28
 210 943 210 943 238 979.5 c 128,-1,29
 266 1016 266 1016 295 1016 c 2,30,-1
 671 1016 l 2,31,32
 703 1016 703 1016 728 988.5 c 128,-1,33
 753 961 753 961 764 914 c 1,34,-1
 764 916 l 1,35,-1
 825 695 l 1,36,-1
 699 695 l 1,37,-1
 660 862 l 2,38,39
 655 896 655 896 656 898 c 2,40,-1
 308 898 l 2,41,42
 314 896 314 896 308 862 c 2,43,-1
 258 625 l 1,44,-1
 736 625 l 2,45,46
 753 625 753 625 770 615.5 c 128,-1,47
 787 606 787 606 802 588.5 c 128,-1,48
 817 571 817 571 829 547 c 128,-1,49
 841 523 841 523 848 494 c 2,50,-1
 892 276 l 1,51,-1
 892 277 l 1,52,53
 902 235 902 235 907.5 205 c 128,-1,54
 913 175 913 175 913 153 c 0,55,56
 913 120 913 120 902.5 92 c 128,-1,57
 892 64 892 64 873.5 43.5 c 128,-1,58
 855 23 855 23 830 11.5 c 128,-1,59
 805 0 805 0 775 0 c 2,60,-1
 167 0 l 2,61,62
 143 0 143 0 122 11.5 c 128,-1,63
 101 23 101 23 86 43.5 c 128,-1,64
 71 64 71 64 62.5 92 c 128,-1,65
 54 120 54 120 54 153 c 0,23,24
72 153 m 0,66,67
 72 124 72 124 79 99.5 c 128,-1,68
 86 75 86 75 99 57 c 128,-1,69
 112 39 112 39 129.5 29 c 128,-1,70
 147 19 147 19 167 19 c 2,71,-1
 775 19 l 2,72,73
 800 19 800 19 822 29 c 128,-1,74
 844 39 844 39 860.5 57 c 128,-1,75
 877 75 877 75 886 99.5 c 128,-1,76
 895 124 895 124 895 153 c 0,77,78
 895 171 895 171 889 201 c 128,-1,79
 883 231 883 231 874 273 c 1,80,-1
 875 273 l 1,81,-1
 830 489 l 2,82,83
 817 541 817 541 791 573.5 c 128,-1,84
 765 606 765 606 736 606 c 2,85,-1
 236 606 l 1,86,-1
 291 866 l 2,87,88
 295 889 295 889 300 903 c 128,-1,89
 305 917 305 917 308 917 c 2,90,-1
 657 917 l 2,91,92
 661 917 661 917 667 903 c 128,-1,93
 673 889 673 889 678 866 c 2,94,-1
 714 714 l 1,95,-1
 800 714 l 1,96,97
 794 735 794 735 787 760.5 c 128,-1,98
 780 786 780 786 773 812 c 128,-1,99
 766 838 766 838 759 863.5 c 128,-1,100
 752 889 752 889 746 910 c 1,101,-1
 746 909 l 1,102,103
 737 950 737 950 716 973.5 c 128,-1,104
 695 997 695 997 671 997 c 2,105,-1
 295 997 l 2,106,107
 272 997 272 997 249 964.5 c 128,-1,108
 226 932 226 932 213 881 c 2,109,-1
 84 251 l 2,110,111
 79 226 79 226 75.5 201 c 128,-1,112
 72 176 72 176 72 153 c 0,66,67
158 233 m 0,113,114
 158 242 158 242 166 274 c 0,115,116
 169 291 169 291 173.5 308 c 128,-1,117
 178 325 178 325 182 341 c 0,118,119
 192 384 192 384 202 433 c 128,-1,120
 212 482 212 482 222 526 c 1,121,-1
 712 526 l 2,122,123
 723 526 723 526 733 514 c 128,-1,124
 743 502 743 502 747 482 c 2,125,-1
 798 257 l 1,126,-1
 801 245 l 1,127,-1
 800 246 l 1,128,129
 801 239 801 239 803 236 c 0,130,131
 804 234 804 234 804 233 c 0,132,133
 804 219 804 219 790.5 209.5 c 128,-1,134
 777 200 777 200 760 200 c 2,135,-1
 194 200 l 2,136,137
 180 200 180 200 169 209.5 c 128,-1,138
 158 219 158 219 158 233 c 0,113,114
91 153 m 0,139,140
 91 174 91 174 94 198 c 128,-1,141
 97 222 97 222 102 248 c 2,142,-1
 231 877 l 2,143,144
 242 922 242 922 260 950.5 c 128,-1,145
 278 979 278 979 295 979 c 2,146,-1
 671 979 l 2,147,148
 689 979 689 979 705 959 c 128,-1,149
 721 939 721 939 728 906 c 2,150,-1
 777 732 l 1,151,-1
 728 732 l 1,152,-1
 696 870 l 2,153,154
 691 899 691 899 679 917 c 128,-1,155
 667 935 667 935 657 935 c 2,156,-1
 308 935 l 2,157,158
 299 935 299 935 288.5 917 c 128,-1,159
 278 899 278 899 273 870 c 2,160,-1
 213 588 l 1,161,-1
 736 588 l 2,162,163
 758 588 758 588 779.5 559.5 c 128,-1,164
 801 531 801 531 812 486 c 2,165,-1
 856 269 l 2,166,167
 865 229 865 229 870.5 200 c 128,-1,168
 876 171 876 171 876 153 c 0,169,170
 876 104 876 104 847 70.5 c 128,-1,171
 818 37 818 37 775 37 c 2,172,-1
 167 37 l 2,173,174
 134 37 134 37 112.5 70.5 c 128,-1,175
 91 104 91 104 91 153 c 0,139,140
140 233 m 0,176,177
 140 210 140 210 156 196 c 128,-1,178
 172 182 172 182 194 182 c 2,179,-1
 760 182 l 2,180,181
 785 182 785 182 803.5 196 c 128,-1,182
 822 210 822 210 822 233 c 0,183,184
 822 235 822 235 820 243.5 c 128,-1,185
 818 252 818 252 816 261 c 2,186,-1
 766 486 l 2,187,188
 760 512 760 512 745 528 c 128,-1,189
 730 544 730 544 712 544 c 2,190,-1
 208 544 l 1,191,-1
 164 345 l 2,192,193
 156 314 156 314 148 279 c 128,-1,194
 140 244 140 244 140 233 c 0,176,177
EndSplineSet
EndChar

StartChar: seven
Encoding: 55 55 26
Width: 877
GlyphClass: 2
Flags: W
LayerCount: 2
Fore
SplineSet
112 637 m 1,0,-1
 180 895 l 2,1,2
 196 949 196 949 240.5 982.5 c 128,-1,3
 285 1016 285 1016 341 1016 c 2,4,-1
 826 1016 l 1,5,-1
 826 825 l 1,6,-1
 448 0 l 1,7,-1
 320 0 l 1,8,-1
 684 796 l 1,9,-1
 299 796 l 2,10,11
 289 796 289 796 279 784 c 128,-1,12
 269 772 269 772 264 752 c 2,13,-1
 235 637 l 1,14,-1
 112 637 l 1,0,-1
221 655 m 1,15,-1
 246 756 l 2,16,17
 252 783 252 783 267 799 c 128,-1,18
 282 815 282 815 299 815 c 2,19,-1
 713 815 l 1,20,-1
 347 19 l 1,21,-1
 437 19 l 1,22,-1
 808 829 l 1,23,-1
 808 997 l 1,24,-1
 341 997 l 2,25,26
 317 997 317 997 294 989 c 128,-1,27
 271 981 271 981 252 967 c 128,-1,28
 233 953 233 953 219 933 c 128,-1,29
 205 913 205 913 198 889 c 2,30,-1
 136 655 l 1,31,-1
 221 655 l 1,15,-1
159 674 m 1,32,-1
 215 884 l 2,33,34
 227 926 227 926 262 952.5 c 128,-1,35
 297 979 297 979 341 979 c 2,36,-1
 790 979 l 1,37,-1
 790 833 l 1,38,-1
 426 37 l 1,39,-1
 376 37 l 1,40,-1
 741 833 l 1,41,-1
 299 833 l 2,42,43
 277 833 277 833 256.5 813.5 c 128,-1,44
 236 794 236 794 229 761 c 2,45,-1
 207 674 l 1,46,-1
 159 674 l 1,32,-1
EndSplineSet
EndChar

StartChar: eight
Encoding: 56 56 27
Width: 889
GlyphClass: 2
Flags: W
LayerCount: 2
Fore
SplineSet
301 602 m 0,0,1
 301 595 301 595 307 595 c 2,2,-1
 657 595 l 2,3,4
 661 595 661 595 661 602 c 0,5,6
 661 623 661 623 655 653 c 2,7,-1
 612 878 l 1,8,-1
 612 875 l 2,9,10
 610 885 610 885 608.5 891.5 c 128,-1,11
 607 898 607 898 608 898 c 2,12,-1
 368 898 l 2,13,14
 359 898 359 898 352 870 c 0,15,16
 343 822 343 822 333.5 774.5 c 128,-1,17
 324 727 324 727 315 679 c 2,18,-1
 306 631 l 2,19,20
 301 606 301 606 301 602 c 0,0,1
198 240 m 0,21,22
 198 231 198 231 202.5 225 c 128,-1,23
 207 219 207 219 214 219 c 2,24,-1
 749 219 l 2,25,26
 764 219 764 219 764 225 c 0,27,28
 764 234 764 234 761 252.5 c 128,-1,29
 758 271 758 271 751 305 c 2,30,-1
 726 451 l 1,31,-1
 726 449 l 2,32,33
 723 461 723 461 715.5 469.5 c 128,-1,34
 708 478 708 478 698 478 c 2,35,-1
 265 478 l 2,36,37
 257 478 257 478 249 464 c 128,-1,38
 241 450 241 450 236 428 c 2,39,-1
 211 309 l 1,40,-1
 212 311 l 2,41,42
 211 305 211 305 208.5 294 c 128,-1,43
 206 283 206 283 202 268 c 1,44,-1
 202 270 l 2,45,46
 200 258 200 258 199 251 c 128,-1,47
 198 244 198 244 198 240 c 0,21,22
66 124 m 0,48,49
 66 155 66 155 69.5 184.5 c 128,-1,50
 73 214 73 214 79 241 c 1,51,-1
 79 240 l 1,52,-1
 124 461 l 2,53,54
 132 497 132 497 147.5 526 c 128,-1,55
 163 555 163 555 186 573 c 1,56,57
 180 594 180 594 180 616 c 0,58,59
 180 622 180 622 180 626 c 128,-1,60
 180 630 180 630 182 638 c 0,61,62
 183 643 183 643 184.5 648.5 c 128,-1,63
 186 654 186 654 187 659 c 2,64,-1
 234 885 l 2,65,66
 249 943 249 943 277 979.5 c 128,-1,67
 305 1016 305 1016 334 1016 c 2,68,-1
 628 1016 l 2,69,70
 660 1016 660 1016 687.5 983.5 c 128,-1,71
 715 951 715 951 728 899 c 2,72,-1
 774 653 l 2,73,74
 782 619 782 619 782 602 c 0,75,76
 782 596 782 596 782 590 c 128,-1,77
 782 584 782 584 781 579 c 1,78,79
 804 565 804 565 819.5 539 c 128,-1,80
 835 513 835 513 845 476 c 2,81,-1
 881 255 l 1,82,-1
 889 210 l 1,83,-1
 888 211 l 1,84,85
 893 190 893 190 894.5 175.5 c 128,-1,86
 896 161 896 161 896 153 c 0,87,88
 896 120 896 120 886.5 92 c 128,-1,89
 877 64 877 64 860 43.5 c 128,-1,90
 843 23 843 23 820.5 11.5 c 128,-1,91
 798 0 798 0 771 0 c 2,92,-1
 192 0 l 2,93,94
 165 0 165 0 142 10 c 128,-1,95
 119 20 119 20 102 36.5 c 128,-1,96
 85 53 85 53 75.5 75.5 c 128,-1,97
 66 98 66 98 66 124 c 0,48,49
84 124 m 0,98,99
 84 102 84 102 92.5 83 c 128,-1,100
 101 64 101 64 115.5 49.5 c 128,-1,101
 130 35 130 35 149.5 27 c 128,-1,102
 169 19 169 19 192 19 c 2,103,-1
 771 19 l 2,104,105
 793 19 793 19 812.5 29 c 128,-1,106
 832 39 832 39 846.5 57 c 128,-1,107
 861 75 861 75 869 99.5 c 128,-1,108
 877 124 877 124 877 153 c 0,109,110
 877 162 877 162 876 176 c 128,-1,111
 875 190 875 190 871 209 c 2,112,-1
 864 251 l 1,113,-1
 829 461 l 2,114,115
 819 500 819 500 801 528 c 128,-1,116
 783 556 783 556 760 569 c 1,117,118
 762 577 762 577 762.5 584.5 c 128,-1,119
 763 592 763 592 763 602 c 0,120,121
 763 622 763 622 757 649 c 2,122,-1
 710 895 l 2,123,124
 699 940 699 940 676.5 968.5 c 128,-1,125
 654 997 654 997 628 997 c 2,126,-1
 334 997 l 2,127,128
 311 997 311 997 287.5 964.5 c 128,-1,129
 264 932 264 932 252 881 c 2,130,-1
 205 655 l 2,131,132
 204 650 204 650 203 645.5 c 128,-1,133
 202 641 202 641 201 636 c 0,134,135
 198 625 198 625 198 616 c 0,136,137
 198 589 198 589 208 566 c 1,138,139
 184 552 184 552 166.5 523.5 c 128,-1,140
 149 495 149 495 141 457 c 2,141,-1
 97 236 l 2,142,143
 91 211 91 211 87.5 182.5 c 128,-1,144
 84 154 84 154 84 124 c 0,98,99
180 240 m 0,145,146
 180 243 180 243 181.5 251 c 128,-1,147
 183 259 183 259 185 273 c 1,148,-1
 184 273 l 1,149,150
 189 288 189 288 190.5 297.5 c 128,-1,151
 192 307 192 307 193 312 c 2,152,-1
 219 432 l 2,153,154
 224 460 224 460 237 478.5 c 128,-1,155
 250 497 250 497 265 497 c 2,156,-1
 698 497 l 2,157,158
 715 497 715 497 727 484.5 c 128,-1,159
 739 472 739 472 743 453 c 1,160,-1
 743 454 l 1,161,-1
 768 309 l 2,162,163
 776 272 776 272 779.5 252.5 c 128,-1,164
 783 233 783 233 783 225 c 0,165,166
 783 215 783 215 773 207.5 c 128,-1,167
 763 200 763 200 749 200 c 2,168,-1
 214 200 l 2,169,170
 200 200 200 200 190 211.5 c 128,-1,171
 180 223 180 223 180 240 c 0,145,146
283 602 m 0,172,173
 283 604 283 604 284.5 612.5 c 128,-1,174
 286 621 286 621 288 635 c 2,175,-1
 297 683 l 2,176,177
 305 728 305 728 316 778 c 128,-1,178
 327 828 327 828 335 873 c 0,179,180
 339 891 339 891 348 904 c 128,-1,181
 357 917 357 917 368 917 c 2,182,-1
 608 917 l 2,183,184
 615 917 615 917 620.5 906.5 c 128,-1,185
 626 896 626 896 630 880 c 1,186,-1
 629 881 l 1,187,-1
 672 656 l 2,188,189
 680 621 680 621 680 602 c 0,190,191
 680 592 680 592 673 584.5 c 128,-1,192
 666 577 666 577 657 577 c 2,193,-1
 307 577 l 2,194,195
 296 577 296 577 289.5 584.5 c 128,-1,196
 283 592 283 592 283 602 c 0,172,173
102 124 m 0,197,198
 102 153 102 153 105.5 180.5 c 128,-1,199
 109 208 109 208 115 233 c 2,200,-1
 160 453 l 2,201,202
 169 495 169 495 190 524 c 128,-1,203
 211 553 211 553 238 558 c 1,204,205
 227 567 227 567 221.5 582.5 c 128,-1,206
 216 598 216 598 216 616 c 0,207,208
 216 620 216 620 218 628 c 128,-1,209
 220 636 220 636 223 653 c 2,210,-1
 270 877 l 2,211,212
 281 922 281 922 298.5 950.5 c 128,-1,213
 316 979 316 979 334 979 c 2,214,-1
 628 979 l 2,215,216
 648 979 648 979 665.5 954.5 c 128,-1,217
 683 930 683 930 692 892 c 2,218,-1
 739 645 l 2,219,220
 742 631 742 631 743.5 620 c 128,-1,221
 745 609 745 609 745 602 c 0,222,223
 745 588 745 588 742 576 c 128,-1,224
 739 564 739 564 731 558 c 1,225,226
 756 558 756 558 777.5 531 c 128,-1,227
 799 504 799 504 810 463 c 1,228,-1
 846 249 l 2,229,230
 847 242 847 242 853 205 c 128,-1,231
 859 168 859 168 859 153 c 0,232,233
 859 104 859 104 833.5 70.5 c 128,-1,234
 808 37 808 37 771 37 c 2,235,-1
 192 37 l 2,236,237
 154 37 154 37 128 62.5 c 128,-1,238
 102 88 102 88 102 124 c 0,197,198
161 240 m 0,239,240
 161 216 161 216 177 199 c 128,-1,241
 193 182 193 182 214 182 c 2,242,-1
 749 182 l 2,243,244
 771 182 771 182 786 195 c 128,-1,245
 801 208 801 208 801 225 c 0,246,247
 801 236 801 236 797.5 256 c 128,-1,248
 794 276 794 276 786 312 c 2,249,-1
 762 457 l 2,250,251
 756 482 756 482 738.5 498.5 c 128,-1,252
 721 515 721 515 698 515 c 2,253,-1
 265 515 l 2,254,255
 244 515 244 515 225.5 492.5 c 128,-1,256
 207 470 207 470 201 436 c 2,257,-1
 175 316 l 2,258,259
 173 305 173 305 167 277 c 128,-1,260
 161 249 161 249 161 240 c 0,239,240
265 602 m 0,261,262
 265 584 265 584 277 571 c 128,-1,263
 289 558 289 558 307 558 c 2,264,-1
 657 558 l 2,265,266
 674 558 674 558 686 571 c 128,-1,267
 698 584 698 584 698 602 c 0,268,269
 698 615 698 615 696 629 c 128,-1,270
 694 643 694 643 690 660 c 2,271,-1
 648 884 l 2,272,273
 642 906 642 906 631.5 920.5 c 128,-1,274
 621 935 621 935 608 935 c 2,275,-1
 368 935 l 2,276,277
 350 935 350 935 335.5 919 c 128,-1,278
 321 903 321 903 316 877 c 2,279,-1
 279 687 l 2,280,281
 275 667 275 667 270 639 c 128,-1,282
 265 611 265 611 265 602 c 0,261,262
EndSplineSet
EndChar

StartChar: nine
Encoding: 57 57 28
Width: 885
GlyphClass: 2
Flags: W
LayerCount: 2
Fore
SplineSet
268 565 m 0,0,1
 268 560 268 560 274 556 c 128,-1,2
 280 552 280 552 288 552 c 2,3,-1
 682 552 l 1,4,5
 665 633 665 633 647.5 711 c 128,-1,6
 630 789 630 789 613 870 c 0,7,8
 610 881 610 881 608 889.5 c 128,-1,9
 606 898 606 898 604 898 c 2,10,-1
 327 898 l 2,11,12
 328 898 328 898 327 892 c 128,-1,13
 326 886 326 886 323 877 c 2,14,-1
 323 880 l 1,15,-1
 274 616 l 2,16,17
 272 598 272 598 270 585.5 c 128,-1,18
 268 573 268 573 268 565 c 0,0,1
84 153 m 0,19,20
 84 208 84 208 98 272 c 1,21,-1
 98 271 l 1,22,-1
 124 393 l 1,23,-1
 235 393 l 1,24,-1
 211 236 l 2,25,26
 213 230 213 230 218.5 224.5 c 128,-1,27
 224 219 224 219 232 219 c 2,28,-1
 736 219 l 2,29,30
 737 219 737 219 738 225 c 128,-1,31
 739 231 739 231 739 240 c 0,32,33
 739 256 739 256 737 275.5 c 128,-1,34
 735 295 735 295 730 318 c 2,35,-1
 703 435 l 1,36,-1
 247 435 l 2,37,38
 226 435 226 435 208 444.5 c 128,-1,39
 190 454 190 454 176.5 469.5 c 128,-1,40
 163 485 163 485 155 506.5 c 128,-1,41
 147 528 147 528 147 552 c 0,42,43
 147 580 147 580 163 641 c 1,44,-1
 163 638 l 1,45,-1
 213 931 l 1,46,47
 224 968 224 968 247 992 c 128,-1,48
 270 1016 270 1016 299 1016 c 2,49,-1
 645 1016 l 2,50,51
 671 1016 671 1016 694.5 981.5 c 128,-1,52
 718 947 718 947 732 893 c 2,53,-1
 859 269 l 1,54,-1
 859 271 l 1,55,56
 867 241 867 241 871 211 c 128,-1,57
 875 181 875 181 875 153 c 0,58,59
 875 88 875 88 834 44 c 1,60,-1
 834 45 l 1,61,62
 792 0 792 0 736 0 c 2,63,-1
 222 0 l 2,64,65
 164 0 164 0 124 45 c 0,66,67
 84 89 84 89 84 153 c 0,19,20
102 153 m 0,68,69
 102 97 102 97 136 57 c 0,70,71
 172 19 172 19 222 19 c 2,72,-1
 736 19 l 2,73,74
 785 19 785 19 821 57 c 1,75,-1
 820 57 l 1,76,77
 856 96 856 96 856 153 c 0,78,79
 856 179 856 179 852.5 207.5 c 128,-1,80
 849 236 849 236 841 266 c 1,81,-1
 842 265 l 1,82,-1
 714 888 l 2,83,84
 701 936 701 936 682.5 966.5 c 128,-1,85
 664 997 664 997 645 997 c 2,86,-1
 299 997 l 2,87,88
 276 997 276 997 257.5 975.5 c 128,-1,89
 239 954 239 954 229 922 c 1,90,-1
 180 634 l 1,91,-1
 181 636 l 1,92,93
 165 575 165 575 165 552 c 0,94,95
 165 532 165 532 171.5 514 c 128,-1,96
 178 496 178 496 189 482.5 c 128,-1,97
 200 469 200 469 215 461 c 128,-1,98
 230 453 230 453 247 453 c 2,99,-1
 717 453 l 1,100,101
 725 417 725 417 732.5 388 c 128,-1,102
 740 359 740 359 748 323 c 1,103,-1
 747 323 l 1,104,105
 753 297 753 297 755 276.5 c 128,-1,106
 757 256 757 256 757 240 c 0,107,108
 757 223 757 223 751 211.5 c 128,-1,109
 745 200 745 200 736 200 c 2,110,-1
 232 200 l 2,111,112
 216 200 216 200 205 212.5 c 128,-1,113
 194 225 194 225 193 240 c 2,114,-1
 214 375 l 1,115,-1
 138 375 l 1,116,-1
 115 267 l 2,117,118
 109 238 109 238 105.5 209 c 128,-1,119
 102 180 102 180 102 153 c 0,68,69
250 565 m 0,120,121
 250 581 250 581 257 619 c 1,122,-1
 257 618 l 1,123,-1
 306 883 l 1,124,-1
 305 882 l 1,125,126
 310 897 310 897 316 907 c 128,-1,127
 322 917 322 917 327 917 c 2,128,-1
 604 917 l 2,129,130
 612 917 612 917 619 904 c 128,-1,131
 626 891 626 891 630 873 c 0,132,133
 648 787 648 787 666.5 703.5 c 128,-1,134
 685 620 685 620 704 534 c 1,135,-1
 288 534 l 2,136,137
 273 534 273 534 261.5 542.5 c 128,-1,138
 250 551 250 551 250 565 c 0,120,121
120 153 m 0,139,140
 120 178 120 178 123.5 206.5 c 128,-1,141
 127 235 127 235 133 263 c 2,142,-1
 153 356 l 1,143,-1
 193 356 l 1,144,-1
 174 240 l 2,145,146
 174 216 174 216 191 199 c 128,-1,147
 208 182 208 182 232 182 c 2,148,-1
 736 182 l 2,149,150
 753 182 753 182 764.5 199 c 128,-1,151
 776 216 776 216 776 240 c 0,152,153
 776 258 776 258 773.5 279.5 c 128,-1,154
 771 301 771 301 766 326 c 2,155,-1
 732 472 l 1,156,-1
 247 472 l 2,157,158
 221 472 221 472 202 495.5 c 128,-1,159
 183 519 183 519 183 552 c 0,160,161
 183 562 183 562 187 582 c 128,-1,162
 191 602 191 602 198 631 c 2,163,-1
 247 921 l 2,164,165
 254 946 254 946 268 962.5 c 128,-1,166
 282 979 282 979 299 979 c 2,167,-1
 645 979 l 2,168,169
 658 979 658 979 672 952.5 c 128,-1,170
 686 926 686 926 697 884 c 2,171,-1
 824 261 l 2,172,173
 831 233 831 233 834.5 205.5 c 128,-1,174
 838 178 838 178 838 153 c 0,175,176
 838 104 838 104 807.5 70.5 c 128,-1,177
 777 37 777 37 736 37 c 2,178,-1
 222 37 l 2,179,180
 180 37 180 37 150 70.5 c 128,-1,181
 120 104 120 104 120 153 c 0,139,140
232 565 m 0,182,183
 232 544 232 544 248.5 529.5 c 128,-1,184
 265 515 265 515 288 515 c 2,185,-1
 727 515 l 1,186,-1
 648 877 l 2,187,188
 643 903 643 903 630.5 919 c 128,-1,189
 618 935 618 935 604 935 c 2,190,-1
 327 935 l 2,191,192
 315 935 315 935 304 921.5 c 128,-1,193
 293 908 293 908 288 886 c 2,194,-1
 239 622 l 2,195,196
 235 602 235 602 233.5 587.5 c 128,-1,197
 232 573 232 573 232 565 c 0,182,183
EndSplineSet
EndChar

StartChar: colon
Encoding: 58 58 29
Width: 277
GlyphClass: 2
Flags: W
LayerCount: 2
Fore
SplineSet
80 430 m 1,0,-1
 80 641 l 1,1,-1
 252 641 l 1,2,-1
 252 430 l 1,3,-1
 80 430 l 1,0,-1
80 0 m 1,4,-1
 80 224 l 1,5,-1
 252 224 l 1,6,-1
 252 0 l 1,7,-1
 80 0 l 1,4,-1
238 18 m 1,8,-1
 238 206 l 1,9,-1
 94 206 l 1,10,-1
 94 18 l 1,11,-1
 238 18 l 1,8,-1
238 448 m 1,12,-1
 238 623 l 1,13,-1
 94 623 l 1,14,-1
 94 448 l 1,15,-1
 238 448 l 1,12,-1
107 36 m 1,16,-1
 107 188 l 1,17,-1
 225 188 l 1,18,-1
 225 36 l 1,19,-1
 107 36 l 1,16,-1
107 466 m 1,20,-1
 107 605 l 1,21,-1
 225 605 l 1,22,-1
 225 466 l 1,23,-1
 107 466 l 1,20,-1
EndSplineSet
EndChar

StartChar: semicolon
Encoding: 59 59 30
Width: 357
GlyphClass: 2
Flags: W
LayerCount: 2
Fore
SplineSet
160 442 m 1,0,-1
 160 659 l 1,1,-1
 332 659 l 1,2,-1
 332 442 l 1,3,-1
 160 442 l 1,0,-1
160 230 m 1,4,-1
 332 230 l 1,5,-1
 332 -49 l 2,6,7
 332 -77 332 -77 324 -102 c 128,-1,8
 316 -127 316 -127 302 -145.5 c 128,-1,9
 288 -164 288 -164 269.5 -174.5 c 128,-1,10
 251 -185 251 -185 230 -185 c 2,11,-1
 160 -185 l 1,12,-1
 160 230 l 1,4,-1
259 18 m 1,13,-1
 259 8 l 2,14,15
 259 -3 259 -3 250 -9.5 c 128,-1,16
 241 -16 241 -16 230 -16 c 2,17,-1
 173 -16 l 1,18,-1
 173 -167 l 1,19,-1
 230 -167 l 2,20,21
 248 -167 248 -167 264 -157.5 c 128,-1,22
 280 -148 280 -148 292 -132 c 128,-1,23
 304 -116 304 -116 311 -94.5 c 128,-1,24
 318 -73 318 -73 318 -49 c 2,25,-1
 318 212 l 1,26,-1
 173 212 l 1,27,-1
 173 18 l 1,28,-1
 259 18 l 1,13,-1
318 460 m 1,29,-1
 318 640 l 1,30,-1
 173 640 l 1,31,-1
 173 460 l 1,32,-1
 318 460 l 1,29,-1
187 37 m 1,33,-1
 187 194 l 1,34,-1
 304 194 l 1,35,-1
 304 -49 l 2,36,37
 304 -90 304 -90 282.5 -119.5 c 128,-1,38
 261 -149 261 -149 230 -149 c 2,39,-1
 187 -149 l 1,40,-1
 187 -35 l 1,41,-1
 230 -35 l 2,42,43
 247 -35 247 -35 259.5 -22.5 c 128,-1,44
 272 -10 272 -10 272 8 c 2,45,-1
 272 37 l 1,46,-1
 187 37 l 1,33,-1
187 479 m 1,47,-1
 187 622 l 1,48,-1
 304 622 l 1,49,-1
 304 479 l 1,50,-1
 187 479 l 1,47,-1
EndSplineSet
EndChar

StartChar: less
Encoding: 60 60 31
Width: 911
GlyphClass: 2
Flags: W
LayerCount: 2
Fore
SplineSet
658 911 m 1,0,-1
 769 795 l 1,1,-1
 496 504 l 1,2,-1
 768 218 l 1,3,-1
 658 102 l 1,4,-1
 278 504 l 1,5,-1
 658 911 l 1,0,-1
302 504 m 1,6,-1
 658 127 l 1,7,-1
 744 218 l 1,8,-1
 473 504 l 1,9,-1
 745 795 l 1,10,-1
 658 885 l 1,11,-1
 302 504 l 1,6,-1
658 860 m 1,12,-1
 722 795 l 1,13,-1
 449 504 l 1,14,-1
 720 218 l 1,15,-1
 658 152 l 1,16,-1
 326 504 l 1,17,-1
 658 860 l 1,12,-1
EndSplineSet
EndChar

StartChar: equal
Encoding: 61 61 32
Width: 841
GlyphClass: 2
Flags: W
LayerCount: 2
Fore
SplineSet
105 437 m 1,0,-1
 808 437 l 1,1,-1
 808 323 l 1,2,-1
 105 323 l 1,3,-1
 105 437 l 1,0,-1
105 124 m 1,4,-1
 105 238 l 1,5,-1
 808 238 l 1,6,-1
 808 124 l 1,7,-1
 105 124 l 1,4,-1
790 140 m 1,8,-1
 790 222 l 1,9,-1
 123 222 l 1,10,-1
 123 140 l 1,11,-1
 790 140 l 1,8,-1
123 339 m 1,12,-1
 790 339 l 1,13,-1
 790 421 l 1,14,-1
 123 421 l 1,15,-1
 123 339 l 1,12,-1
141 405 m 1,16,-1
 772 405 l 1,17,-1
 772 355 l 1,18,-1
 141 355 l 1,19,-1
 141 405 l 1,16,-1
141 156 m 1,20,-1
 141 206 l 1,21,-1
 772 206 l 1,22,-1
 772 156 l 1,23,-1
 141 156 l 1,20,-1
EndSplineSet
EndChar

StartChar: greater
Encoding: 62 62 33
Width: 911
GlyphClass: 2
Flags: W
LayerCount: 2
Fore
SplineSet
821 504 m 1,0,-1
 440 102 l 1,1,-1
 331 218 l 1,2,-1
 602 504 l 1,3,-1
 329 795 l 1,4,-1
 440 911 l 1,5,-1
 821 504 l 1,0,-1
440 885 m 1,6,-1
 353 795 l 1,7,-1
 626 504 l 1,8,-1
 355 218 l 1,9,-1
 440 127 l 1,10,-1
 797 504 l 1,11,-1
 440 885 l 1,6,-1
773 504 m 1,12,-1
 440 152 l 1,13,-1
 379 218 l 1,14,-1
 650 504 l 1,15,-1
 377 795 l 1,16,-1
 440 860 l 1,17,-1
 773 504 l 1,12,-1
EndSplineSet
EndChar

StartChar: question
Encoding: 63 63 34
Width: 922
GlyphClass: 2
Flags: W
LayerCount: 2
Fore
SplineSet
301 0 m 1,0,-1
 301 236 l 1,1,-1
 526 236 l 1,2,-1
 526 0 l 1,3,-1
 301 0 l 1,0,-1
200 847 m 1,4,-1
 245 1055 l 2,5,6
 257 1101 257 1101 285.5 1128.5 c 128,-1,7
 314 1156 314 1156 351 1156 c 2,8,-1
 700 1156 l 2,9,10
 731 1156 731 1156 759 1115.5 c 128,-1,11
 787 1075 787 1075 804 1011 c 2,12,-1
 868 740 l 1,13,-1
 868 742 l 1,14,15
 879 700 879 700 884 671 c 128,-1,16
 889 642 889 642 889 622 c 0,17,18
 889 561 889 561 839 520 c 0,19,20
 793 483 793 483 727 483 c 2,21,-1
 490 483 l 2,22,23
 482 483 482 483 476 481 c 128,-1,24
 470 479 470 479 470 476 c 2,25,-1
 470 278 l 1,26,-1
 356 278 l 1,27,-1
 356 563 l 2,28,29
 356 621 356 621 401 663 c 0,30,31
 446 703 446 703 504 703 c 2,32,-1
 727 703 l 2,33,34
 736 703 736 703 742 709.5 c 128,-1,35
 748 716 748 716 748 724 c 0,36,37
 748 776 748 776 734 814 c 1,38,-1
 686 1007 l 1,39,-1
 687 1006 l 1,40,41
 682 1023 682 1023 672 1023 c 2,42,-1
 364 1023 l 2,43,44
 359 1023 359 1023 356 1013 c 2,45,-1
 323 847 l 1,46,-1
 200 847 l 1,4,-1
310 866 m 1,47,-1
 340 1019 l 2,48,49
 347 1042 347 1042 364 1042 c 2,50,-1
 672 1042 l 2,51,52
 682 1042 682 1042 691 1033.5 c 128,-1,53
 700 1025 700 1025 704 1012 c 2,54,-1
 754 808 l 1,55,56
 766 776 766 776 766 724 c 0,57,58
 766 708 766 708 755 696.5 c 128,-1,59
 744 685 744 685 727 685 c 2,60,-1
 504 685 l 2,61,62
 451 685 451 685 412 649 c 0,63,64
 374 613 374 613 374 563 c 2,65,-1
 374 296 l 1,66,-1
 452 296 l 1,67,-1
 452 476 l 2,68,69
 452 486 452 486 463 493.5 c 128,-1,70
 474 501 474 501 490 501 c 2,71,-1
 727 501 l 2,72,73
 786 501 786 501 828 535 c 0,74,75
 871 570 871 570 871 622 c 0,76,77
 871 639 871 639 865.5 668.5 c 128,-1,78
 860 698 860 698 850 736 c 2,79,-1
 786 1006 l 2,80,81
 772 1064 772 1064 748 1100.5 c 128,-1,82
 724 1137 724 1137 700 1137 c 2,83,-1
 351 1137 l 2,84,85
 321 1137 321 1137 297.5 1113.5 c 128,-1,86
 274 1090 274 1090 263 1049 c 2,87,-1
 224 866 l 1,88,-1
 310 866 l 1,47,-1
508 19 m 1,89,-1
 508 217 l 1,90,-1
 319 217 l 1,91,-1
 319 19 l 1,92,-1
 508 19 l 1,89,-1
245 885 m 1,93,-1
 280 1046 l 2,94,95
 289 1078 289 1078 308 1098.5 c 128,-1,96
 327 1119 327 1119 351 1119 c 2,97,-1
 700 1119 l 2,98,99
 718 1119 718 1119 737 1086 c 128,-1,100
 756 1053 756 1053 769 1002 c 2,101,-1
 833 731 l 2,102,103
 843 693 843 693 848.5 666 c 128,-1,104
 854 639 854 639 854 622 c 0,105,106
 854 580 854 580 817 550 c 128,-1,107
 780 520 780 520 727 520 c 2,108,-1
 490 520 l 2,109,110
 467 520 467 520 450.5 507 c 128,-1,111
 434 494 434 494 434 476 c 2,112,-1
 434 315 l 1,113,-1
 392 315 l 1,114,-1
 392 563 l 2,115,116
 392 605 392 605 424.5 635.5 c 128,-1,117
 457 666 457 666 504 666 c 2,118,-1
 727 666 l 2,119,120
 751 666 751 666 767.5 683.5 c 128,-1,121
 784 701 784 701 784 724 c 0,122,123
 784 752 784 752 780.5 775.5 c 128,-1,124
 777 799 777 799 769 819 c 2,125,-1
 721 1017 l 2,126,127
 716 1036 716 1036 702.5 1048.5 c 128,-1,128
 689 1061 689 1061 672 1061 c 2,129,-1
 364 1061 l 2,130,131
 351 1061 351 1061 339 1050.5 c 128,-1,132
 327 1040 327 1040 322 1024 c 2,133,-1
 294 885 l 1,134,-1
 245 885 l 1,93,-1
336 37 m 1,135,-1
 336 198 l 1,136,-1
 490 198 l 1,137,-1
 490 37 l 1,138,-1
 336 37 l 1,135,-1
EndSplineSet
EndChar

StartChar: at
Encoding: 64 64 35
Width: 1672
GlyphClass: 2
Flags: W
LayerCount: 2
Fore
SplineSet
1116 191 m 2,0,1
 1116 192 1116 192 1115.5 192.5 c 128,-1,2
 1115 193 1115 193 1115 194 c 2,3,-1
 1115 193 l 2,4,5
 1116 191 1116 191 1116 191 c 2,0,1
642 322 m 2,6,7
 642 314 642 314 641 304.5 c 128,-1,8
 640 295 640 295 640 287 c 0,9,10
 638 264 638 264 644 245.5 c 128,-1,11
 650 227 650 227 661 212 c 0,12,13
 683 184 683 184 722 184 c 0,14,15
 820 184 820 184 891 272 c 1,16,17
 914 290 914 290 937 319 c 128,-1,18
 960 348 960 348 981 388 c 0,19,20
 1025 467 1025 467 1034 527 c 2,21,-1
 1039 555 l 2,22,23
 1039 564 1039 564 1040 571.5 c 128,-1,24
 1041 579 1041 579 1041 588 c 0,25,26
 1044 632 1044 632 1016 665 c 0,27,28
 989 695 989 695 946 695 c 0,29,30
 819 695 819 695 698 484 c 0,31,32
 657 411 657 411 648 355 c 2,33,-1
 642 322 l 2,6,7
989 0 m 2,34,35
 926 9 926 9 891 79 c 1,36,37
 836 39 836 39 782 18.5 c 128,-1,38
 728 -2 728 -2 673 -2 c 0,39,40
 486 -2 486 -2 440 184 c 0,41,42
 427 232 427 232 427 287 c 2,43,-1
 427 338 l 1,44,-1
 436 376 l 2,45,46
 452 442 452 442 481 505.5 c 128,-1,47
 510 569 510 569 553 630 c 0,48,49
 641 757 641 757 753 817 c 0,50,51
 868 879 868 879 959 879 c 0,52,53
 1021 879 1021 879 1067.5 858 c 128,-1,54
 1114 837 1114 837 1149 790 c 1,55,-1
 1179 858 l 1,56,-1
 1395 858 l 1,57,-1
 1115 200 l 1,58,-1
 1115 197 l 1,59,-1
 1117 197 l 1,60,-1
 1123 197 l 2,61,62
 1157 200 1157 200 1213 235 c 0,63,64
 1299 291 1299 291 1370 386 c 0,65,66
 1439 481 1439 481 1456 576 c 1,67,-1
 1455 575 l 1,68,69
 1457 586 1457 586 1459 595.5 c 128,-1,70
 1461 605 1461 605 1463 615 c 0,71,72
 1463 626 1463 626 1464 638 c 128,-1,73
 1465 650 1465 650 1465 661 c 0,74,75
 1466 691 1466 691 1460 722.5 c 128,-1,76
 1454 754 1454 754 1444 787 c 0,77,78
 1426 836 1426 836 1387.5 877 c 128,-1,79
 1349 918 1349 918 1292 946 c 0,80,81
 1186 999 1186 999 1062 999 c 0,82,83
 799 999 799 999 601 827 c 0,84,85
 503 742 503 742 439 631.5 c 128,-1,86
 375 521 375 521 345 390 c 0,87,88
 337 354 337 354 333 318.5 c 128,-1,89
 329 283 329 283 329 251 c 0,90,91
 329 14 329 14 521 -74 c 0,92,93
 651 -133 651 -133 824 -133 c 0,94,95
 1165 -133 1165 -133 1377 89 c 1,96,-1
 1597 89 l 1,97,98
 1516 -39 1516 -39 1398.5 -128.5 c 128,-1,99
 1281 -218 1281 -218 1131 -270 c 0,100,101
 1059 -293 1059 -293 976 -306 c 128,-1,102
 893 -319 893 -319 802 -319 c 0,103,104
 446 -319 446 -319 275 -142 c 0,105,106
 139 -3 139 -3 139 224 c 0,107,108
 139 490 139 490 311 752 c 1,109,-1
 310 752 l 1,110,111
 439 953 439 953 648 1069 c 0,112,113
 853 1183 853 1183 1092 1183 c 0,114,115
 1513 1183 1513 1183 1626 859 c 0,116,117
 1641 817 1641 817 1647.5 774.5 c 128,-1,118
 1654 732 1654 732 1653 689 c 0,119,120
 1653 675 1653 675 1652 659 c 128,-1,121
 1651 643 1651 643 1651 629 c 2,122,-1
 1639 559 l 2,123,124
 1618 453 1618 453 1556.5 351 c 128,-1,125
 1495 249 1495 249 1395 158 c 0,126,127
 1218 -4 1218 -4 1043 -4 c 2,128,-1
 1018 -4 l 1,129,-1
 989 0 l 2,34,35
906 90 m 1,130,131
 935 27 935 27 991 19 c 2,132,-1
 1020 15 l 1,133,-1
 1043 15 l 2,134,135
 1207 15 1207 15 1382 172 c 0,136,137
 1584 353 1584 353 1620 563 c 1,138,-1
 1620 562 l 1,139,-1
 1632 627 l 2,140,141
 1632 641 1632 641 1633 658 c 128,-1,142
 1634 675 1634 675 1634 689 c 0,143,144
 1636 774 1636 774 1608 854 c 0,145,146
 1500 1164 1500 1164 1092 1164 c 0,147,148
 975 1164 975 1164 866 1136.5 c 128,-1,149
 757 1109 757 1109 656 1052 c 0,150,151
 558 997 558 997 473.5 917.5 c 128,-1,152
 389 838 389 838 326 742 c 0,153,154
 244 614 244 614 201 484.5 c 128,-1,155
 158 355 158 355 158 224 c 0,156,157
 158 6 158 6 289 -129 c 0,158,159
 455 -300 455 -300 802 -300 c 0,160,161
 891 -300 891 -300 973 -287.5 c 128,-1,162
 1055 -275 1055 -275 1125 -252 c 0,163,164
 1272 -201 1272 -201 1382.5 -120 c 128,-1,165
 1493 -39 1493 -39 1563 70 c 1,166,-1
 1387 70 l 1,167,168
 1174 -152 1174 -152 824 -152 c 0,169,170
 735 -152 735 -152 657 -137 c 128,-1,171
 579 -122 579 -122 513 -91 c 0,172,173
 310 3 310 3 310 251 c 0,174,175
 310 282 310 282 314.5 319.5 c 128,-1,176
 319 357 319 357 327 395 c 0,177,178
 357 527 357 527 424 640.5 c 128,-1,179
 491 754 491 754 589 841 c 0,180,181
 689 926 689 926 809 972 c 128,-1,182
 929 1018 929 1018 1062 1018 c 0,183,184
 1193 1018 1193 1018 1300 963 c 0,185,186
 1424 902 1424 902 1462 793 c 1,187,-1
 1462 794 l 1,188,189
 1473 759 1473 759 1479 726 c 128,-1,190
 1485 693 1485 693 1484 661 c 0,191,192
 1484 651 1484 651 1483 637 c 128,-1,193
 1482 623 1482 623 1482 612 c 0,194,195
 1480 602 1480 602 1478 593 c 128,-1,196
 1476 584 1476 584 1474 573 c 0,197,198
 1464 524 1464 524 1442 473.5 c 128,-1,199
 1420 423 1420 423 1385 375 c 0,200,201
 1349 326 1349 326 1308.5 287 c 128,-1,202
 1268 248 1268 248 1222 219 c 0,203,204
 1158 179 1158 179 1122 178 c 0,205,206
 1115 180 1115 180 1109.5 181.5 c 128,-1,207
 1104 183 1104 183 1100 185 c 0,208,209
 1098 190 1098 190 1097 195 c 128,-1,210
 1096 200 1096 200 1096 206 c 2,211,-1
 1366 839 l 1,212,-1
 1192 839 l 1,213,-1
 1153 748 l 1,214,215
 1120 802 1120 802 1071 831 c 128,-1,216
 1022 860 1022 860 959 860 c 0,217,218
 871 860 871 860 762 801 c 0,219,220
 709 772 709 772 661 727 c 128,-1,221
 613 682 613 682 569 619 c 0,222,223
 482 494 482 494 454 372 c 2,224,-1
 446 340 l 1,225,-1
 446 287 l 2,226,227
 446 237 446 237 459 189 c 0,228,229
 502 17 502 17 673 17 c 0,230,231
 788 17 788 17 904 114 c 1,232,-1
 906 90 l 1,130,131
629 358 m 2,233,234
 638 420 638 420 681 494 c 0,235,236
 809 714 809 714 946 714 c 0,237,238
 998 714 998 714 1031 678 c 0,239,240
 1047 659 1047 659 1054.5 636.5 c 128,-1,241
 1062 614 1062 614 1060 587 c 0,242,243
 1060 579 1060 579 1059 571.5 c 128,-1,244
 1058 564 1058 564 1058 556 c 2,245,-1
 1052 523 l 2,246,247
 1047 491 1047 491 1033.5 455.5 c 128,-1,248
 1020 420 1020 420 997 380 c 0,249,250
 950 294 950 294 904 258 c 1,251,252
 829 165 829 165 722 165 c 0,253,254
 675 165 675 165 647 199 c 0,255,256
 617 237 617 237 621 288 c 0,257,258
 621 296 621 296 622 305 c 128,-1,259
 623 314 623 314 623 322 c 2,260,-1
 629 358 l 2,233,234
927 160 m 1,261,262
 798 36 798 36 673 36 c 0,263,264
 517 36 517 36 477 194 c 0,265,266
 465 239 465 239 465 287 c 2,267,-1
 465 336 l 1,268,-1
 473 368 l 2,269,270
 502 490 502 490 584.5 608.5 c 128,-1,271
 667 727 667 727 771.5 784 c 128,-1,272
 876 841 876 841 959 841 c 0,273,274
 1094 841 1094 841 1155 704 c 1,275,-1
 1204 820 l 1,276,-1
 1337 820 l 1,277,-1
 1077 209 l 1,278,279
 1077 190 1077 190 1085 173 c 0,280,281
 1094 163 1094 163 1119 160 c 0,282,283
 1163 160 1163 160 1233 203 c 0,284,285
 1326 262 1326 262 1400 363.5 c 128,-1,286
 1474 465 1474 465 1493 570 c 2,287,-1
 1501 611 l 1,288,-1
 1503 661 l 2,289,290
 1505 727 1505 727 1480 799 c 0,291,292
 1440 915 1440 915 1309 980 c 0,293,294
 1197 1037 1197 1037 1062 1037 c 0,295,296
 785 1037 785 1037 577 855.5 c 128,-1,297
 369 674 369 674 308 399 c 0,298,299
 291 321 291 321 291 251 c 0,300,301
 291 -9 291 -9 505 -108 c 0,302,303
 642 -171 642 -171 824 -171 c 0,304,305
 1182 -171 1182 -171 1394 51 c 1,306,-1
 1527 51 l 1,307,308
 1410 -135 1410 -135 1119 -234 c 0,309,310
 980 -281 980 -281 802 -281 c 0,311,312
 464 -281 464 -281 302 -116 c 0,313,314
 177 13 177 13 177 224 c 0,315,316
 177 479 177 479 342 731 c 0,317,318
 469 927 469 927 665.5 1036 c 128,-1,319
 862 1145 862 1145 1092 1145 c 0,320,321
 1486 1145 1486 1145 1590 847 c 0,322,323
 1617 769 1617 769 1615 689 c 2,324,-1
 1613 630 l 1,325,-1
 1601 566 l 2,326,327
 1565 363 1565 363 1370 186 c 0,328,329
 1201 34 1201 34 1043 34 c 2,330,-1
 1022 34 l 1,331,-1
 994 38 l 2,332,333
 950 44 950 44 925 95 c 1,334,-1
 923 120 l 1,335,-1
 927 160 l 1,261,262
610 361 m 2,336,-1
 604 325 l 1,337,-1
 602 289 l 2,338,339
 598 230 598 230 631.5 188 c 128,-1,340
 665 146 665 146 722 146 c 0,341,342
 840 146 840 146 918 245 c 1,343,344
 967 283 967 283 1014 370 c 0,345,346
 1060 452 1060 452 1071 520 c 2,347,-1
 1077 553 l 1,348,-1
 1079 587 l 2,349,350
 1083 648 1083 648 1045 690.5 c 128,-1,351
 1007 733 1007 733 946 733 c 0,352,353
 798 733 798 733 665 503 c 0,354,355
 619 425 619 425 610 361 c 2,336,-1
EndSplineSet
EndChar

StartChar: bracketleft
Encoding: 91 91 36
Width: 504
GlyphClass: 2
Flags: W
LayerCount: 2
Fore
SplineSet
37 -381 m 1,0,-1
 408 1449 l 1,1,-1
 834 1449 l 1,2,-1
 789 1232 l 1,3,-1
 597 1232 l 1,4,5
 561 1052 561 1052 526 879 c 128,-1,6
 491 706 491 706 456.5 534 c 128,-1,7
 422 362 422 362 386.5 188.5 c 128,-1,8
 351 15 351 15 315 -165 c 1,9,-1
 507 -165 l 1,10,-1
 463 -381 l 1,11,-1
 37 -381 l 1,0,-1
449 -362 m 1,12,-1
 485 -184 l 1,13,-1
 293 -184 l 1,14,-1
 583 1251 l 1,15,-1
 775 1251 l 1,16,-1
 812 1430 l 1,17,-1
 422 1430 l 1,18,-1
 59 -362 l 1,19,-1
 449 -362 l 1,12,-1
82 -343 m 1,20,-1
 437 1410 l 1,21,-1
 789 1410 l 1,22,-1
 760 1270 l 1,23,-1
 568 1270 l 1,24,-1
 270 -203 l 1,25,-1
 463 -203 l 1,26,-1
 434 -343 l 1,27,-1
 82 -343 l 1,20,-1
EndSplineSet
EndChar

StartChar: backslash
Encoding: 92 92 37
Width: 486
GlyphClass: 2
Flags: W
LayerCount: 2
Fore
SplineSet
372 -23 m 1,0,-1
 -11 1457 l 1,1,-1
 186 1457 l 1,2,-1
 567 -23 l 1,3,-1
 372 -23 l 1,0,-1
544 -4 m 1,4,-1
 172 1438 l 1,5,-1
 12 1438 l 1,6,-1
 386 -4 l 1,7,-1
 544 -4 l 1,4,-1
399 15 m 1,8,-1
 35 1419 l 1,9,-1
 159 1419 l 1,10,-1
 521 15 l 1,11,-1
 399 15 l 1,8,-1
EndSplineSet
EndChar

StartChar: bracketright
Encoding: 93 93 38
Width: 504
GlyphClass: 2
Flags: W
LayerCount: 2
Fore
SplineSet
374 -381 m 1,0,-1
 -52 -381 l 1,1,-1
 -7 -165 l 1,2,-1
 185 -165 l 1,3,4
 221 15 221 15 256 188 c 128,-1,5
 291 361 291 361 325.5 533 c 128,-1,6
 360 705 360 705 395.5 878.5 c 128,-1,7
 431 1052 431 1052 467 1232 c 1,8,-1
 275 1232 l 1,9,-1
 319 1449 l 1,10,-1
 745 1449 l 1,11,-1
 374 -381 l 1,0,-1
723 1430 m 1,12,-1
 333 1430 l 1,13,-1
 297 1251 l 1,14,-1
 489 1251 l 1,15,-1
 199 -184 l 1,16,-1
 6 -184 l 1,17,-1
 -30 -362 l 1,18,-1
 360 -362 l 1,19,-1
 723 1430 l 1,12,-1
345 -343 m 1,20,-1
 -7 -343 l 1,21,-1
 22 -203 l 1,22,-1
 214 -203 l 1,23,-1
 512 1270 l 1,24,-1
 319 1270 l 1,25,-1
 348 1410 l 1,26,-1
 700 1410 l 1,27,-1
 345 -343 l 1,20,-1
EndSplineSet
EndChar

StartChar: asciicircum
Encoding: 94 94 39
Width: 856
GlyphClass: 2
Flags: W
LayerCount: 2
Fore
SplineSet
275 611 m 1,0,-1
 27 611 l 1,1,-1
 376 1393 l 1,2,-1
 553 1393 l 1,3,-1
 902 611 l 1,4,-1
 658 611 l 1,5,-1
 464 1080 l 1,6,-1
 275 611 l 1,0,-1
464 1128 m 1,7,-1
 671 630 l 1,8,-1
 872 630 l 1,9,-1
 541 1375 l 1,10,-1
 388 1375 l 1,11,-1
 57 630 l 1,12,-1
 263 630 l 1,13,-1
 464 1128 l 1,7,-1
250 648 m 1,14,-1
 84 648 l 1,15,-1
 400 1357 l 1,16,-1
 529 1357 l 1,17,-1
 845 648 l 1,18,-1
 683 648 l 1,19,-1
 464 1176 l 1,20,-1
 250 648 l 1,14,-1
EndSplineSet
EndChar

StartChar: underscore
Encoding: 95 95 40
Width: 1040
GlyphClass: 2
Flags: W
LayerCount: 2
Fore
SplineSet
-28 -245 m 1,0,-1
 -28 -117 l 1,1,-1
 1136 -117 l 1,2,-1
 1136 -245 l 1,3,-1
 -28 -245 l 1,0,-1
1117 -233 m 1,4,-1
 1117 -129 l 1,5,-1
 -9 -129 l 1,6,-1
 -9 -233 l 1,7,-1
 1117 -233 l 1,4,-1
9 -220 m 1,8,-1
 9 -142 l 1,9,-1
 1099 -142 l 1,10,-1
 1099 -220 l 1,11,-1
 9 -220 l 1,8,-1
EndSplineSet
EndChar

StartChar: grave
Encoding: 96 96 41
Width: 547
GlyphClass: 2
Flags: W
LayerCount: 2
Fore
SplineSet
458 902 m 1,0,-1
 274 902 l 1,1,-1
 34 1176 l 1,2,-1
 318 1176 l 1,3,-1
 458 902 l 1,0,-1
308 1161 m 1,4,-1
 69 1161 l 1,5,-1
 282 918 l 1,6,-1
 432 918 l 1,7,-1
 308 1161 l 1,4,-1
406 933 m 1,8,-1
 289 933 l 1,9,-1
 103 1146 l 1,10,-1
 297 1146 l 1,11,-1
 406 933 l 1,8,-1
EndSplineSet
EndChar

StartChar: braceleft
Encoding: 123 123 42
Width: 606
GlyphClass: 2
Flags: W
LayerCount: 2
Fore
SplineSet
174 650 m 1,0,1
 245 650 245 650 293 681.5 c 128,-1,2
 341 713 341 713 366 767 c 1,3,-1
 396 869 l 1,4,-1
 395 867 l 1,5,6
 402 896 402 896 409.5 924.5 c 128,-1,7
 417 953 417 953 424 982 c 1,8,-1
 424 980 l 1,9,10
 430 1012 430 1012 442 1067.5 c 128,-1,11
 454 1123 454 1123 473 1201 c 0,12,13
 503 1319 503 1319 603 1407 c 0,14,15
 622 1424 622 1424 649 1438 c 128,-1,16
 676 1452 676 1452 714 1463 c 1,17,-1
 761 1471 l 1,18,-1
 833 1473 l 1,19,-1
 928 1473 l 1,20,-1
 882 1249 l 1,21,-1
 824 1249 l 2,22,23
 786 1249 786 1249 759.5 1241.5 c 128,-1,24
 733 1234 733 1234 716 1221 c 0,25,26
 705 1210 705 1210 693 1175.5 c 128,-1,27
 681 1141 681 1141 669 1087 c 0,28,29
 666 1072 666 1072 662.5 1058 c 128,-1,30
 659 1044 659 1044 656 1030 c 2,31,-1
 629 891 l 1,32,-1
 612 819 l 2,33,34
 610 807 610 807 605.5 794 c 128,-1,35
 601 781 601 781 593 769 c 0,36,37
 552 663 552 663 501 609 c 0,38,39
 482 589 482 589 460 571 c 128,-1,40
 438 553 438 553 408 534 c 1,41,42
 450 499 450 499 473.5 444.5 c 128,-1,43
 497 390 497 390 497 322 c 0,44,45
 497 296 497 296 490 241.5 c 128,-1,46
 483 187 483 187 469 106 c 2,47,-1
 428 -133 l 2,48,49
 429 -141 429 -141 430.5 -149 c 128,-1,50
 432 -157 432 -157 435 -162 c 0,51,52
 442 -165 442 -165 446.5 -168 c 128,-1,53
 451 -171 451 -171 458 -174 c 2,54,-1
 455 -173 l 2,55,56
 479 -180 479 -180 519 -180 c 2,57,-1
 593 -180 l 1,58,-1
 549 -403 l 1,59,-1
 468 -403 l 2,60,61
 420 -403 420 -403 386.5 -399 c 128,-1,62
 353 -395 353 -395 333 -387 c 0,63,64
 278 -362 278 -362 238 -302 c 1,65,-1
 212 -235 l 1,66,-1
 205 -162 l 1,67,68
 205 -114 205 -114 222 -23 c 2,69,-1
 244 90 l 1,70,-1
 244 89 l 1,71,-1
 269 231 l 1,72,-1
 269 226 l 2,73,74
 270 249 270 249 272 272.5 c 128,-1,75
 274 296 274 296 276 319 c 0,76,77
 278 339 278 339 271.5 358 c 128,-1,78
 265 377 265 377 251 392 c 0,79,80
 214 420 214 420 128 420 c 1,81,-1
 174 650 l 1,0,1
150 439 m 1,82,83
 227 439 227 439 264 406 c 1,84,85
 299 368 299 368 294 317 c 0,86,87
 292 295 292 295 290.5 273 c 128,-1,88
 289 251 289 251 287 228 c 2,89,-1
 261 86 l 1,90,-1
 240 -27 l 2,91,92
 223 -115 223 -115 223 -161 c 1,93,-1
 230 -233 l 1,94,-1
 251 -288 l 1,95,96
 293 -350 293 -350 340 -369 c 0,97,98
 376 -384 376 -384 468 -384 c 2,99,-1
 534 -384 l 1,100,-1
 571 -199 l 1,101,-1
 519 -199 l 2,102,103
 501 -199 501 -199 483.5 -197.5 c 128,-1,104
 466 -196 466 -196 452 -192 c 2,105,-1
 423 -178 l 1,106,107
 412 -163 412 -163 410 -135 c 1,108,-1
 452 109 l 2,109,110
 479 268 479 268 479 322 c 0,111,112
 479 471 479 471 374 535 c 1,113,114
 446 579 446 579 488 622 c 0,115,116
 514 650 514 650 536 689 c 128,-1,117
 558 728 558 728 578 779 c 1,118,-1
 576 777 l 2,119,120
 582 787 582 787 587 799 c 128,-1,121
 592 811 592 811 594 824 c 2,122,-1
 611 895 l 1,123,-1
 639 1034 l 2,124,125
 641 1048 641 1048 645 1062.5 c 128,-1,126
 649 1077 649 1077 652 1091 c 1,127,-1
 651 1090 l 1,128,129
 678 1212 678 1212 705 1236 c 1,130,-1
 705 1235 l 1,131,132
 744 1268 744 1268 824 1268 c 2,133,-1
 868 1268 l 1,134,-1
 906 1454 l 1,135,-1
 833 1454 l 1,136,-1
 764 1452 l 1,137,-1
 721 1444 l 1,138,139
 685 1433 685 1433 658.5 1420 c 128,-1,140
 632 1407 632 1407 614 1392 c 0,141,142
 520 1308 520 1308 491 1196 c 0,143,144
 472 1118 472 1118 459.5 1063.5 c 128,-1,145
 447 1009 447 1009 441 976 c 1,146,-1
 442 977 l 1,147,148
 435 948 435 948 427.5 919.5 c 128,-1,149
 420 891 420 891 413 862 c 1,150,-1
 413 863 l 1,151,-1
 382 758 l 1,152,-1
 383 760 l 1,153,154
 330 631 330 631 188 631 c 1,155,-1
 150 439 l 1,82,83
203 612 m 1,156,157
 341 612 341 612 399 752 c 1,158,-1
 430 857 l 1,159,-1
 459 973 l 2,160,161
 472 1038 472 1038 508 1191 c 0,162,163
 535 1297 535 1297 626 1377 c 0,164,165
 659 1406 659 1406 722 1425 c 1,166,-1
 766 1433 l 1,167,-1
 833 1435 l 1,168,-1
 884 1435 l 1,169,-1
 853 1287 l 1,170,-1
 824 1287 l 2,171,172
 735 1287 735 1287 693 1251 c 0,173,174
 662 1224 662 1224 633 1095 c 2,175,-1
 621 1038 l 1,176,-1
 593 900 l 1,177,-1
 577 829 l 2,178,179
 572 806 572 806 561 786 c 0,180,181
 523 687 523 687 475.5 636 c 128,-1,182
 428 585 428 585 334 535 c 1,183,184
 461 480 461 480 461 322 c 0,185,186
 461 272 461 272 434 113 c 2,187,-1
 392 -132 l 1,188,189
 392 -173 392 -173 412 -194 c 1,190,-1
 445 -209 l 1,191,192
 477 -219 477 -219 519 -219 c 2,193,-1
 548 -219 l 1,194,-1
 519 -364 l 1,195,-1
 468 -364 l 2,196,197
 379 -364 379 -364 347 -351 c 0,198,199
 301 -332 301 -332 269 -282 c 1,200,-1
 249 -228 l 1,201,-1
 241 -159 l 1,202,203
 241 -115 241 -115 258 -31 c 2,204,-1
 279 82 l 1,205,-1
 305 224 l 1,206,-1
 312 317 l 2,207,208
 318 376 318 376 276 420 c 1,209,210
 230 458 230 458 172 458 c 1,211,-1
 203 612 l 1,156,157
EndSplineSet
EndChar

StartChar: bar
Encoding: 124 124 43
Width: 341
GlyphClass: 2
Flags: W
LayerCount: 2
Fore
SplineSet
121 -403 m 1,0,-1
 121 1473 l 1,1,-1
 273 1473 l 1,2,-1
 273 -403 l 1,3,-1
 121 -403 l 1,0,-1
259 -384 m 1,4,-1
 259 1454 l 1,5,-1
 134 1454 l 1,6,-1
 134 -384 l 1,7,-1
 259 -384 l 1,4,-1
147 -364 m 1,8,-1
 147 1435 l 1,9,-1
 246 1435 l 1,10,-1
 246 -364 l 1,11,-1
 147 -364 l 1,8,-1
EndSplineSet
EndChar

StartChar: braceright
Encoding: 125 125 44
Width: 606
GlyphClass: 2
Flags: W
LayerCount: 2
Fore
SplineSet
752 650 m 1,0,-1
 706 420 l 1,1,2
 618 420 618 420 573 388 c 0,3,4
 551 372 551 372 535.5 351.5 c 128,-1,5
 520 331 520 331 512 304 c 2,6,-1
 485 218 l 1,7,-1
 409 -118 l 2,8,9
 400 -157 400 -157 384 -193.5 c 128,-1,10
 368 -230 368 -230 345 -257 c 2,11,-1
 311 -298 l 1,12,-1
 269 -342 l 1,13,-1
 227 -367 l 1,14,-1
 166 -393 l 1,15,-1
 119 -401 l 1,16,-1
 45 -403 l 1,17,-1
 -48 -403 l 1,18,-1
 -5 -180 l 1,19,-1
 53 -180 l 2,20,21
 128 -180 128 -180 157 -154 c 0,22,23
 172 -140 172 -140 185 -104.5 c 128,-1,24
 198 -69 198 -69 210 -16 c 0,25,26
 219 28 219 28 228.5 74.5 c 128,-1,27
 238 121 238 121 248 166 c 2,28,-1
 277 282 l 2,29,30
 319 450 319 450 469 540 c 1,31,32
 441 564 441 564 423 592 c 128,-1,33
 405 620 405 620 394 656 c 1,34,-1
 394 655 l 1,35,36
 383 693 383 693 383 756 c 0,37,38
 383 799 383 799 389.5 853 c 128,-1,39
 396 907 396 907 407 965 c 2,40,-1
 431 1080 l 1,41,-1
 431 1079 l 1,42,-1
 442 1140 l 1,43,-1
 441 1138 l 1,44,-1
 450 1204 l 1,45,-1
 450 1210 l 2,46,47
 450 1249 450 1249 358 1249 c 2,48,-1
 286 1249 l 1,49,-1
 332 1473 l 1,50,-1
 410 1473 l 2,51,52
 589 1473 589 1473 643 1372 c 0,53,54
 671 1319 671 1319 671 1224 c 1,55,-1
 662 1130 l 1,56,-1
 609 832 l 1,57,-1
 610 834 l 1,58,-1
 601 746 l 1,59,60
 602 710 602 710 628 677 c 0,61,62
 634 672 634 672 643 667.5 c 128,-1,63
 652 663 652 663 661 658 c 0,64,65
 665 656 665 656 669 654.5 c 128,-1,66
 673 653 673 653 678 652 c 2,67,-1
 752 650 l 1,0,-1
677 633 m 2,68,69
 670 635 670 635 664.5 637 c 128,-1,70
 659 639 659 639 652 641 c 2,71,-1
 655 639 l 2,72,73
 644 644 644 644 633 651 c 128,-1,74
 622 658 622 658 613 666 c 0,75,76
 583 702 583 702 583 748 c 1,77,-1
 592 834 l 1,78,-1
 644 1124 l 1,79,-1
 653 1226 l 1,80,81
 653 1315 653 1315 627 1362 c 0,82,83
 576 1454 576 1454 410 1454 c 2,84,-1
 346 1454 l 1,85,-1
 308 1268 l 1,86,-1
 358 1268 l 2,87,88
 468 1268 468 1268 468 1210 c 2,89,-1
 468 1202 l 1,90,-1
 459 1137 l 1,91,-1
 448 1076 l 1,92,-1
 425 961 l 2,93,94
 414 906 414 906 407.5 853 c 128,-1,95
 401 800 401 800 401 756 c 0,96,97
 401 726 401 726 403.5 702.5 c 128,-1,98
 406 679 406 679 411 662 c 0,99,100
 423 626 423 626 447.5 593.5 c 128,-1,101
 472 561 472 561 504 537 c 1,102,103
 339 452 339 452 295 277 c 2,104,-1
 265 161 l 2,105,106
 255 117 255 117 246 70 c 128,-1,107
 237 23 237 23 227 -21 c 0,108,109
 215 -78 215 -78 200.5 -115.5 c 128,-1,110
 186 -153 186 -153 169 -169 c 0,111,112
 136 -199 136 -199 53 -199 c 2,113,-1
 10 -199 l 1,114,-1
 -26 -384 l 1,115,-1
 45 -384 l 1,116,-1
 116 -382 l 1,117,-1
 163 -374 l 1,118,-1
 220 -350 l 1,119,-1
 259 -327 l 1,120,-1
 298 -286 l 1,121,-1
 331 -245 l 2,122,123
 351 -219 351 -219 366.5 -184.5 c 128,-1,124
 382 -150 382 -150 391 -114 c 2,125,-1
 467 225 l 1,126,-1
 467 224 l 1,127,-1
 495 311 l 2,128,129
 512 368 512 368 563 404 c 0,130,131
 589 422 589 422 621.5 430.5 c 128,-1,132
 654 439 654 439 692 439 c 1,133,-1
 730 631 l 1,134,-1
 677 633 l 2,68,69
708 612 m 1,135,-1
 677 458 l 1,136,137
 610 458 610 458 553.5 420 c 128,-1,138
 497 382 497 382 477 317 c 2,139,-1
 450 230 l 1,140,-1
 374 -109 l 2,141,142
 358 -182 358 -182 318 -232 c 2,143,-1
 285 -272 l 1,144,-1
 249 -311 l 1,145,-1
 212 -332 l 1,146,-1
 158 -355 l 1,147,-1
 114 -363 l 1,148,-1
 45 -364 l 1,149,-1
 -4 -364 l 1,150,-1
 25 -219 l 1,151,-1
 53 -219 l 2,152,153
 142 -219 142 -219 181 -183.5 c 128,-1,154
 220 -148 220 -148 245 -25 c 2,155,-1
 283 157 l 1,156,-1
 312 272 l 2,157,158
 358 453 358 453 543 535 c 1,159,160
 454 581 454 581 428 668 c 0,161,162
 419 698 419 698 419 756 c 0,163,164
 419 842 419 842 443 957 c 2,165,-1
 466 1072 l 1,166,-1
 477 1134 l 1,167,-1
 486 1201 l 1,168,-1
 486 1210 l 2,169,170
 486 1287 486 1287 358 1287 c 2,171,-1
 330 1287 l 1,172,-1
 361 1435 l 1,173,-1
 410 1435 l 2,174,175
 566 1435 566 1435 612 1352 c 0,176,177
 635 1310 635 1310 635 1228 c 1,178,-1
 626 1130 l 1,179,-1
 573 838 l 1,180,-1
 564 750 l 1,181,182
 564 696 564 696 603 650 c 0,183,184
 622 633 622 633 648 621 c 1,185,-1
 675 614 l 1,186,-1
 708 612 l 1,135,-1
EndSplineSet
EndChar

StartChar: asciitilde
Encoding: 126 126 45
Width: 1081
GlyphClass: 2
Flags: W
LayerCount: 2
Fore
SplineSet
681 446 m 2,0,1
 682 445 682 445 682 445 c 1,2,-1
 681 446 l 2,0,1
78 394 m 1,3,-1
 78 640 l 1,4,5
 196 754 196 754 367 754 c 0,6,7
 416 754 416 754 490 738 c 0,8,9
 512 731 512 731 556.5 717 c 128,-1,10
 601 703 601 703 665 683 c 2,11,-1
 757 654 l 1,12,-1
 752 655 l 2,13,14
 762 653 762 653 768 651.5 c 128,-1,15
 774 650 774 650 784 648 c 2,16,-1
 807 648 l 2,17,18
 902 648 902 648 1078 800 c 1,19,-1
 1078 544 l 1,20,21
 1043 516 1043 516 1008.5 495 c 128,-1,22
 974 474 974 474 941 460 c 1,23,24
 896 447 896 447 859 441.5 c 128,-1,25
 822 436 822 436 791 437 c 0,26,27
 778 437 778 437 765 437.5 c 128,-1,28
 752 438 752 438 739 438 c 2,29,-1
 702 438 l 1,30,-1
 685 445 l 1,31,-1
 683 445 l 1,32,-1
 682 445 l 1,33,-1
 683 445 l 1,34,-1
 681 446 l 1,35,36
 655 452 655 452 611.5 467 c 128,-1,37
 568 482 568 482 507 505 c 0,38,39
 412 541 412 541 352 541 c 0,40,41
 326 541 326 541 303 536 c 128,-1,42
 280 531 280 531 258 523 c 2,43,-1
 208 495 l 1,44,-1
 185 480 l 1,45,-1
 78 394 l 1,3,-1
176 494 m 2,46,47
 181 497 181 497 186 501 c 128,-1,48
 191 505 191 505 196 508 c 0,49,50
 210 516 210 516 224 523.5 c 128,-1,51
 238 531 238 531 252 538 c 1,52,-1
 251 538 l 1,53,54
 298 557 298 557 352 557 c 0,55,56
 419 557 419 557 515 520 c 0,57,58
 580 495 580 495 622.5 480.5 c 128,-1,59
 665 466 665 466 687 461 c 0,60,61
 688 461 688 461 694 459 c 2,62,-1
 689 460 l 1,63,-1
 706 454 l 1,64,-1
 739 454 l 2,65,66
 752 454 752 454 765 453.5 c 128,-1,67
 778 453 778 453 791 453 c 0,68,69
 821 452 821 452 856.5 457 c 128,-1,70
 892 462 892 462 934 475 c 1,71,72
 998 503 998 503 1059 551 c 1,73,-1
 1059 762 l 1,74,75
 910 632 910 632 807 632 c 2,76,-1
 785 632 l 2,77,78
 775 634 775 634 767.5 636 c 128,-1,79
 760 638 760 638 750 640 c 2,80,-1
 658 668 l 2,81,82
 594 688 594 688 553.5 700.5 c 128,-1,83
 513 713 513 713 492 721 c 1,84,85
 449 729 449 729 418 733.5 c 128,-1,86
 387 738 387 738 367 738 c 0,87,88
 205 738 205 738 96 633 c 1,89,-1
 96 430 l 1,90,-1
 176 494 l 2,46,47
115 467 m 1,91,-1
 115 627 l 1,92,93
 213 722 213 722 367 722 c 0,94,95
 409 722 409 722 481 707 c 1,96,97
 524 693 524 693 652 653 c 2,98,-1
 744 624 l 1,99,-1
 783 616 l 1,100,-1
 807 616 l 2,101,102
 917 616 917 616 1041 723 c 1,103,-1
 1041 558 l 1,104,105
 985 515 985 515 926 490 c 1,106,107
 848 467 848 467 791 469 c 2,108,-1
 739 470 l 1,109,-1
 709 470 l 1,110,111
 702 474 702 474 689 477 c 0,112,113
 650 486 650 486 522 534 c 0,114,115
 420 573 420 573 352 573 c 0,116,117
 293 573 293 573 243 552 c 1,118,-1
 187 522 l 1,119,-1
 163 506 l 1,120,-1
 115 467 l 1,91,-1
EndSplineSet
EndChar

StartChar: cent
Encoding: 162 162 46
Width: 633
GlyphClass: 2
Flags: W
LayerCount: 2
Fore
SplineSet
513 561 m 2,0,1
 512 561 512 561 512 563 c 2,2,-1
 513 561 l 2,0,1
491 568 m 1,3,4
 489 561 489 561 487 554.5 c 128,-1,5
 485 548 485 548 483 541 c 1,6,7
 487 546 487 546 491 551 c 128,-1,8
 495 556 495 556 500 563 c 1,9,-1
 500 562 l 1,10,-1
 504 566 l 1,11,-1
 491 568 l 1,3,4
368 518 m 1,12,-1
 359 510 l 1,13,-1
 360 510 l 1,14,15
 305 453 305 453 275.5 379.5 c 128,-1,16
 246 306 246 306 246 229 c 0,17,18
 246 186 246 186 261 159 c 1,19,-1
 260 160 l 1,20,-1
 265 154 l 1,21,-1
 368 518 l 1,12,-1
608 190 m 1,22,23
 543 94 543 94 476.5 46 c 128,-1,24
 410 -2 410 -2 328 -13 c 1,25,26
 312 -70 312 -70 294 -132 c 128,-1,27
 276 -194 276 -194 261 -248 c 1,28,-1
 152 -248 l 1,29,-1
 220 -7 l 1,30,31
 146 12 146 12 108 69 c 128,-1,32
 70 126 70 126 70 214 c 0,33,34
 70 375 70 375 175 510 c 0,35,36
 272 633 272 633 409 667 c 1,37,38
 418 698 418 698 427.5 732.5 c 128,-1,39
 437 767 437 767 446.5 801.5 c 128,-1,40
 456 836 456 836 465.5 870 c 128,-1,41
 475 904 475 904 483 934 c 1,42,-1
 591 934 l 1,43,-1
 519 669 l 1,44,45
 584 659 584 659 613.5 622 c 128,-1,46
 643 585 643 585 643 527 c 0,47,48
 643 500 643 500 635 477 c 128,-1,49
 627 454 627 454 613.5 437.5 c 128,-1,50
 600 421 600 421 582 411.5 c 128,-1,51
 564 402 564 402 544 402 c 0,52,53
 508 402 508 402 487.5 423.5 c 128,-1,54
 467 445 467 445 466 480 c 1,55,-1
 364 120 l 1,56,57
 444 133 444 133 541 253 c 1,58,-1
 608 190 l 1,22,23
543 227 m 1,59,60
 441 100 441 100 344 100 c 2,61,-1
 340 100 l 1,62,63
 358 164 358 164 375 224.5 c 128,-1,64
 392 285 392 285 409 344 c 128,-1,65
 426 403 426 403 442.5 462.5 c 128,-1,66
 459 522 459 522 477 586 c 1,67,68
 499 585 499 585 510 582.5 c 128,-1,69
 521 580 521 580 526 574 c 1,70,-1
 526 571 l 2,71,72
 526 564 526 564 513 550 c 0,73,74
 493 527 493 527 488 514 c 128,-1,75
 483 501 483 501 483 483 c 0,76,77
 483 455 483 455 499 438 c 128,-1,78
 515 421 515 421 544 421 c 0,79,80
 578 421 578 421 602 450.5 c 128,-1,81
 626 480 626 480 626 527 c 0,82,83
 626 581 626 581 595.5 614.5 c 128,-1,84
 565 648 565 648 496 653 c 1,85,-1
 568 915 l 1,86,-1
 497 915 l 1,87,-1
 423 652 l 1,88,89
 286 623 286 623 190 497 c 0,90,91
 88 366 88 366 88 214 c 0,92,93
 88 131 88 131 129 75.5 c 128,-1,94
 170 20 170 20 242 6 c 1,95,-1
 175 -229 l 1,96,-1
 248 -229 l 1,97,-1
 315 4 l 1,98,99
 356 9 356 9 392 21.5 c 128,-1,100
 428 34 428 34 461 56 c 128,-1,101
 494 78 494 78 524 110 c 128,-1,102
 554 142 554 142 584 186 c 1,103,-1
 543 227 l 1,59,60
274 121 m 1,104,105
 258 133 258 133 246 150 c 2,106,-1
 247 149 l 1,107,108
 228 180 228 180 228 229 c 0,109,110
 228 309 228 309 259 386.5 c 128,-1,111
 290 464 290 464 347 524 c 1,112,-1
 347 523 l 1,113,114
 360 535 360 535 370.5 544 c 128,-1,115
 381 553 381 553 398 562 c 1,116,-1
 274 121 l 1,104,105
560 184 m 1,117,118
 506 104 506 104 444.5 66.5 c 128,-1,119
 383 29 383 29 302 22 c 1,120,-1
 235 -211 l 1,121,-1
 199 -211 l 1,122,-1
 265 22 l 1,123,124
 190 30 190 30 147.5 81.5 c 128,-1,125
 105 133 105 133 105 214 c 0,126,127
 105 361 105 361 203 486 c 128,-1,128
 301 611 301 611 436 635 c 1,129,-1
 510 896 l 1,130,-1
 544 896 l 1,131,-1
 473 635 l 1,132,133
 544 635 544 635 576 606 c 128,-1,134
 608 577 608 577 608 527 c 0,135,136
 608 489 608 489 589 464 c 128,-1,137
 570 439 570 439 544 439 c 0,138,139
 524 439 524 439 512.5 451.5 c 128,-1,140
 501 464 501 464 501 483 c 0,141,142
 501 497 501 497 505.5 507.5 c 128,-1,143
 510 518 510 518 527 538 c 128,-1,144
 544 558 544 558 544 571 c 0,145,146
 544 579 544 579 540 585 c 0,147,148
 531 596 531 596 517.5 600.5 c 128,-1,149
 504 605 504 605 464 605 c 1,150,-1
 318 83 l 1,151,-1
 344 81 l 1,152,153
 448 81 448 81 544 199 c 1,154,-1
 560 184 l 1,117,118
284 91 m 1,155,-1
 426 598 l 1,156,157
 371 571 371 571 335 537 c 0,158,159
 276 475 276 475 243.5 394 c 128,-1,160
 211 313 211 313 211 229 c 0,161,162
 211 174 211 174 232 139 c 0,163,164
 248 113 248 113 284 91 c 1,155,-1
EndSplineSet
EndChar

StartChar: multiply
Encoding: 215 215 47
Width: 856
GlyphClass: 2
Flags: W
LayerCount: 2
Fore
SplineSet
220 237 m 1,0,-1
 439 456 l 1,1,2
 413 482 413 482 385 510 c 128,-1,3
 357 538 357 538 328.5 566.5 c 128,-1,4
 300 595 300 595 272 623 c 128,-1,5
 244 651 244 651 220 675 c 1,6,-1
 306 759 l 1,7,-1
 524 541 l 1,8,-1
 742 759 l 1,9,-1
 826 675 l 1,10,-1
 607 456 l 1,11,-1
 827 237 l 1,12,-1
 742 153 l 1,13,-1
 523 372 l 1,14,-1
 305 153 l 1,15,-1
 220 237 l 1,0,-1
305 177 m 1,16,-1
 523 396 l 1,17,-1
 742 177 l 1,18,-1
 802 237 l 1,19,-1
 582 457 l 1,20,-1
 801 675 l 1,21,-1
 742 734 l 1,22,-1
 524 517 l 1,23,-1
 306 734 l 1,24,-1
 245 675 l 1,25,26
 264 655 264 655 293 626.5 c 128,-1,27
 322 598 322 598 353 567 c 128,-1,28
 384 536 384 536 413.5 506.5 c 128,-1,29
 443 477 443 477 464 456 c 1,30,-1
 245 237 l 1,31,-1
 305 177 l 1,16,-1
270 237 m 1,32,-1
 488 456 l 1,33,-1
 270 675 l 1,34,-1
 306 710 l 1,35,-1
 524 492 l 1,36,-1
 742 710 l 1,37,-1
 777 675 l 1,38,-1
 558 457 l 1,39,-1
 777 237 l 1,40,-1
 742 202 l 1,41,-1
 523 421 l 1,42,-1
 305 202 l 1,43,-1
 270 237 l 1,32,-1
EndSplineSet
EndChar

StartChar: divide
Encoding: 247 247 48
Width: 649
GlyphClass: 2
Flags: W
LayerCount: 2
Fore
SplineSet
270 129 m 0,0,1
 270 148 270 148 277.5 164.5 c 128,-1,2
 285 181 285 181 297.5 193 c 128,-1,3
 310 205 310 205 326 212 c 128,-1,4
 342 219 342 219 359 219 c 0,5,6
 377 219 377 219 393 212 c 128,-1,7
 409 205 409 205 421 193 c 128,-1,8
 433 181 433 181 440.5 164.5 c 128,-1,9
 448 148 448 148 448 129 c 0,10,11
 448 112 448 112 440.5 96 c 128,-1,12
 433 80 433 80 421 68 c 128,-1,13
 409 56 409 56 393 48.5 c 128,-1,14
 377 41 377 41 359 41 c 0,15,16
 342 41 342 41 326 48.5 c 128,-1,17
 310 56 310 56 297.5 68 c 128,-1,18
 285 80 285 80 277.5 96 c 128,-1,19
 270 112 270 112 270 129 c 0,0,1
270 483 m 256,20,21
 270 501 270 501 277.5 517 c 128,-1,22
 285 533 285 533 297.5 545 c 128,-1,23
 310 557 310 557 326 564.5 c 128,-1,24
 342 572 342 572 359 572 c 0,25,26
 377 572 377 572 393 564.5 c 128,-1,27
 409 557 409 557 421 545 c 128,-1,28
 433 533 433 533 440.5 517 c 128,-1,29
 448 501 448 501 448 483 c 256,30,31
 448 465 448 465 440.5 448.5 c 128,-1,32
 433 432 433 432 421 420 c 128,-1,33
 409 408 409 408 393 401 c 128,-1,34
 377 394 377 394 359 394 c 0,35,36
 342 394 342 394 326 401 c 128,-1,37
 310 408 310 408 297.5 420 c 128,-1,38
 285 432 285 432 277.5 448.5 c 128,-1,39
 270 465 270 465 270 483 c 256,20,21
101 244 m 1,40,-1
 101 368 l 1,41,-1
 617 368 l 1,42,-1
 617 244 l 1,43,-1
 101 244 l 1,40,-1
600 262 m 1,44,-1
 600 351 l 1,45,-1
 119 351 l 1,46,-1
 119 262 l 1,47,-1
 600 262 l 1,44,-1
287 129 m 0,48,49
 287 100 287 100 309 79 c 128,-1,50
 331 58 331 58 359 58 c 0,51,52
 388 58 388 58 409 79 c 128,-1,53
 430 100 430 100 430 129 c 0,54,55
 430 159 430 159 409 180.5 c 128,-1,56
 388 202 388 202 359 202 c 0,57,58
 331 202 331 202 309 180.5 c 128,-1,59
 287 159 287 159 287 129 c 0,48,49
287 483 m 0,60,61
 287 453 287 453 309 432 c 128,-1,62
 331 411 331 411 359 411 c 0,63,64
 388 411 388 411 409 432 c 128,-1,65
 430 453 430 453 430 483 c 0,66,67
 430 512 430 512 409 533 c 128,-1,68
 388 554 388 554 359 554 c 0,69,70
 331 554 331 554 309 533 c 128,-1,71
 287 512 287 512 287 483 c 0,60,61
305 129 m 0,72,73
 305 152 305 152 321.5 168 c 128,-1,74
 338 184 338 184 359 184 c 0,75,76
 381 184 381 184 397 168 c 128,-1,77
 413 152 413 152 413 129 c 0,78,79
 413 108 413 108 397 92 c 128,-1,80
 381 76 381 76 359 76 c 0,81,82
 338 76 338 76 321.5 92 c 128,-1,83
 305 108 305 108 305 129 c 0,72,73
136 279 m 1,84,-1
 136 334 l 1,85,-1
 583 334 l 1,86,-1
 583 279 l 1,87,-1
 136 279 l 1,84,-1
305 483 m 256,88,89
 305 505 305 505 321.5 521 c 128,-1,90
 338 537 338 537 359 537 c 0,91,92
 381 537 381 537 397 521 c 128,-1,93
 413 505 413 505 413 483 c 256,94,95
 413 461 413 461 397 444.5 c 128,-1,96
 381 428 381 428 359 428 c 0,97,98
 338 428 338 428 321.5 444.5 c 128,-1,99
 305 461 305 461 305 483 c 256,88,89
EndSplineSet
EndChar

StartChar: tm_visarga
Encoding: 2947 2947 49
Width: 1061
GlyphClass: 2
Flags: W
LayerCount: 2
Fore
SplineSet
520 1008 m 0,0,1
 514 982 514 982 510.5 963 c 128,-1,2
 507 944 507 944 507 936 c 1,3,4
 507 937 507 937 513 937 c 2,5,-1
 658 937 l 2,6,7
 665 937 665 937 665 936 c 1,8,9
 665 948 665 948 661.5 967.5 c 128,-1,10
 658 987 658 987 651 1015 c 0,11,12
 649 1023 649 1023 646.5 1030 c 128,-1,13
 644 1037 644 1037 643 1037 c 2,14,-1
 527 1037 l 2,15,16
 528 1037 528 1037 525.5 1029 c 128,-1,17
 523 1021 523 1021 520 1008 c 0,0,1
811 262 m 1,18,19
 803 235 803 235 800 217 c 128,-1,20
 797 199 797 199 797 191 c 1,21,22
 797 192 797 192 803 192 c 2,23,-1
 948 192 l 2,24,25
 954 192 954 192 955 191 c 1,26,27
 955 218 955 218 942 269 c 0,28,29
 940 279 940 279 937.5 285.5 c 128,-1,30
 935 292 935 292 934 292 c 2,31,-1
 818 292 l 2,32,33
 819 292 819 292 816.5 283 c 128,-1,34
 814 274 814 274 810 260 c 2,35,-1
 811 262 l 1,18,19
186 262 m 1,36,37
 172 206 172 206 172 191 c 1,38,39
 172 192 172 192 178 192 c 2,40,-1
 324 192 l 2,41,42
 329 192 329 192 330 191 c 1,43,44
 330 218 330 218 317 269 c 0,45,46
 315 274 315 274 314 278 c 128,-1,47
 313 282 313 282 312 285 c 0,48,49
 311 289 311 289 310 292 c 2,50,-1
 193 292 l 2,51,52
 194 292 194 292 192 283 c 128,-1,53
 190 274 190 274 185 260 c 2,54,-1
 186 262 l 1,36,37
374 885 m 0,55,56
 374 925 374 925 389 981 c 2,57,-1
 411 1070 l 2,58,59
 422 1108 422 1108 455 1132 c 128,-1,60
 488 1156 488 1156 527 1156 c 2,61,-1
 658 1156 l 2,62,63
 690 1156 690 1156 720 1128 c 128,-1,64
 750 1100 750 1100 768 1053 c 1,65,-1
 796 953 l 2,66,67
 800 937 800 937 802 921 c 128,-1,68
 804 905 804 905 804 885 c 0,69,70
 804 856 804 856 794.5 830.5 c 128,-1,71
 785 805 785 805 769.5 786 c 128,-1,72
 754 767 754 767 732.5 756 c 128,-1,73
 711 745 711 745 687 745 c 2,74,-1
 513 745 l 2,75,76
 484 745 484 745 459 756 c 128,-1,77
 434 767 434 767 415 786 c 128,-1,78
 396 805 396 805 385 830.5 c 128,-1,79
 374 856 374 856 374 885 c 0,55,56
40 139 m 0,80,81
 40 159 40 159 44 183 c 128,-1,82
 48 207 48 207 56 236 c 2,83,-1
 77 325 l 2,84,85
 88 362 88 362 121 386.5 c 128,-1,86
 154 411 154 411 193 411 c 2,87,-1
 324 411 l 2,88,89
 356 411 356 411 386 382.5 c 128,-1,90
 416 354 416 354 434 308 c 1,91,-1
 462 208 l 2,92,93
 467 192 467 192 468.5 175.5 c 128,-1,94
 470 159 470 159 470 139 c 0,95,96
 470 110 470 110 460.5 85 c 128,-1,97
 451 60 451 60 435.5 41 c 128,-1,98
 420 22 420 22 398.5 11 c 128,-1,99
 377 0 377 0 353 0 c 2,100,-1
 178 0 l 2,101,102
 149 0 149 0 124 11 c 128,-1,103
 99 22 99 22 80.5 41 c 128,-1,104
 62 60 62 60 51 85 c 128,-1,105
 40 110 40 110 40 139 c 0,80,81
665 139 m 0,106,107
 665 162 665 162 668.5 186 c 128,-1,108
 672 210 672 210 679 237 c 2,109,-1
 702 325 l 2,110,111
 713 363 713 363 746 387 c 128,-1,112
 779 411 779 411 818 411 c 2,113,-1
 948 411 l 2,114,115
 980 411 980 411 1010.5 382.5 c 128,-1,116
 1041 354 1041 354 1059 308 c 1,117,-1
 1087 208 l 2,118,119
 1091 192 1091 192 1093 175.5 c 128,-1,120
 1095 159 1095 159 1095 139 c 0,121,122
 1095 110 1095 110 1085.5 85 c 128,-1,123
 1076 60 1076 60 1060.5 41 c 128,-1,124
 1045 22 1045 22 1023.5 11 c 128,-1,125
 1002 0 1002 0 978 0 c 2,126,-1
 803 0 l 2,127,128
 774 0 774 0 749 11 c 128,-1,129
 724 22 724 22 705.5 41 c 128,-1,130
 687 60 687 60 676 85 c 128,-1,131
 665 110 665 110 665 139 c 0,106,107
59 139 m 0,132,133
 59 114 59 114 68.5 92.5 c 128,-1,134
 78 71 78 71 94 54.5 c 128,-1,135
 110 38 110 38 131.5 28.5 c 128,-1,136
 153 19 153 19 178 19 c 2,137,-1
 353 19 l 2,138,139
 373 19 373 19 391 28.5 c 128,-1,140
 409 38 409 38 422.5 54.5 c 128,-1,141
 436 71 436 71 444 92.5 c 128,-1,142
 452 114 452 114 452 139 c 0,143,144
 452 157 452 157 450 172 c 128,-1,145
 448 187 448 187 443 203 c 2,146,-1
 413 311 l 1,147,148
 398 347 398 347 374 369.5 c 128,-1,149
 350 392 350 392 324 392 c 2,150,-1
 193 392 l 2,151,152
 160 392 160 392 132.5 372 c 128,-1,153
 105 352 105 352 95 320 c 2,154,-1
 73 231 l 1,155,-1
 74 233 l 1,156,157
 66 205 66 205 62.5 182 c 128,-1,158
 59 159 59 159 59 139 c 0,132,133
392 885 m 0,159,160
 392 860 392 860 401.5 838 c 128,-1,161
 411 816 411 816 427.5 799.5 c 128,-1,162
 444 783 444 783 466 773.5 c 128,-1,163
 488 764 488 764 513 764 c 2,164,-1
 687 764 l 2,165,166
 707 764 707 764 725 773.5 c 128,-1,167
 743 783 743 783 756.5 799.5 c 128,-1,168
 770 816 770 816 777.5 838 c 128,-1,169
 785 860 785 860 785 885 c 0,170,171
 785 902 785 902 783.5 917.5 c 128,-1,172
 782 933 782 933 777 948 c 2,173,-1
 746 1056 l 2,174,175
 732 1093 732 1093 708 1115 c 128,-1,176
 684 1137 684 1137 658 1137 c 2,177,-1
 527 1137 l 2,178,179
 493 1137 493 1137 466 1117 c 128,-1,180
 439 1097 439 1097 429 1065 c 2,181,-1
 407 976 l 1,182,-1
 408 978 l 1,183,184
 392 926 392 926 392 885 c 0,159,160
683 139 m 0,185,186
 683 114 683 114 692.5 92.5 c 128,-1,187
 702 71 702 71 718.5 54.5 c 128,-1,188
 735 38 735 38 756.5 28.5 c 128,-1,189
 778 19 778 19 803 19 c 2,190,-1
 978 19 l 2,191,192
 998 19 998 19 1016 28.5 c 128,-1,193
 1034 38 1034 38 1047.5 54.5 c 128,-1,194
 1061 71 1061 71 1068.5 92.5 c 128,-1,195
 1076 114 1076 114 1076 139 c 0,196,197
 1076 157 1076 157 1074.5 172 c 128,-1,198
 1073 187 1073 187 1068 203 c 2,199,-1
 1037 311 l 2,200,201
 1023 347 1023 347 998.5 369.5 c 128,-1,202
 974 392 974 392 948 392 c 2,203,-1
 818 392 l 2,204,205
 785 392 785 392 757.5 372 c 128,-1,206
 730 352 730 352 720 320 c 2,207,-1
 698 232 l 2,208,209
 691 205 691 205 687 182 c 128,-1,210
 683 159 683 159 683 139 c 0,185,186
778 191 m 0,211,212
 778 211 778 211 792 267 c 1,213,-1
 792 266 l 1,214,215
 798 286 798 286 805 298.5 c 128,-1,216
 812 311 812 311 818 311 c 2,217,-1
 934 311 l 2,218,219
 942 311 942 311 949 300.5 c 128,-1,220
 956 290 956 290 960 274 c 0,221,222
 973 222 973 222 973 191 c 0,223,224
 973 183 973 183 966 178 c 128,-1,225
 959 173 959 173 948 173 c 2,226,-1
 803 173 l 2,227,228
 793 173 793 173 785.5 178 c 128,-1,229
 778 183 778 183 778 191 c 0,211,212
153 191 m 0,230,231
 153 211 153 211 167 267 c 1,232,-1
 167 266 l 1,233,234
 174 286 174 286 180.5 298.5 c 128,-1,235
 187 311 187 311 193 311 c 2,236,-1
 310 311 l 2,237,238
 318 311 318 311 324.5 300.5 c 128,-1,239
 331 290 331 290 336 274 c 0,240,241
 349 222 349 222 349 191 c 0,242,243
 349 183 349 183 341.5 178 c 128,-1,244
 334 173 334 173 324 173 c 2,245,-1
 178 173 l 2,246,247
 168 173 168 173 160.5 178 c 128,-1,248
 153 183 153 183 153 191 c 0,230,231
488 936 m 0,249,250
 488 944 488 944 492 964 c 128,-1,251
 496 984 496 984 502 1013 c 1,252,-1
 501 1011 l 2,253,254
 507 1031 507 1031 514.5 1043.5 c 128,-1,255
 522 1056 522 1056 527 1056 c 2,256,-1
 643 1056 l 2,257,258
 651 1056 651 1056 658 1044.5 c 128,-1,259
 665 1033 665 1033 669 1019 c 0,260,261
 677 992 677 992 680 971 c 128,-1,262
 683 950 683 950 683 936 c 0,263,264
 683 929 683 929 675.5 923.5 c 128,-1,265
 668 918 668 918 658 918 c 2,266,-1
 513 918 l 2,267,268
 502 918 502 918 495 923.5 c 128,-1,269
 488 929 488 929 488 936 c 0,249,250
77 139 m 0,270,271
 77 158 77 158 81 180 c 128,-1,272
 85 202 85 202 92 227 c 2,273,-1
 113 315 l 2,274,275
 121 340 121 340 143.5 356.5 c 128,-1,276
 166 373 166 373 193 373 c 2,277,-1
 324 373 l 2,278,279
 344 373 344 373 364 353 c 128,-1,280
 384 333 384 333 397 300 c 2,281,-1
 426 198 l 2,282,283
 429 185 429 185 431 170.5 c 128,-1,284
 433 156 433 156 433 139 c 0,285,286
 433 97 433 97 409.5 67 c 128,-1,287
 386 37 386 37 353 37 c 2,288,-1
 178 37 l 2,289,290
 137 37 137 37 107 67 c 128,-1,291
 77 97 77 97 77 139 c 0,270,271
135 191 m 0,292,293
 135 176 135 176 148 165 c 128,-1,294
 161 154 161 154 178 154 c 2,295,-1
 324 154 l 2,296,297
 342 154 342 154 354.5 165 c 128,-1,298
 367 176 367 176 367 191 c 256,299,300
 367 206 367 206 364 228 c 128,-1,301
 361 250 361 250 353 279 c 0,302,303
 348 300 348 300 336 314.5 c 128,-1,304
 324 329 324 329 310 329 c 2,305,-1
 193 329 l 2,306,307
 180 329 180 329 168.5 312.5 c 128,-1,308
 157 296 157 296 150 271 c 0,309,310
 142 242 142 242 138.5 222 c 128,-1,311
 135 202 135 202 135 191 c 0,292,293
702 139 m 0,312,313
 702 158 702 158 705.5 180 c 128,-1,314
 709 202 709 202 716 227 c 2,315,-1
 738 315 l 2,316,317
 745 340 745 340 768 356.5 c 128,-1,318
 791 373 791 373 818 373 c 2,319,-1
 948 373 l 2,320,321
 969 373 969 373 989 353 c 128,-1,322
 1009 333 1009 333 1022 300 c 2,323,-1
 1050 198 l 2,324,325
 1054 185 1054 185 1056 170.5 c 128,-1,326
 1058 156 1058 156 1058 139 c 0,327,328
 1058 97 1058 97 1034 67 c 128,-1,329
 1010 37 1010 37 978 37 c 2,330,-1
 803 37 l 2,331,332
 761 37 761 37 731.5 67 c 128,-1,333
 702 97 702 97 702 139 c 0,312,313
759 191 m 0,334,335
 759 176 759 176 772 165 c 128,-1,336
 785 154 785 154 803 154 c 2,337,-1
 948 154 l 2,338,339
 967 154 967 154 979.5 165 c 128,-1,340
 992 176 992 176 992 191 c 256,341,342
 992 206 992 206 988.5 228 c 128,-1,343
 985 250 985 250 978 279 c 0,344,345
 972 300 972 300 960 314.5 c 128,-1,346
 948 329 948 329 934 329 c 2,347,-1
 818 329 l 2,348,349
 805 329 805 329 793.5 312.5 c 128,-1,350
 782 296 782 296 774 271 c 0,351,352
 767 242 767 242 763 222 c 128,-1,353
 759 202 759 202 759 191 c 0,334,335
411 885 m 0,354,355
 411 903 411 903 414.5 925 c 128,-1,356
 418 947 418 947 426 973 c 2,357,-1
 447 1061 l 2,358,359
 455 1086 455 1086 477.5 1102.5 c 128,-1,360
 500 1119 500 1119 527 1119 c 2,361,-1
 658 1119 l 2,362,363
 678 1119 678 1119 698 1098.5 c 128,-1,364
 718 1078 718 1078 731 1046 c 1,365,-1
 759 944 l 2,366,367
 763 931 763 931 765 916.5 c 128,-1,368
 767 902 767 902 767 885 c 0,369,370
 767 843 767 843 743 813 c 128,-1,371
 719 783 719 783 687 783 c 2,372,-1
 513 783 l 2,373,374
 471 783 471 783 441 813 c 128,-1,375
 411 843 411 843 411 885 c 0,354,355
469 936 m 0,376,377
 469 921 469 921 482 910.5 c 128,-1,378
 495 900 495 900 513 900 c 2,379,-1
 658 900 l 2,380,381
 676 900 676 900 689 910.5 c 128,-1,382
 702 921 702 921 702 936 c 256,383,384
 702 951 702 951 698 972.5 c 128,-1,385
 694 994 694 994 687 1024 c 0,386,387
 681 1046 681 1046 669.5 1060.5 c 128,-1,388
 658 1075 658 1075 643 1075 c 2,389,-1
 527 1075 l 2,390,391
 515 1075 515 1075 503 1058.5 c 128,-1,392
 491 1042 491 1042 483 1017 c 0,393,394
 477 988 477 988 473 967.5 c 128,-1,395
 469 947 469 947 469 936 c 0,376,377
EndSplineSet
EndChar

StartChar: tm_a
Encoding: 2949 2949 50
Width: 1549
GlyphClass: 2
Flags: W
LayerCount: 2
Fore
SplineSet
1039 515 m 0,0,1
 1039 483 1039 483 1017 460 c 128,-1,2
 995 437 995 437 963 431 c 1,3,-1
 1131 431 l 1,4,5
 1114 502 1114 502 1095.5 572.5 c 128,-1,6
 1077 643 1077 643 1060 714 c 0,7,8
 1057 727 1057 727 1049 735 c 128,-1,9
 1041 743 1041 743 1031 743 c 2,10,-1
 982 743 l 1,11,-1
 1023 580 l 2,12,13
 1024 574 1024 574 1026 569 c 256,14,15
 1028 564 1028 564 1029 559.5 c 128,-1,16
 1030 555 1030 555 1032 550 c 2,17,-1
 1031 551 l 1,18,19
 1039 527 1039 527 1039 515 c 0,0,1
896 623 m 2,20,21
 896 631 896 631 892 650 c 128,-1,22
 888 669 888 669 883 694 c 2,23,-1
 869 743 l 1,24,-1
 690 743 l 2,25,26
 699 741 699 741 696 727 c 1,27,-1
 697 728 l 1,28,-1
 675 650 l 2,29,30
 669 626 669 626 669 616 c 1,31,32
 669 617 669 617 675 617 c 2,33,-1
 896 617 l 1,34,-1
 896 623 l 2,20,21
179 222 m 0,35,36
 179 220 179 220 185.5 218 c 128,-1,37
 192 216 192 216 201 216 c 2,38,-1
 1149 216 l 2,39,40
 1162 216 1162 216 1170 222 c 128,-1,41
 1178 228 1178 228 1178 237 c 0,42,43
 1178 241 1178 241 1175.5 252.5 c 128,-1,44
 1173 264 1173 264 1171 272 c 2,45,-1
 1163 315 l 1,46,-1
 215 315 l 2,47,48
 210 315 210 315 203.5 307 c 128,-1,49
 197 299 197 299 192 287 c 0,50,51
 186 272 186 272 182.5 255 c 128,-1,52
 179 238 179 238 179 222 c 0,35,36
45 136 m 0,53,54
 45 178 45 178 60 238 c 2,55,-1
 90 360 l 2,56,57
 99 392 99 392 126.5 411.5 c 128,-1,58
 154 431 154 431 186 431 c 2,59,-1
 612 431 l 1,60,61
 579 438 579 438 556 463.5 c 128,-1,62
 533 489 533 489 533 522 c 0,63,64
 533 539 533 539 537 563.5 c 128,-1,65
 541 588 541 588 549 617 c 2,66,-1
 594 789 l 2,67,68
 603 821 603 821 630 840 c 128,-1,69
 657 859 657 859 689 859 c 2,70,-1
 1060 859 l 2,71,72
 1099 859 1099 859 1129.5 833.5 c 128,-1,73
 1160 808 1160 808 1171 767 c 2,74,-1
 1254 431 l 1,75,-1
 1393 431 l 1,76,-1
 1393 859 l 1,77,-1
 1514 859 l 1,78,-1
 1514 0 l 1,79,-1
 1393 0 l 1,80,-1
 1393 315 l 1,81,-1
 1281 315 l 1,82,-1
 1305 232 l 1,83,-1
 1303 236 l 1,84,85
 1320 192 1320 192 1320 136 c 0,86,87
 1320 79 1320 79 1273 38 c 0,88,89
 1250 20 1250 20 1223 10 c 128,-1,90
 1196 0 1196 0 1164 0 c 2,91,-1
 172 0 l 2,92,93
 145 0 145 0 122 10.5 c 128,-1,94
 99 21 99 21 82 39.5 c 128,-1,95
 65 58 65 58 55 83 c 128,-1,96
 45 108 45 108 45 136 c 0,53,54
64 136 m 0,97,98
 64 112 64 112 72.5 90.5 c 128,-1,99
 81 69 81 69 95.5 53 c 128,-1,100
 110 37 110 37 129.5 27.5 c 128,-1,101
 149 18 149 18 172 18 c 2,102,-1
 1164 18 l 2,103,104
 1221 18 1221 18 1260 52 c 0,105,106
 1301 87 1301 87 1301 136 c 0,107,108
 1301 162 1301 162 1297.5 185 c 128,-1,109
 1294 208 1294 208 1286 229 c 1,110,-1
 1286 227 l 1,111,-1
 1256 333 l 1,112,-1
 1412 333 l 1,113,-1
 1412 18 l 1,114,-1
 1495 18 l 1,115,-1
 1495 841 l 1,116,-1
 1412 841 l 1,117,-1
 1412 413 l 1,118,-1
 1239 413 l 1,119,-1
 1152 763 l 2,120,121
 1143 798 1143 798 1117.5 819.5 c 128,-1,122
 1092 841 1092 841 1060 841 c 2,123,-1
 689 841 l 2,124,125
 663 841 663 841 641.5 825.5 c 128,-1,126
 620 810 620 810 613 784 c 2,127,-1
 568 613 l 2,128,129
 560 584 560 584 556 560.5 c 128,-1,130
 552 537 552 537 552 522 c 256,131,132
 552 507 552 507 558.5 493.5 c 128,-1,133
 565 480 565 480 576 469.5 c 128,-1,134
 587 459 587 459 601.5 453 c 128,-1,135
 616 447 616 447 631 447 c 2,136,-1
 942 447 l 2,137,138
 974 447 974 447 997 466.5 c 128,-1,139
 1020 486 1020 486 1020 515 c 0,140,141
 1020 520 1020 520 1018.5 527.5 c 128,-1,142
 1017 535 1017 535 1013 545 c 1,143,-1
 1013 544 l 2,144,145
 1011 552 1011 552 1008 561.5 c 128,-1,146
 1005 571 1005 571 1004 576 c 2,147,-1
 958 761 l 1,148,-1
 1031 761 l 2,149,150
 1048 761 1048 761 1061 749 c 128,-1,151
 1074 737 1074 737 1078 718 c 0,152,153
 1097 642 1097 642 1116.5 565.5 c 128,-1,154
 1136 489 1136 489 1155 413 c 1,155,-1
 186 413 l 2,156,157
 160 413 160 413 138 397 c 128,-1,158
 116 381 116 381 108 355 c 2,159,-1
 78 233 l 2,160,161
 71 205 71 205 67.5 181 c 128,-1,162
 64 157 64 157 64 136 c 0,97,98
160 222 m 0,163,164
 160 239 160 239 164 258.5 c 128,-1,165
 168 278 168 278 174 295 c 0,166,167
 182 310 182 310 193 321.5 c 128,-1,168
 204 333 204 333 215 333 c 2,169,-1
 1178 333 l 1,170,-1
 1189 276 l 2,171,172
 1191 267 1191 267 1194 254 c 128,-1,173
 1197 241 1197 241 1197 237 c 0,174,175
 1197 220 1197 220 1183 209 c 128,-1,176
 1169 198 1169 198 1149 198 c 2,177,-1
 201 198 l 2,178,179
 184 198 184 198 172 205 c 128,-1,180
 160 212 160 212 160 222 c 0,163,164
915 623 m 0,181,182
 915 612 915 612 910 605 c 128,-1,183
 905 598 905 598 897 598 c 2,184,-1
 675 598 l 2,185,186
 664 598 664 598 657 603.5 c 128,-1,187
 650 609 650 609 650 616 c 0,188,189
 650 631 650 631 656 654 c 2,190,-1
 678 733 l 2,191,192
 682 744 682 744 685 752.5 c 128,-1,193
 688 761 688 761 689 761 c 2,194,-1
 884 761 l 1,195,-1
 902 697 l 1,196,-1
 901 698 l 1,197,198
 907 669 907 669 911 650 c 128,-1,199
 915 631 915 631 915 623 c 0,181,182
83 136 m 0,200,201
 83 155 83 155 86.5 178 c 128,-1,202
 90 201 90 201 97 230 c 2,203,-1
 127 351 l 2,204,205
 133 370 133 370 149.5 382 c 128,-1,206
 166 394 166 394 186 394 c 2,207,-1
 1179 394 l 1,208,-1
 1097 723 l 2,209,210
 1092 747 1092 747 1073.5 763 c 128,-1,211
 1055 779 1055 779 1031 779 c 2,212,-1
 934 779 l 1,213,-1
 986 573 l 2,214,215
 990 556 990 556 995.5 538.5 c 128,-1,216
 1001 521 1001 521 1001 515 c 0,217,218
 1001 494 1001 494 983.5 480 c 128,-1,219
 966 466 966 466 942 466 c 2,220,-1
 631 466 l 2,221,222
 607 466 607 466 589 482.5 c 128,-1,223
 571 499 571 499 571 522 c 0,224,225
 571 537 571 537 574.5 558.5 c 128,-1,226
 578 580 578 580 586 608 c 2,227,-1
 631 779 l 2,228,229
 636 800 636 800 653 811 c 128,-1,230
 670 822 670 822 689 822 c 2,231,-1
 1060 822 l 2,232,233
 1086 822 1086 822 1106.5 804.5 c 128,-1,234
 1127 787 1127 787 1134 758 c 2,235,-1
 1223 394 l 1,236,-1
 1431 394 l 1,237,-1
 1431 822 l 1,238,-1
 1476 822 l 1,239,-1
 1476 37 l 1,240,-1
 1431 37 l 1,241,-1
 1431 351 l 1,242,-1
 1231 351 l 1,243,-1
 1268 222 l 2,244,245
 1276 203 1276 203 1279 181.5 c 128,-1,246
 1282 160 1282 160 1282 136 c 0,247,248
 1282 95 1282 95 1248 66 c 128,-1,249
 1214 37 1214 37 1164 37 c 2,250,-1
 172 37 l 2,251,252
 135 37 135 37 109 66 c 128,-1,253
 83 95 83 95 83 136 c 0,200,201
141 222 m 0,254,255
 141 205 141 205 158.5 192 c 128,-1,256
 176 179 176 179 201 179 c 2,257,-1
 1149 179 l 2,258,259
 1177 179 1177 179 1196.5 196 c 128,-1,260
 1216 213 1216 213 1216 237 c 0,261,262
 1216 242 1216 242 1213 256.5 c 128,-1,263
 1210 271 1210 271 1208 280 c 2,264,-1
 1194 351 l 1,265,-1
 215 351 l 2,266,267
 197 351 197 351 181.5 337.5 c 128,-1,268
 166 324 166 324 156 301 c 0,269,270
 149 282 149 282 145 262 c 128,-1,271
 141 242 141 242 141 222 c 0,254,255
934 623 m 0,272,273
 934 633 934 633 930.5 652.5 c 128,-1,274
 927 672 927 672 920 702 c 2,275,-1
 897 779 l 1,276,-1
 689 779 l 2,277,278
 683 779 683 779 674.5 768 c 128,-1,279
 666 757 666 757 660 737 c 2,280,-1
 638 659 l 2,281,282
 634 644 634 644 632.5 633.5 c 128,-1,283
 631 623 631 623 631 616 c 0,284,285
 631 601 631 601 643.5 590.5 c 128,-1,286
 656 580 656 580 675 580 c 2,287,-1
 897 580 l 2,288,289
 912 580 912 580 923 592.5 c 128,-1,290
 934 605 934 605 934 623 c 0,272,273
EndSplineSet
EndChar

StartChar: tm_aa
Encoding: 2950 2950 51
Width: 1738
GlyphClass: 2
Flags: W
LayerCount: 2
Fore
SplineSet
1050 531 m 0,0,1
 1050 497 1050 497 1028 473.5 c 128,-1,2
 1006 450 1006 450 972 444 c 1,3,-1
 1143 444 l 1,4,5
 1125 517 1125 517 1106.5 590 c 128,-1,6
 1088 663 1088 663 1071 736 c 0,7,8
 1068 749 1068 749 1060 757 c 128,-1,9
 1052 765 1052 765 1041 765 c 2,10,-1
 993 765 l 1,11,-1
 1034 598 l 2,12,13
 1035 592 1035 592 1037 587 c 256,14,15
 1039 582 1039 582 1039.5 576.5 c 128,-1,16
 1040 571 1040 571 1042 566 c 2,17,-1
 1041 567 l 1,18,19
 1045 556 1045 556 1047.5 547 c 128,-1,20
 1050 538 1050 538 1050 531 c 0,0,1
905 642 m 2,21,22
 905 650 905 650 901 669.5 c 128,-1,23
 897 689 897 689 892 715 c 2,24,-1
 878 765 l 1,25,-1
 697 765 l 2,26,27
 706 763 706 763 703 749 c 1,28,-1
 704 750 l 1,29,-1
 682 669 l 1,30,-1
 682 670 l 2,31,32
 679 657 679 657 677 648.5 c 128,-1,33
 675 640 675 640 675 634 c 1,34,35
 675 635 675 635 682 635 c 2,36,-1
 905 635 l 1,37,-1
 905 642 l 2,21,22
1423 -177 m 1,38,-1
 1439 -197 l 1,39,-1
 1429 -205 l 1,40,-1
 1707 -205 l 2,41,42
 1722 -205 1722 -205 1722 -198 c 0,43,44
 1722 -193 1722 -193 1718.5 -178 c 128,-1,45
 1715 -163 1715 -163 1707 -134 c 2,46,-1
 1662 36 l 2,47,48
 1658 52 1658 52 1656 63 c 128,-1,49
 1654 74 1654 74 1655 74 c 2,50,-1
 1529 74 l 1,51,-1
 1529 -177 l 1,52,-1
 1423 -177 l 1,38,-1
451 -210 m 1,53,54
 452 -205 452 -205 457 -205 c 2,55,-1
 1286 -205 l 1,56,-1
 1251 -163 l 2,57,58
 1221 -133 1221 -133 1199 -133 c 2,59,-1
 466 -133 l 2,60,61
 472 -134 472 -134 462 -162 c 0,62,63
 451 -183 451 -183 451 -210 c 1,53,54
181 229 m 0,64,65
 181 226 181 226 187.5 224 c 128,-1,66
 194 222 194 222 203 222 c 2,67,-1
 1161 222 l 2,68,69
 1173 222 1173 222 1181.5 228.5 c 128,-1,70
 1190 235 1190 235 1190 244 c 0,71,72
 1190 248 1190 248 1187.5 260 c 128,-1,73
 1185 272 1185 272 1183 280 c 2,74,-1
 1175 324 l 1,75,-1
 217 324 l 2,76,77
 212 324 212 324 205.5 316 c 128,-1,78
 199 308 199 308 194 296 c 0,79,80
 181 262 181 262 181 229 c 0,64,65
1228 -13 m 2,81,82
 1258 -13 1258 -13 1287 -29 c 128,-1,83
 1316 -45 1316 -45 1339 -72 c 2,84,-1
 1407 -157 l 1,85,-1
 1407 324 l 1,86,-1
 1294 324 l 1,87,-1
 1318 239 l 1,88,-1
 1316 243 l 2,89,90
 1326 219 1326 219 1330 193.5 c 128,-1,91
 1334 168 1334 168 1334 140 c 0,92,93
 1334 82 1334 82 1286 40 c 0,94,95
 1240 0 1240 0 1176 0 c 2,96,-1
 173 0 l 2,97,98
 147 0 147 0 123.5 11 c 128,-1,99
 100 22 100 22 82.5 41 c 128,-1,100
 65 60 65 60 55 85.5 c 128,-1,101
 45 111 45 111 45 140 c 0,102,103
 45 162 45 162 49 188 c 128,-1,104
 53 214 53 214 60 245 c 2,105,-1
 91 371 l 2,106,107
 100 404 100 404 128 424 c 128,-1,108
 156 444 156 444 188 444 c 2,109,-1
 618 444 l 1,110,111
 585 451 585 451 561.5 477.5 c 128,-1,112
 538 504 538 504 538 538 c 0,113,114
 538 556 538 556 542 581 c 128,-1,115
 546 606 546 606 555 636 c 1,116,-1
 555 635 l 1,117,-1
 600 812 l 2,118,119
 609 847 609 847 636 866 c 128,-1,120
 663 885 663 885 697 885 c 2,121,-1
 1071 885 l 2,122,123
 1111 885 1111 885 1141.5 858.5 c 128,-1,124
 1172 832 1172 832 1183 790 c 2,125,-1
 1267 444 l 1,126,-1
 1407 444 l 1,127,-1
 1407 812 l 1,128,-1
 1529 812 l 1,129,-1
 1529 296 l 1,130,-1
 1655 296 l 2,131,132
 1685 296 1685 296 1712 268 c 128,-1,133
 1739 240 1739 240 1752 194 c 2,134,-1
 1857 -226 l 2,135,136
 1865 -254 1865 -254 1869 -273.5 c 128,-1,137
 1873 -293 1873 -293 1873 -301 c 0,138,139
 1873 -356 1873 -356 1817 -394 c 0,140,141
 1793 -411 1793 -411 1763.5 -419 c 128,-1,142
 1734 -427 1734 -427 1700 -427 c 2,143,-1
 457 -427 l 2,144,145
 401 -427 401 -427 358 -391 c 0,146,147
 338 -374 338 -374 326 -350.5 c 128,-1,148
 314 -327 314 -327 314 -301 c 0,149,150
 314 -269 314 -269 318.5 -239.5 c 128,-1,151
 323 -210 323 -210 331 -180 c 2,152,-1
 361 -84 l 1,153,-1
 360 -85 l 1,154,155
 370 -52 370 -52 400 -32.5 c 128,-1,156
 430 -13 430 -13 472 -13 c 2,157,-1
 1228 -13 l 2,81,82
1510 -158 m 1,158,-1
 1510 92 l 1,159,-1
 1655 92 l 2,160,161
 1661 92 1661 92 1668 78 c 128,-1,162
 1675 64 1675 64 1680 41 c 2,163,-1
 1726 -129 l 2,164,165
 1734 -158 1734 -158 1737.5 -174 c 128,-1,166
 1741 -190 1741 -190 1741 -198 c 0,167,168
 1741 -209 1741 -209 1731 -216 c 128,-1,169
 1721 -223 1721 -223 1707 -223 c 2,170,-1
 1374 -223 l 1,171,-1
 1412 -194 l 1,172,-1
 1325 -84 l 2,173,174
 1304 -60 1304 -60 1279 -46 c 128,-1,175
 1254 -32 1254 -32 1228 -32 c 2,176,-1
 472 -32 l 2,177,178
 437 -32 437 -32 412 -48 c 128,-1,179
 387 -64 387 -64 379 -90 c 2,180,-1
 350 -185 l 2,181,182
 341 -212 341 -212 337 -241 c 128,-1,183
 333 -270 333 -270 333 -301 c 0,184,185
 333 -344 333 -344 371 -377 c 0,186,187
 408 -408 408 -408 457 -408 c 2,188,-1
 1700 -408 l 2,189,190
 1764 -408 1764 -408 1806 -379 c 0,191,192
 1829 -363 1829 -363 1841.5 -343.5 c 128,-1,193
 1854 -324 1854 -324 1854 -301 c 0,194,195
 1854 -293 1854 -293 1850 -275 c 128,-1,196
 1846 -257 1846 -257 1838 -229 c 1,197,-1
 1838 -230 l 1,198,-1
 1733 189 l 2,199,200
 1722 229 1722 229 1700 253 c 128,-1,201
 1678 277 1678 277 1655 277 c 2,202,-1
 1510 277 l 1,203,-1
 1510 793 l 1,204,-1
 1427 793 l 1,205,-1
 1427 425 l 1,206,-1
 1251 425 l 1,207,-1
 1164 786 l 2,208,209
 1155 821 1155 821 1129 843.5 c 128,-1,210
 1103 866 1103 866 1071 866 c 2,211,-1
 697 866 l 2,212,213
 670 866 670 866 648 850.5 c 128,-1,214
 626 835 626 835 619 808 c 2,215,-1
 574 631 l 2,216,217
 566 602 566 602 562 577.5 c 128,-1,218
 558 553 558 553 558 538 c 0,219,220
 558 507 558 507 582 484 c 128,-1,221
 606 461 606 461 637 461 c 2,222,-1
 951 461 l 2,223,224
 984 461 984 461 1007.5 481 c 128,-1,225
 1031 501 1031 501 1031 531 c 0,226,227
 1031 540 1031 540 1023 562 c 1,228,-1
 1023 561 l 2,229,230
 1021 569 1021 569 1018.5 579 c 128,-1,231
 1016 589 1016 589 1015 594 c 2,232,-1
 968 784 l 1,233,-1
 1041 784 l 2,234,235
 1058 784 1058 784 1071.5 771.5 c 128,-1,236
 1085 759 1085 759 1089 740 c 0,237,238
 1108 662 1108 662 1128 583 c 128,-1,239
 1148 504 1148 504 1167 425 c 1,240,-1
 188 425 l 2,241,242
 161 425 161 425 139 409 c 128,-1,243
 117 393 117 393 109 366 c 2,244,-1
 79 240 l 2,245,246
 72 211 72 211 68 186.5 c 128,-1,247
 64 162 64 162 64 140 c 0,248,249
 64 115 64 115 72.5 93 c 128,-1,250
 81 71 81 71 96 54.5 c 128,-1,251
 111 38 111 38 130.5 28.5 c 128,-1,252
 150 19 150 19 173 19 c 2,253,-1
 1176 19 l 2,254,255
 1233 19 1233 19 1273 54 c 0,256,257
 1314 89 1314 89 1314 140 c 0,258,259
 1314 166 1314 166 1311 190 c 128,-1,260
 1308 214 1308 214 1299 236 c 1,261,-1
 1299 234 l 1,262,-1
 1268 343 l 1,263,-1
 1427 343 l 1,264,-1
 1427 -158 l 1,265,-1
 1510 -158 l 1,158,-1
162 229 m 0,266,267
 162 247 162 247 166 266.5 c 128,-1,268
 170 286 170 286 176 303 c 0,269,270
 184 319 184 319 195 331 c 128,-1,271
 206 343 206 343 217 343 c 2,272,-1
 1190 343 l 1,273,-1
 1201 285 l 2,274,275
 1203 275 1203 275 1206 261.5 c 128,-1,276
 1209 248 1209 248 1209 244 c 0,277,278
 1209 227 1209 227 1195 215.5 c 128,-1,279
 1181 204 1181 204 1161 204 c 2,280,-1
 203 204 l 2,281,282
 186 204 186 204 174 211.5 c 128,-1,283
 162 219 162 219 162 229 c 0,266,267
432 -213 m 0,284,285
 432 -180 432 -180 445 -154 c 0,286,287
 463 -114 463 -114 465 -114 c 2,288,-1
 1199 -114 l 2,289,290
 1215 -114 1215 -114 1232.5 -124.5 c 128,-1,291
 1250 -135 1250 -135 1267 -153 c 1,292,-1
 1267 -152 l 1,293,-1
 1326 -223 l 1,294,-1
 457 -223 l 2,295,296
 447 -223 447 -223 439.5 -220.5 c 128,-1,297
 432 -218 432 -218 432 -213 c 0,284,285
925 642 m 0,298,299
 925 631 925 631 919.5 623.5 c 128,-1,300
 914 616 914 616 906 616 c 2,301,-1
 682 616 l 2,302,303
 671 616 671 616 663.5 621.5 c 128,-1,304
 656 627 656 627 656 634 c 0,305,306
 656 642 656 642 658 652 c 128,-1,307
 660 662 660 662 663 674 c 2,308,-1
 685 755 l 2,309,310
 689 766 689 766 692 775 c 128,-1,311
 695 784 695 784 697 784 c 2,312,-1
 893 784 l 1,313,-1
 911 718 l 1,314,-1
 910 719 l 1,315,316
 917 689 917 689 921 669.5 c 128,-1,317
 925 650 925 650 925 642 c 0,298,299
1446 -139 m 1,318,-1
 1446 362 l 1,319,-1
 1244 362 l 1,320,-1
 1281 229 l 2,321,322
 1289 209 1289 209 1292 187 c 128,-1,323
 1295 165 1295 165 1295 140 c 0,324,325
 1295 98 1295 98 1260.5 68 c 128,-1,326
 1226 38 1226 38 1176 38 c 2,327,-1
 173 38 l 2,328,329
 136 38 136 38 109.5 68 c 128,-1,330
 83 98 83 98 83 140 c 0,331,332
 83 159 83 159 87 183 c 128,-1,333
 91 207 91 207 98 237 c 2,334,-1
 128 362 l 2,335,336
 134 382 134 382 151 394 c 128,-1,337
 168 406 168 406 188 406 c 2,338,-1
 1191 406 l 1,339,-1
 1108 745 l 2,340,341
 1103 770 1103 770 1084 786.5 c 128,-1,342
 1065 803 1065 803 1041 803 c 2,343,-1
 944 803 l 1,344,-1
 996 590 l 2,345,346
 1000 573 1000 573 1006 554.5 c 128,-1,347
 1012 536 1012 536 1012 531 c 0,348,349
 1012 509 1012 509 994 494.5 c 128,-1,350
 976 480 976 480 951 480 c 2,351,-1
 637 480 l 2,352,353
 613 480 613 480 595 497.5 c 128,-1,354
 577 515 577 515 577 538 c 0,355,356
 577 553 577 553 580.5 575.5 c 128,-1,357
 584 598 584 598 592 627 c 2,358,-1
 637 803 l 2,359,360
 643 824 643 824 659.5 835.5 c 128,-1,361
 676 847 676 847 697 847 c 2,362,-1
 1071 847 l 2,363,364
 1097 847 1097 847 1117.5 829 c 128,-1,365
 1138 811 1138 811 1146 781 c 2,366,-1
 1236 406 l 1,367,-1
 1446 406 l 1,368,-1
 1446 774 l 1,369,-1
 1491 774 l 1,370,-1
 1491 258 l 1,371,-1
 1655 258 l 2,372,373
 1672 258 1672 258 1688.5 238 c 128,-1,374
 1705 218 1705 218 1715 185 c 2,375,-1
 1819 -235 l 2,376,377
 1827 -260 1827 -260 1831 -277 c 128,-1,378
 1835 -294 1835 -294 1835 -301 c 0,379,380
 1835 -337 1835 -337 1795.5 -363 c 128,-1,381
 1756 -389 1756 -389 1700 -389 c 2,382,-1
 457 -389 l 2,383,384
 415 -389 415 -389 384 -363 c 128,-1,385
 353 -337 353 -337 353 -301 c 0,386,387
 353 -271 353 -271 356.5 -244 c 128,-1,388
 360 -217 360 -217 368 -190 c 2,389,-1
 398 -95 l 2,390,391
 403 -74 403 -74 424 -62.5 c 128,-1,392
 445 -51 445 -51 472 -51 c 2,393,-1
 1228 -51 l 2,394,395
 1249 -51 1249 -51 1270.5 -62.5 c 128,-1,396
 1292 -74 1292 -74 1311 -95 c 2,397,-1
 1385 -190 l 1,398,-1
 1348 -220 l 1,399,-1
 1281 -139 l 2,400,401
 1262 -119 1262 -119 1240.5 -107 c 128,-1,402
 1219 -95 1219 -95 1199 -95 c 2,403,-1
 465 -95 l 2,404,405
 457 -95 457 -95 448 -108 c 128,-1,406
 439 -121 439 -121 427 -146 c 0,407,408
 420 -163 420 -163 416.5 -179.5 c 128,-1,409
 413 -196 413 -196 413 -213 c 0,410,411
 413 -225 413 -225 426 -233.5 c 128,-1,412
 439 -242 439 -242 457 -242 c 2,413,-1
 1707 -242 l 2,414,415
 1730 -242 1730 -242 1745 -229.5 c 128,-1,416
 1760 -217 1760 -217 1760 -198 c 0,417,418
 1760 -189 1760 -189 1756 -172.5 c 128,-1,419
 1752 -156 1752 -156 1745 -124 c 2,420,-1
 1700 45 l 2,421,422
 1693 74 1693 74 1680.5 92.5 c 128,-1,423
 1668 111 1668 111 1655 111 c 2,424,-1
 1491 111 l 1,425,-1
 1491 -139 l 1,426,-1
 1446 -139 l 1,318,-1
143 229 m 0,427,428
 143 211 143 211 160.5 198 c 128,-1,429
 178 185 178 185 203 185 c 2,430,-1
 1161 185 l 2,431,432
 1189 185 1189 185 1208.5 202.5 c 128,-1,433
 1228 220 1228 220 1228 244 c 0,434,435
 1228 250 1228 250 1225 264.5 c 128,-1,436
 1222 279 1222 279 1221 288 c 2,437,-1
 1206 362 l 1,438,-1
 217 362 l 2,439,440
 199 362 199 362 183.5 348 c 128,-1,441
 168 334 168 334 158 310 c 0,442,443
 150 290 150 290 146.5 270 c 128,-1,444
 143 250 143 250 143 229 c 0,427,428
944 642 m 0,445,446
 944 652 944 652 940 672.5 c 128,-1,447
 936 693 936 693 929 723 c 2,448,-1
 906 803 l 1,449,-1
 697 803 l 2,450,451
 690 803 690 803 681.5 791 c 128,-1,452
 673 779 673 779 667 760 c 2,453,-1
 645 679 l 2,454,455
 641 664 641 664 639 653 c 128,-1,456
 637 642 637 642 637 634 c 0,457,458
 637 619 637 619 650 608.5 c 128,-1,459
 663 598 663 598 682 598 c 2,460,-1
 906 598 l 2,461,462
 922 598 922 598 933 610.5 c 128,-1,463
 944 623 944 623 944 642 c 0,445,446
EndSplineSet
EndChar

StartChar: tm_i
Encoding: 2951 2951 52
Width: 1306
GlyphClass: 2
Flags: W
LayerCount: 2
Fore
SplineSet
128 -35 m 1,0,-1
 129 -34 l 1,1,-1
 128 -35 l 1,0,-1
603 2 m 1,2,-1
 732 178 l 1,3,-1
 491 178 l 1,4,-1
 603 2 l 1,2,-1
533 531 m 2,5,6
 531 521 531 521 529.5 515 c 128,-1,7
 528 509 528 509 528 506 c 1,8,9
 528 507 528 507 534 507 c 2,10,-1
 726 507 l 2,11,12
 732 507 732 507 732 514 c 2,13,-1
 732 699 l 1,14,-1
 578 699 l 2,15,16
 575 699 575 699 570 681 c 1,17,-1
 570 683 l 1,18,-1
 541 564 l 1,19,-1
 532 529 l 1,20,-1
 533 531 l 2,5,6
670 -103 m 1,21,22
 684 -117 684 -117 696 -117 c 2,23,-1
 962 -117 l 2,24,25
 977 -117 977 -117 987.5 -109 c 128,-1,26
 998 -101 998 -101 998 -89 c 0,27,28
 998 -80 998 -80 994 -65 c 2,29,-1
 984 -29 l 1,30,-1
 985 -32 l 2,31,32
 971 16 971 16 955.5 64.5 c 128,-1,33
 940 113 940 113 926 162 c 0,34,35
 922 178 922 178 918 178 c 2,36,-1
 877 178 l 1,37,-1
 670 -103 l 1,21,22
114 -96 m 0,38,39
 114 -105 114 -105 120.5 -111 c 128,-1,40
 127 -117 127 -117 136 -117 c 2,41,-1
 504 -117 l 2,42,43
 519 -117 519 -117 527 -106 c 1,44,45
 480 -33 480 -33 435.5 35 c 128,-1,46
 391 103 391 103 343 178 c 1,47,-1
 179 178 l 2,48,49
 180 178 180 178 178.5 170 c 128,-1,50
 177 162 177 162 173 148 c 0,51,52
 162 102 162 102 150.5 56 c 128,-1,53
 139 10 139 10 128 -37 c 1,54,-1
 128 -35 l 2,55,56
 127 -39 127 -39 125.5 -48 c 128,-1,57
 124 -57 124 -57 119 -72 c 0,58,59
 116 -81 116 -81 115 -86.5 c 128,-1,60
 114 -92 114 -92 114 -96 c 0,38,39
-20 -200 m 0,61,62
 -20 -137 -20 -137 -5 -80 c 2,63,-1
 55 166 l 2,64,65
 71 226 71 226 101.5 262.5 c 128,-1,66
 132 299 132 299 165 299 c 2,67,-1
 273 299 l 1,68,69
 265 312 265 312 258.5 322 c 128,-1,70
 252 332 252 332 244 345 c 1,71,-1
 245 345 l 1,72,73
 209 397 209 397 209 440 c 0,74,75
 209 458 209 458 214.5 488 c 128,-1,76
 220 518 220 518 232 562 c 1,77,-1
 231 560 l 1,78,-1
 372 1147 l 2,79,80
 382 1186 382 1186 415.5 1211 c 128,-1,81
 449 1236 449 1236 490 1236 c 2,82,-1
 1139 1236 l 2,83,84
 1163 1236 1163 1236 1183 1227.5 c 128,-1,85
 1203 1219 1203 1219 1218 1204 c 128,-1,86
 1233 1189 1233 1189 1241.5 1168.5 c 128,-1,87
 1250 1148 1250 1148 1250 1124 c 2,88,-1
 1250 261 l 2,89,90
 1250 246 1250 246 1276 235.5 c 128,-1,91
 1302 225 1302 225 1339 225 c 1,92,-1
 1339 0 l 1,93,-1
 1130 0 l 1,94,-1
 1130 1109 l 2,95,96
 1130 1113 1130 1113 1136 1115 c 2,97,-1
 490 1115 l 2,98,99
 486 1115 486 1115 480 1098.5 c 128,-1,100
 474 1082 474 1082 467 1055 c 0,101,102
 438 928 438 928 408 803 c 128,-1,103
 378 678 378 678 349 550 c 2,104,-1
 337 502 l 2,105,106
 332 483 332 483 330.5 471.5 c 128,-1,107
 329 460 329 460 329 454 c 0,108,109
 329 443 329 443 332.5 431.5 c 128,-1,110
 336 420 336 420 344 409 c 2,111,-1
 415 299 l 1,112,-1
 816 299 l 1,113,-1
 857 357 l 2,114,115
 880 391 880 391 880 410 c 2,116,-1
 880 692 l 2,117,118
 880 699 880 699 874 699 c 2,119,-1
 852 699 l 1,120,-1
 852 484 l 2,121,122
 852 464 852 464 844 446 c 128,-1,123
 836 428 836 428 823 414.5 c 128,-1,124
 810 401 810 401 792.5 393.5 c 128,-1,125
 775 386 775 386 756 386 c 2,126,-1
 504 386 l 2,127,128
 483 386 483 386 464 394.5 c 128,-1,129
 445 403 445 403 430.5 418.5 c 128,-1,130
 416 434 416 434 408 454.5 c 128,-1,131
 400 475 400 475 400 499 c 0,132,133
 400 517 400 517 404 540 c 128,-1,134
 408 563 408 563 416 590 c 2,135,-1
 453 725 l 2,136,137
 465 767 465 767 495.5 793 c 128,-1,138
 526 819 526 819 564 819 c 2,139,-1
 918 819 l 2,140,141
 934 819 934 819 949 811 c 128,-1,142
 964 803 964 803 975 790 c 128,-1,143
 986 777 986 777 993 759 c 128,-1,144
 1000 741 1000 741 1000 722 c 2,145,-1
 1000 395 l 2,146,147
 1000 356 1000 356 971 313 c 2,148,-1
 958 294 l 1,149,150
 981 285 981 285 1001 262 c 128,-1,151
 1021 239 1021 239 1034 207 c 2,152,-1
 1116 -62 l 1,153,-1
 1116 -61 l 1,154,155
 1131 -105 1131 -105 1139 -136 c 128,-1,156
 1147 -167 1147 -167 1147 -185 c 0,157,158
 1147 -248 1147 -248 1107 -294 c 0,159,160
 1064 -342 1064 -342 1006 -342 c 2,161,-1
 740 -342 l 2,162,163
 711 -342 711 -342 681.5 -322 c 128,-1,164
 652 -302 652 -302 627 -266 c 2,165,-1
 590 -209 l 1,166,167
 579 -224 579 -224 570 -238 c 128,-1,168
 561 -252 561 -252 550 -266 c 1,169,-1
 552 -265 l 1,170,171
 529 -301 529 -301 497.5 -321.5 c 128,-1,172
 466 -342 466 -342 431 -342 c 2,173,-1
 121 -342 l 2,174,175
 92 -342 92 -342 66 -331 c 128,-1,176
 40 -320 40 -320 21 -300.5 c 128,-1,177
 2 -281 2 -281 -9 -255 c 128,-1,178
 -20 -229 -20 -229 -20 -200 c 0,61,62
-1 -200 m 0,179,180
 -1 -225 -1 -225 8.5 -247.5 c 128,-1,181
 18 -270 18 -270 34.5 -286.5 c 128,-1,182
 51 -303 51 -303 73.5 -313 c 128,-1,183
 96 -323 96 -323 121 -323 c 2,184,-1
 431 -323 l 2,185,186
 461 -323 461 -323 488 -304.5 c 128,-1,187
 515 -286 515 -286 535 -254 c 1,188,-1
 535 -256 l 1,189,190
 549 -235 549 -235 562.5 -215 c 128,-1,191
 576 -195 576 -195 591 -174 c 1,192,-1
 643 -255 l 2,193,194
 665 -287 665 -287 690 -305 c 128,-1,195
 715 -323 715 -323 740 -323 c 2,196,-1
 1006 -323 l 2,197,198
 1055 -323 1055 -323 1093 -282 c 1,199,-1
 1093 -283 l 1,200,201
 1129 -242 1129 -242 1129 -185 c 0,202,203
 1129 -168 1129 -168 1121 -138.5 c 128,-1,204
 1113 -109 1113 -109 1098 -67 c 1,205,-1
 1098 -68 l 1,206,-1
 1017 200 l 2,207,208
 1003 235 1003 235 980 257.5 c 128,-1,209
 957 280 957 280 932 280 c 2,210,-1
 924 280 l 1,211,-1
 955 325 l 2,212,213
 981 363 981 363 981 395 c 2,214,-1
 981 722 l 2,215,216
 981 754 981 754 962.5 777 c 128,-1,217
 944 800 944 800 918 800 c 2,218,-1
 564 800 l 2,219,220
 533 800 533 800 508 777.5 c 128,-1,221
 483 755 483 755 472 720 c 2,222,-1
 434 585 l 2,223,224
 427 558 427 558 423 536.5 c 128,-1,225
 419 515 419 515 419 499 c 0,226,227
 419 479 419 479 425.5 462 c 128,-1,228
 432 445 432 445 443.5 432 c 128,-1,229
 455 419 455 419 470.5 412 c 128,-1,230
 486 405 486 405 504 405 c 2,231,-1
 756 405 l 2,232,233
 771 405 771 405 785 411.5 c 128,-1,234
 799 418 799 418 809.5 428.5 c 128,-1,235
 820 439 820 439 826.5 453.5 c 128,-1,236
 833 468 833 468 833 484 c 2,237,-1
 833 718 l 1,238,-1
 874 718 l 2,239,240
 884 718 884 718 891.5 710.5 c 128,-1,241
 899 703 899 703 899 692 c 2,242,-1
 899 410 l 2,243,244
 899 383 899 383 873 345 c 2,245,-1
 827 280 l 1,246,-1
 405 280 l 1,247,-1
 330 396 l 2,248,249
 319 410 319 410 314.5 425 c 128,-1,250
 310 440 310 440 310 454 c 0,251,252
 310 467 310 467 318 505 c 2,253,-1
 331 554 l 1,254,255
 359 679 359 679 389.5 807 c 128,-1,256
 420 935 420 935 449 1059 c 0,257,258
 457 1091 457 1091 468 1112.5 c 128,-1,259
 479 1134 479 1134 490 1134 c 2,260,-1
 1139 1134 l 2,261,262
 1149 1134 1149 1134 1149 1109 c 2,263,-1
 1149 19 l 1,264,-1
 1320 19 l 1,265,-1
 1320 206 l 1,266,267
 1283 206 1283 206 1257.5 221.5 c 128,-1,268
 1232 237 1232 237 1232 261 c 2,269,-1
 1232 1124 l 2,270,271
 1232 1163 1232 1163 1205 1190 c 128,-1,272
 1178 1217 1178 1217 1139 1217 c 2,273,-1
 490 1217 l 2,274,275
 456 1217 456 1217 427.5 1196.5 c 128,-1,276
 399 1176 399 1176 391 1143 c 2,277,-1
 250 556 l 1,278,-1
 250 557 l 1,279,280
 238 516 238 516 233 487 c 128,-1,281
 228 458 228 458 228 440 c 256,282,283
 228 422 228 422 236.5 400 c 128,-1,284
 245 378 245 378 260 355 c 2,285,-1
 307 280 l 1,286,-1
 165 280 l 2,287,288
 138 280 138 280 113 247.5 c 128,-1,289
 88 215 88 215 74 162 c 2,290,-1
 14 -84 l 1,291,-1
 14 -83 l 1,292,293
 6 -110 6 -110 2.5 -139.5 c 128,-1,294
 -1 -169 -1 -169 -1 -200 c 0,179,180
95 -96 m 0,295,296
 95 -88 95 -88 101 -68 c 0,297,298
 110 -40 110 -40 110 -31 c 2,299,-1
 110 -32 l 1,300,301
 121 15 121 15 132 60.5 c 128,-1,302
 143 106 143 106 154 153 c 1,303,-1
 154 152 l 1,304,305
 159 172 159 172 166 184.5 c 128,-1,306
 173 197 173 197 179 197 c 2,307,-1
 354 197 l 1,308,-1
 549 -105 l 1,309,310
 533 -136 533 -136 504 -136 c 2,311,-1
 136 -136 l 2,312,313
 119 -136 119 -136 107 -124 c 128,-1,314
 95 -112 95 -112 95 -96 c 0,295,296
868 197 m 1,315,-1
 918 197 l 2,316,317
 926 197 926 197 933.5 189 c 128,-1,318
 941 181 941 181 944 167 c 0,319,320
 958 118 958 118 973.5 69.5 c 128,-1,321
 989 21 989 21 1003 -28 c 2,322,-1
 1002 -25 l 2,323,324
 1003 -29 1003 -29 1005 -37.5 c 128,-1,325
 1007 -46 1007 -46 1011 -60 c 0,326,327
 1017 -80 1017 -80 1017 -89 c 0,328,329
 1017 -109 1017 -109 1001.5 -122.5 c 128,-1,330
 986 -136 986 -136 962 -136 c 2,331,-1
 696 -136 l 2,332,333
 684 -136 684 -136 670 -127 c 128,-1,334
 656 -118 656 -118 645 -104 c 1,335,-1
 868 197 l 1,315,-1
509 506 m 0,336,337
 509 511 509 511 510.5 518 c 128,-1,338
 512 525 512 525 514 535 c 2,339,-1
 514 534 l 1,340,-1
 523 570 l 1,341,-1
 522 568 l 1,342,-1
 552 687 l 2,343,344
 556 701 556 701 563 709.5 c 128,-1,345
 570 718 570 718 578 718 c 2,346,-1
 751 718 l 1,347,-1
 751 514 l 2,348,349
 751 503 751 503 743.5 495.5 c 128,-1,350
 736 488 736 488 726 488 c 2,351,-1
 534 488 l 2,352,353
 523 488 523 488 516 493.5 c 128,-1,354
 509 499 509 499 509 506 c 0,336,337
457 197 m 1,355,-1
 770 197 l 1,356,-1
 603 -31 l 1,357,-1
 457 197 l 1,355,-1
18 -200 m 0,358,359
 18 -170 18 -170 21.5 -142 c 128,-1,360
 25 -114 25 -114 32 -89 c 2,361,-1
 92 157 l 2,362,363
 104 204 104 204 124 232.5 c 128,-1,364
 144 261 144 261 165 261 c 2,365,-1
 342 261 l 1,366,-1
 276 365 l 2,367,368
 261 387 261 387 253.5 405.5 c 128,-1,369
 246 424 246 424 246 440 c 256,370,371
 246 456 246 456 251.5 484 c 128,-1,372
 257 512 257 512 268 551 c 2,373,-1
 409 1138 l 2,374,375
 416 1165 416 1165 439 1181.5 c 128,-1,376
 462 1198 462 1198 490 1198 c 2,377,-1
 1139 1198 l 2,378,379
 1170 1198 1170 1198 1191.5 1176.5 c 128,-1,380
 1213 1155 1213 1155 1213 1124 c 2,381,-1
 1213 261 l 2,382,383
 1213 229 1213 229 1239 208 c 128,-1,384
 1265 187 1265 187 1301 187 c 1,385,-1
 1301 38 l 1,386,-1
 1168 38 l 1,387,-1
 1168 1109 l 2,388,389
 1168 1128 1168 1128 1160 1141 c 128,-1,390
 1152 1154 1152 1154 1139 1154 c 2,391,-1
 490 1154 l 2,392,393
 473 1154 473 1154 456.5 1128.5 c 128,-1,394
 440 1103 440 1103 431 1064 c 2,395,-1
 313 559 l 2,396,397
 311 551 311 551 301 510 c 128,-1,398
 291 469 291 469 291 454 c 0,399,400
 291 438 291 438 296 420.5 c 128,-1,401
 301 403 301 403 313 387 c 2,402,-1
 394 261 l 1,403,-1
 837 261 l 1,404,-1
 888 335 l 2,405,406
 903 356 903 356 910.5 374.5 c 128,-1,407
 918 393 918 393 918 410 c 2,408,-1
 918 692 l 2,409,410
 918 711 918 711 905 724 c 128,-1,411
 892 737 892 737 874 737 c 2,412,-1
 814 737 l 1,413,-1
 814 484 l 2,414,415
 814 460 814 460 796.5 442 c 128,-1,416
 779 424 779 424 756 424 c 2,417,-1
 504 424 l 2,418,419
 477 424 477 424 457.5 445.5 c 128,-1,420
 438 467 438 467 438 499 c 0,421,422
 438 514 438 514 442 534.5 c 128,-1,423
 446 555 446 555 452 581 c 2,424,-1
 490 715 l 2,425,426
 499 744 499 744 519 762.5 c 128,-1,427
 539 781 539 781 564 781 c 2,428,-1
 918 781 l 2,429,430
 936 781 936 781 949 763.5 c 128,-1,431
 962 746 962 746 962 722 c 2,432,-1
 962 395 l 2,433,434
 962 382 962 382 956.5 367 c 128,-1,435
 951 352 951 352 940 335 c 2,436,-1
 888 261 l 1,437,-1
 932 261 l 2,438,439
 951 261 951 261 969.5 242.5 c 128,-1,440
 988 224 988 224 999 194 c 2,441,-1
 1080 -73 l 2,442,443
 1095 -114 1095 -114 1102.5 -142 c 128,-1,444
 1110 -170 1110 -170 1110 -185 c 0,445,446
 1110 -235 1110 -235 1079 -269.5 c 128,-1,447
 1048 -304 1048 -304 1006 -304 c 2,448,-1
 740 -304 l 2,449,450
 721 -304 721 -304 699.5 -288 c 128,-1,451
 678 -272 678 -272 659 -245 c 2,452,-1
 593 -141 l 1,453,-1
 519 -245 l 2,454,455
 502 -272 502 -272 479 -288 c 128,-1,456
 456 -304 456 -304 431 -304 c 2,457,-1
 121 -304 l 2,458,459
 78 -304 78 -304 48 -273.5 c 128,-1,460
 18 -243 18 -243 18 -200 c 0,358,359
76 -96 m 0,461,462
 76 -120 76 -120 93.5 -137.5 c 128,-1,463
 111 -155 111 -155 136 -155 c 2,464,-1
 504 -155 l 2,465,466
 527 -155 527 -155 544.5 -141.5 c 128,-1,467
 562 -128 562 -128 570 -103 c 1,468,-1
 365 216 l 1,469,-1
 179 216 l 2,470,471
 167 216 167 216 155 199.5 c 128,-1,472
 143 183 143 183 136 157 c 2,473,-1
 92 -29 l 2,474,475
 90 -38 90 -38 83 -62.5 c 128,-1,476
 76 -87 76 -87 76 -96 c 0,461,462
622 -103 m 1,477,478
 637 -128 637 -128 656.5 -141.5 c 128,-1,479
 676 -155 676 -155 696 -155 c 2,480,-1
 962 -155 l 2,481,482
 994 -155 994 -155 1015 -135.5 c 128,-1,483
 1036 -116 1036 -116 1036 -89 c 0,484,485
 1036 -79 1036 -79 1029.5 -54.5 c 128,-1,486
 1023 -30 1023 -30 1021 -22 c 2,487,-1
 962 172 l 2,488,489
 957 192 957 192 944.5 204 c 128,-1,490
 932 216 932 216 918 216 c 2,491,-1
 858 216 l 1,492,-1
 622 -103 l 1,477,478
601 -66 m 1,493,-1
 807 216 l 1,494,-1
 423 216 l 1,495,-1
 601 -66 l 1,493,-1
490 506 m 0,496,497
 490 492 490 492 503 480.5 c 128,-1,498
 516 469 516 469 534 469 c 2,499,-1
 726 469 l 2,500,501
 744 469 744 469 757 482 c 128,-1,502
 770 495 770 495 770 514 c 2,503,-1
 770 737 l 1,504,-1
 578 737 l 2,505,506
 564 737 564 737 551.5 725 c 128,-1,507
 539 713 539 713 534 692 c 2,508,-1
 504 573 l 2,509,510
 502 564 502 564 496 540 c 128,-1,511
 490 516 490 516 490 506 c 0,496,497
EndSplineSet
EndChar

StartChar: tm_ii
Encoding: 2952 2952 53
Width: 716
GlyphClass: 2
Flags: W
LayerCount: 2
Fore
SplineSet
104 0 m 1,0,-1
 104 781 l 1,1,-1
 760 781 l 1,2,-1
 760 666 l 1,3,-1
 552 666 l 1,4,-1
 552 554 l 1,5,-1
 760 554 l 1,6,-1
 760 340 l 1,7,-1
 552 340 l 1,8,-1
 552 249 l 2,9,10
 552 234 552 234 576 224 c 128,-1,11
 600 214 600 214 635 214 c 1,12,-1
 635 0 l 1,13,-1
 439 0 l 1,14,-1
 439 340 l 1,15,-1
 230 340 l 1,16,-1
 230 554 l 1,17,-1
 439 554 l 1,18,-1
 439 666 l 1,19,-1
 217 666 l 1,20,-1
 217 249 l 2,21,22
 217 234 217 234 241.5 224 c 128,-1,23
 266 214 266 214 301 214 c 1,24,-1
 301 0 l 1,25,-1
 104 0 l 1,0,-1
283 18 m 1,26,-1
 283 196 l 1,27,28
 248 196 248 196 224 211 c 128,-1,29
 200 226 200 226 200 249 c 2,30,-1
 200 684 l 1,31,-1
 456 684 l 1,32,-1
 456 18 l 1,33,-1
 618 18 l 1,34,-1
 618 196 l 1,35,36
 583 196 583 196 558.5 211 c 128,-1,37
 534 226 534 226 534 249 c 2,38,-1
 534 684 l 1,39,-1
 742 684 l 1,40,-1
 742 763 l 1,41,-1
 122 763 l 1,42,-1
 122 18 l 1,43,-1
 283 18 l 1,26,-1
742 358 m 1,44,-1
 742 536 l 1,45,-1
 568 536 l 1,46,-1
 568 358 l 1,47,-1
 742 358 l 1,44,-1
422 358 m 1,48,-1
 422 536 l 1,49,-1
 248 536 l 1,50,-1
 248 358 l 1,51,-1
 422 358 l 1,48,-1
140 36 m 1,52,-1
 140 745 l 1,53,-1
 725 745 l 1,54,-1
 725 702 l 1,55,-1
 516 702 l 1,56,-1
 516 249 l 2,57,58
 516 219 516 219 540.5 198.5 c 128,-1,59
 565 178 565 178 600 178 c 1,60,-1
 600 36 l 1,61,-1
 474 36 l 1,62,-1
 474 702 l 1,63,-1
 182 702 l 1,64,-1
 182 249 l 2,65,66
 182 219 182 219 206.5 198.5 c 128,-1,67
 231 178 231 178 266 178 c 1,68,-1
 266 36 l 1,69,-1
 140 36 l 1,52,-1
266 376 m 1,70,-1
 266 518 l 1,71,-1
 405 518 l 1,72,-1
 405 376 l 1,73,-1
 266 376 l 1,70,-1
586 376 m 1,74,-1
 586 518 l 1,75,-1
 725 518 l 1,76,-1
 725 376 l 1,77,-1
 586 376 l 1,74,-1
EndSplineSet
EndChar

StartChar: tm_u
Encoding: 2953 2953 54
Width: 1425
GlyphClass: 2
Flags: W
LayerCount: 2
Fore
SplineSet
255 557 m 1,0,1
 242 520 242 520 242 498 c 1,2,-1
 419 498 l 2,3,4
 428 498 428 498 434 504 c 128,-1,5
 440 510 440 510 440 518 c 2,6,-1
 440 666 l 1,7,-1
 286 666 l 2,8,9
 288 664 288 664 286.5 654.5 c 128,-1,10
 285 645 285 645 281 633 c 0,11,12
 273 609 273 609 265.5 587 c 128,-1,13
 258 565 258 565 255 556 c 2,14,-1
 255 557 l 1,0,1
41 129 m 0,15,16
 41 134 41 134 42.5 144 c 128,-1,17
 44 154 44 154 49 168 c 1,18,-1
 49 167 l 1,19,-1
 58 195 l 1,20,-1
 57 195 l 1,21,-1
 86 295 l 2,22,23
 98 327 98 327 123 348.5 c 128,-1,24
 148 370 148 370 182 370 c 2,25,-1
 582 370 l 2,26,27
 591 370 591 370 597 372 c 128,-1,28
 603 374 603 374 603 376 c 2,29,-1
 603 659 l 2,30,31
 603 666 603 666 597 666 c 2,32,-1
 561 666 l 1,33,-1
 561 475 l 2,34,35
 561 457 561 457 552.5 440 c 128,-1,36
 544 423 544 423 529 410.5 c 128,-1,37
 514 398 514 398 493.5 390.5 c 128,-1,38
 473 383 473 383 449 383 c 2,39,-1
 226 383 l 2,40,41
 202 383 202 383 182 390.5 c 128,-1,42
 162 398 162 398 147 411.5 c 128,-1,43
 132 425 132 425 123.5 443.5 c 128,-1,44
 115 462 115 462 115 483 c 0,45,46
 115 488 115 488 116.5 498 c 128,-1,47
 118 508 118 508 123 522 c 2,48,-1
 132 550 l 1,49,-1
 131 550 l 1,50,-1
 175 698 l 2,51,52
 180 716 180 716 190 731.5 c 128,-1,53
 200 747 200 747 213 758 c 128,-1,54
 226 769 226 769 241 775 c 128,-1,55
 256 781 256 781 271 781 c 2,56,-1
 597 781 l 2,57,58
 623 781 623 781 646 771.5 c 128,-1,59
 669 762 669 762 686.5 745.5 c 128,-1,60
 704 729 704 729 714 707 c 128,-1,61
 724 685 724 685 724 659 c 2,62,-1
 724 376 l 2,63,64
 724 351 724 351 712.5 329 c 128,-1,65
 701 307 701 307 681.5 290.5 c 128,-1,66
 662 274 662 274 636.5 264.5 c 128,-1,67
 611 255 611 255 582 255 c 2,68,-1
 197 255 l 2,69,70
 184 255 184 255 182 248 c 0,71,72
 179 235 179 235 177 226.5 c 128,-1,73
 175 218 175 218 175 213 c 1,74,75
 175 214 175 214 182 214 c 2,76,-1
 1478 214 l 1,77,-1
 1478 0 l 1,78,-1
 197 0 l 2,79,80
 133 0 133 0 88 34 c 0,81,82
 41 73 41 73 41 129 c 0,15,16
60 129 m 0,83,84
 60 81 60 81 100 48 c 0,85,86
 141 18 141 18 197 18 c 2,87,-1
 1459 18 l 1,88,-1
 1459 196 l 1,89,-1
 182 196 l 2,90,91
 172 196 172 196 164 201 c 128,-1,92
 156 206 156 206 156 213 c 256,93,94
 156 220 156 220 158 229.5 c 128,-1,95
 160 239 160 239 163 251 c 0,96,97
 165 262 165 262 174.5 267.5 c 128,-1,98
 184 273 184 273 197 273 c 2,99,-1
 582 273 l 2,100,101
 607 273 607 273 629.5 281 c 128,-1,102
 652 289 652 289 668.5 303 c 128,-1,103
 685 317 685 317 695 336 c 128,-1,104
 705 355 705 355 705 376 c 2,105,-1
 705 659 l 2,106,107
 705 681 705 681 696.5 700 c 128,-1,108
 688 719 688 719 673 733 c 128,-1,109
 658 747 658 747 638.5 755 c 128,-1,110
 619 763 619 763 597 763 c 2,111,-1
 271 763 l 2,112,113
 248 763 248 763 225.5 742.5 c 128,-1,114
 203 722 203 722 194 693 c 2,115,-1
 150 544 l 1,116,-1
 150 545 l 1,117,-1
 141 517 l 2,118,119
 137 506 137 506 135.5 496 c 128,-1,120
 134 486 134 486 134 483 c 0,121,122
 134 448 134 448 160.5 424.5 c 128,-1,123
 187 401 187 401 226 401 c 2,124,-1
 449 401 l 2,125,126
 488 401 488 401 515 423 c 128,-1,127
 542 445 542 445 542 475 c 2,128,-1
 542 684 l 1,129,-1
 597 684 l 2,130,131
 607 684 607 684 614.5 677 c 128,-1,132
 622 670 622 670 622 659 c 2,133,-1
 622 376 l 2,134,135
 622 365 622 365 610.5 358.5 c 128,-1,136
 599 352 599 352 582 352 c 2,137,-1
 182 352 l 2,138,139
 156 352 156 352 135.5 334.5 c 128,-1,140
 115 317 115 317 105 289 c 2,141,-1
 76 190 l 1,142,-1
 67 162 l 2,143,144
 64 151 64 151 62 141.5 c 128,-1,145
 60 132 60 132 60 129 c 0,83,84
224 497 m 0,146,147
 224 511 224 511 227.5 527.5 c 128,-1,148
 231 544 231 544 237 562 c 1,149,-1
 237 561 l 2,150,151
 240 570 240 570 247.5 592.5 c 128,-1,152
 255 615 255 615 263 639 c 0,153,154
 279 684 279 684 286 684 c 2,155,-1
 459 684 l 1,156,-1
 459 518 l 2,157,158
 459 503 459 503 447.5 491.5 c 128,-1,159
 436 480 436 480 419 480 c 2,160,-1
 242 480 l 2,161,162
 234 480 234 480 229 485 c 128,-1,163
 224 490 224 490 224 497 c 0,146,147
79 129 m 0,164,165
 79 135 79 135 85.5 157.5 c 128,-1,166
 92 180 92 180 94 185 c 2,167,-1
 123 284 l 2,168,169
 131 306 131 306 146.5 320 c 128,-1,170
 162 334 162 334 182 334 c 2,171,-1
 582 334 l 2,172,173
 606 334 606 334 623.5 346 c 128,-1,174
 641 358 641 358 641 376 c 2,175,-1
 641 659 l 2,176,177
 641 678 641 678 628 690 c 128,-1,178
 615 702 615 702 597 702 c 2,179,-1
 523 702 l 1,180,-1
 523 475 l 2,181,182
 523 453 523 453 501.5 436 c 128,-1,183
 480 419 480 419 449 419 c 2,184,-1
 226 419 l 2,185,186
 195 419 195 419 174 437.5 c 128,-1,187
 153 456 153 456 153 483 c 0,188,189
 153 490 153 490 159.5 512 c 128,-1,190
 166 534 166 534 168 540 c 2,191,-1
 212 688 l 2,192,193
 219 713 219 713 236 729 c 128,-1,194
 253 745 253 745 271 745 c 2,195,-1
 597 745 l 2,196,197
 634 745 634 745 660 720.5 c 128,-1,198
 686 696 686 696 686 659 c 2,199,-1
 686 376 l 2,200,201
 686 341 686 341 655 316 c 128,-1,202
 624 291 624 291 582 291 c 2,203,-1
 197 291 l 2,204,205
 178 291 178 291 163.5 281.5 c 128,-1,206
 149 272 149 272 145 256 c 0,207,208
 141 242 141 242 139 231 c 128,-1,209
 137 220 137 220 137 213 c 0,210,211
 137 200 137 200 150.5 189 c 128,-1,212
 164 178 164 178 182 178 c 2,213,-1
 1440 178 l 1,214,-1
 1440 36 l 1,215,-1
 197 36 l 2,216,217
 147 36 147 36 113 63 c 128,-1,218
 79 90 79 90 79 129 c 0,164,165
205 497 m 0,219,220
 205 483 205 483 215.5 472.5 c 128,-1,221
 226 462 226 462 242 462 c 2,222,-1
 419 462 l 2,223,224
 443 462 443 462 460.5 478.5 c 128,-1,225
 478 495 478 495 478 518 c 2,226,-1
 478 702 l 1,227,-1
 286 702 l 2,228,229
 265 702 265 702 245.5 644.5 c 128,-1,230
 226 587 226 587 219 568 c 0,231,232
 212 548 212 548 208.5 530.5 c 128,-1,233
 205 513 205 513 205 497 c 0,219,220
EndSplineSet
EndChar

StartChar: tm_uu
Encoding: 2954 2954 55
Width: 1711
GlyphClass: 2
Flags: W
LayerCount: 2
Fore
SplineSet
924 419 m 0,0,1
 924 413 924 413 930 413 c 2,2,-1
 1079 413 l 2,3,4
 1082 413 1082 413 1084 415 c 2,5,-1
 1081 428 l 1,6,-1
 1072 460 l 2,7,8
 1070 466 1070 466 1076 468 c 2,9,-1
 938 468 l 1,10,11
 936 463 936 463 934 457 c 128,-1,12
 932 451 932 451 930 445 c 0,13,14
 928 436 928 436 926 428.5 c 128,-1,15
 924 421 924 421 924 419 c 0,0,1
257 557 m 1,16,17
 245 522 245 522 245 498 c 1,18,-1
 422 498 l 2,19,20
 432 498 432 498 438 504 c 128,-1,21
 444 510 444 510 444 518 c 2,22,-1
 444 666 l 1,23,-1
 288 666 l 2,24,25
 290 664 290 664 288.5 654.5 c 128,-1,26
 287 645 287 645 284 633 c 0,27,28
 276 609 276 609 268 587 c 128,-1,29
 260 565 260 565 257 556 c 2,30,-1
 257 557 l 1,16,17
1184 237 m 0,31,32
 1170 224 1170 224 1151 214 c 1,33,-1
 1235 214 l 1,34,-1
 1235 666 l 1,35,-1
 1005 666 l 2,36,37
 998 666 998 666 988 639 c 2,38,-1
 990 644 l 1,39,-1
 972 582 l 1,40,-1
 1079 582 l 2,41,42
 1108 582 1108 582 1139 553 c 128,-1,43
 1170 524 1170 524 1190 473 c 0,44,45
 1209 421 1209 421 1219 387.5 c 128,-1,46
 1229 354 1229 354 1229 334 c 0,47,48
 1229 275 1229 275 1184 237 c 0,31,32
1446 214 m 1,49,-1
 1489 214 l 1,50,-1
 1489 666 l 1,51,-1
 1356 666 l 1,52,-1
 1356 447 l 2,53,54
 1356 433 1356 433 1382 423 c 128,-1,55
 1408 413 1408 413 1446 413 c 1,56,-1
 1446 214 l 1,49,-1
41 129 m 0,57,58
 41 134 41 134 43 144 c 128,-1,59
 45 154 45 154 50 168 c 1,60,-1
 50 167 l 1,61,-1
 58 195 l 1,62,-1
 57 195 l 1,63,-1
 87 295 l 2,64,65
 99 327 99 327 124 348.5 c 128,-1,66
 149 370 149 370 183 370 c 2,67,-1
 586 370 l 2,68,69
 608 370 608 370 608 376 c 2,70,-1
 608 659 l 2,71,72
 608 666 608 666 602 666 c 2,73,-1
 565 666 l 1,74,-1
 565 475 l 2,75,76
 565 457 565 457 556.5 440 c 128,-1,77
 548 423 548 423 533 410.5 c 128,-1,78
 518 398 518 398 497.5 390.5 c 128,-1,79
 477 383 477 383 453 383 c 2,80,-1
 228 383 l 2,81,82
 204 383 204 383 183.5 390.5 c 128,-1,83
 163 398 163 398 148 411.5 c 128,-1,84
 133 425 133 425 124.5 443.5 c 128,-1,85
 116 462 116 462 116 483 c 0,86,87
 116 488 116 488 117.5 498 c 128,-1,88
 119 508 119 508 124 522 c 2,89,-1
 133 550 l 1,90,-1
 132 550 l 1,91,-1
 177 698 l 2,92,93
 181 716 181 716 191.5 731.5 c 128,-1,94
 202 747 202 747 215 758 c 128,-1,95
 228 769 228 769 243 775 c 128,-1,96
 258 781 258 781 273 781 c 2,97,-1
 602 781 l 2,98,99
 628 781 628 781 651.5 771.5 c 128,-1,100
 675 762 675 762 692.5 745.5 c 128,-1,101
 710 729 710 729 720 707 c 128,-1,102
 730 685 730 685 730 659 c 2,103,-1
 730 376 l 2,104,105
 730 351 730 351 718.5 329 c 128,-1,106
 707 307 707 307 687.5 290.5 c 128,-1,107
 668 274 668 274 642 264.5 c 128,-1,108
 616 255 616 255 586 255 c 2,109,-1
 199 255 l 2,110,111
 185 255 185 255 183 248 c 0,112,113
 181 235 181 235 179 226.5 c 128,-1,114
 177 218 177 218 177 213 c 1,115,116
 177 214 177 214 183 214 c 2,117,-1
 863 214 l 1,118,119
 830 231 830 231 808.5 263 c 128,-1,120
 787 295 787 295 787 334 c 0,121,122
 787 363 787 363 793.5 396.5 c 128,-1,123
 800 430 800 430 812 472 c 1,124,-1
 811 472 l 1,125,-1
 862 649 l 2,126,127
 881 709 881 709 915.5 745 c 128,-1,128
 950 781 950 781 990 781 c 2,129,-1
 1744 781 l 1,130,-1
 1744 666 l 1,131,-1
 1609 666 l 1,132,-1
 1609 447 l 2,133,134
 1609 433 1609 433 1635.5 423 c 128,-1,135
 1662 413 1662 413 1699 413 c 1,136,-1
 1699 214 l 1,137,-1
 1744 214 l 1,138,-1
 1744 0 l 1,139,-1
 199 0 l 2,140,141
 134 0 134 0 89 34 c 0,142,143
 41 73 41 73 41 129 c 0,57,58
60 129 m 0,144,145
 60 81 60 81 101 48 c 0,146,147
 142 18 142 18 199 18 c 2,148,-1
 1725 18 l 1,149,-1
 1725 196 l 1,150,-1
 183 196 l 2,151,152
 173 196 173 196 165.5 201 c 128,-1,153
 158 206 158 206 158 213 c 0,154,155
 158 227 158 227 164 251 c 0,156,157
 166 262 166 262 175.5 267.5 c 128,-1,158
 185 273 185 273 199 273 c 2,159,-1
 586 273 l 2,160,161
 611 273 611 273 634 281 c 128,-1,162
 657 289 657 289 674 303 c 128,-1,163
 691 317 691 317 701 336 c 128,-1,164
 711 355 711 355 711 376 c 2,165,-1
 711 659 l 2,166,167
 711 681 711 681 702.5 700 c 128,-1,168
 694 719 694 719 679 733 c 128,-1,169
 664 747 664 747 644 755 c 128,-1,170
 624 763 624 763 602 763 c 2,171,-1
 273 763 l 2,172,173
 262 763 262 763 250 757.5 c 128,-1,174
 238 752 238 752 227.5 742.5 c 128,-1,175
 217 733 217 733 208.5 720.5 c 128,-1,176
 200 708 200 708 196 693 c 2,177,-1
 151 544 l 1,178,-1
 151 545 l 1,179,-1
 142 517 l 2,180,181
 139 506 139 506 137 496 c 128,-1,182
 135 486 135 486 135 483 c 0,183,184
 135 448 135 448 162 424.5 c 128,-1,185
 189 401 189 401 228 401 c 2,186,-1
 453 401 l 2,187,188
 492 401 492 401 519 423 c 128,-1,189
 546 445 546 445 546 475 c 2,190,-1
 546 684 l 1,191,-1
 602 684 l 2,192,193
 612 684 612 684 620 677 c 128,-1,194
 628 670 628 670 628 659 c 2,195,-1
 628 376 l 2,196,197
 628 365 628 365 615.5 358.5 c 128,-1,198
 603 352 603 352 586 352 c 2,199,-1
 183 352 l 2,200,201
 157 352 157 352 136.5 334.5 c 128,-1,202
 116 317 116 317 106 289 c 2,203,-1
 76 190 l 1,204,-1
 68 162 l 2,205,206
 64 151 64 151 62 141.5 c 128,-1,207
 60 132 60 132 60 129 c 0,144,145
806 334 m 0,208,209
 806 310 806 310 816 288.5 c 128,-1,210
 826 267 826 267 842.5 251 c 128,-1,211
 859 235 859 235 881.5 226 c 128,-1,212
 904 217 904 217 930 217 c 2,213,-1
 1079 217 l 2,214,215
 1107 217 1107 217 1129 225.5 c 128,-1,216
 1151 234 1151 234 1171 250 c 0,217,218
 1210 283 1210 283 1210 334 c 0,219,220
 1210 352 1210 352 1200.5 384 c 128,-1,221
 1191 416 1191 416 1172 467 c 0,222,223
 1155 512 1155 512 1129 538 c 128,-1,224
 1103 564 1103 564 1079 564 c 2,225,-1
 947 564 l 1,226,-1
 970 649 l 1,227,-1
 970 647 l 1,228,229
 978 664 978 664 987 674 c 128,-1,230
 996 684 996 684 1005 684 c 2,231,-1
 1254 684 l 1,232,-1
 1254 217 l 1,233,-1
 1427 217 l 1,234,-1
 1427 395 l 1,235,236
 1389 395 1389 395 1363 409.5 c 128,-1,237
 1337 424 1337 424 1337 447 c 2,238,-1
 1337 684 l 1,239,-1
 1508 684 l 1,240,-1
 1508 217 l 1,241,-1
 1680 217 l 1,242,-1
 1680 395 l 1,243,244
 1642 395 1642 395 1616 409.5 c 128,-1,245
 1590 424 1590 424 1590 447 c 2,246,-1
 1590 684 l 1,247,-1
 1725 684 l 1,248,-1
 1725 763 l 1,249,-1
 990 763 l 2,250,251
 958 763 958 763 928.5 730.5 c 128,-1,252
 899 698 899 698 882 643 c 2,253,-1
 830 466 l 1,254,-1
 830 467 l 1,255,256
 806 389 806 389 806 334 c 0,208,209
225 497 m 0,257,258
 225 511 225 511 229 527.5 c 128,-1,259
 233 544 233 544 239 562 c 1,260,-1
 239 561 l 2,261,262
 242 570 242 570 250 592.5 c 128,-1,263
 258 615 258 615 266 639 c 0,264,265
 280 684 280 684 288 684 c 2,266,-1
 463 684 l 1,267,-1
 463 518 l 2,268,269
 463 503 463 503 451 491.5 c 128,-1,270
 439 480 439 480 422 480 c 2,271,-1
 244 480 l 2,272,273
 236 480 236 480 230.5 485 c 128,-1,274
 225 490 225 490 225 497 c 0,257,258
905 419 m 0,275,276
 905 426 905 426 911 450 c 1,277,-1
 911 449 l 1,278,-1
 922 486 l 1,279,-1
 1079 486 l 2,280,281
 1085 486 1085 486 1090 464 c 2,282,-1
 1100 433 l 2,283,284
 1101 427 1101 427 1102.5 422 c 128,-1,285
 1104 417 1104 417 1105 418 c 1,286,287
 1104 407 1104 407 1096.5 401 c 128,-1,288
 1089 395 1089 395 1079 395 c 2,289,-1
 930 395 l 2,290,291
 919 395 919 395 912 401.5 c 128,-1,292
 905 408 905 408 905 419 c 0,275,276
79 129 m 0,293,294
 79 135 79 135 86 157.5 c 128,-1,295
 93 180 93 180 95 185 c 2,296,-1
 124 284 l 2,297,298
 132 306 132 306 147.5 320 c 128,-1,299
 163 334 163 334 183 334 c 2,300,-1
 586 334 l 2,301,302
 611 334 611 334 629 346 c 128,-1,303
 647 358 647 358 647 376 c 2,304,-1
 647 659 l 2,305,306
 647 678 647 678 633.5 690 c 128,-1,307
 620 702 620 702 602 702 c 2,308,-1
 527 702 l 1,309,-1
 527 475 l 2,310,311
 527 453 527 453 505.5 436 c 128,-1,312
 484 419 484 419 453 419 c 2,313,-1
 228 419 l 2,314,315
 197 419 197 419 175.5 437.5 c 128,-1,316
 154 456 154 456 154 483 c 0,317,318
 154 490 154 490 160.5 512 c 128,-1,319
 167 534 167 534 169 540 c 2,320,-1
 214 688 l 2,321,322
 221 713 221 713 238 729 c 128,-1,323
 255 745 255 745 273 745 c 2,324,-1
 602 745 l 2,325,326
 639 745 639 745 665.5 720.5 c 128,-1,327
 692 696 692 696 692 659 c 2,328,-1
 692 376 l 2,329,330
 692 341 692 341 660.5 316 c 128,-1,331
 629 291 629 291 586 291 c 2,332,-1
 199 291 l 2,333,334
 180 291 180 291 165 281.5 c 128,-1,335
 150 272 150 272 146 256 c 0,336,337
 142 242 142 242 140 231 c 128,-1,338
 138 220 138 220 138 213 c 0,339,340
 138 200 138 200 151.5 189 c 128,-1,341
 165 178 165 178 183 178 c 2,342,-1
 1706 178 l 1,343,-1
 1706 36 l 1,344,-1
 199 36 l 2,345,346
 148 36 148 36 113.5 63 c 128,-1,347
 79 90 79 90 79 129 c 0,293,294
206 497 m 0,348,349
 206 483 206 483 217 472.5 c 128,-1,350
 228 462 228 462 244 462 c 2,351,-1
 422 462 l 2,352,353
 447 462 447 462 464.5 478.5 c 128,-1,354
 482 495 482 495 482 518 c 2,355,-1
 482 702 l 1,356,-1
 288 702 l 2,357,358
 267 702 267 702 247.5 644.5 c 128,-1,359
 228 587 228 587 221 568 c 0,360,361
 214 548 214 548 210 530.5 c 128,-1,362
 206 513 206 513 206 497 c 0,348,349
825 334 m 0,363,364
 825 360 825 360 831 392.5 c 128,-1,365
 837 425 837 425 848 462 c 2,366,-1
 900 639 l 2,367,368
 915 687 915 687 939.5 716 c 128,-1,369
 964 745 964 745 990 745 c 2,370,-1
 1706 745 l 1,371,-1
 1706 702 l 1,372,-1
 1571 702 l 1,373,-1
 1571 447 l 2,374,375
 1571 417 1571 417 1597.5 396.5 c 128,-1,376
 1624 376 1624 376 1661 376 c 1,377,-1
 1661 235 l 1,378,-1
 1527 235 l 1,379,-1
 1527 702 l 1,380,-1
 1318 702 l 1,381,-1
 1318 447 l 2,382,383
 1318 417 1318 417 1344.5 396.5 c 128,-1,384
 1371 376 1371 376 1408 376 c 1,385,-1
 1408 235 l 1,386,-1
 1273 235 l 1,387,-1
 1273 702 l 1,388,-1
 1005 702 l 2,389,390
 990 702 990 702 976 689 c 128,-1,391
 962 676 962 676 952 653 c 2,392,-1
 923 546 l 1,393,-1
 1079 546 l 2,394,395
 1097 546 1097 546 1118 523.5 c 128,-1,396
 1139 501 1139 501 1154 462 c 0,397,398
 1172 412 1172 412 1181.5 381 c 128,-1,399
 1191 350 1191 350 1191 334 c 0,400,401
 1191 293 1191 293 1158.5 264 c 128,-1,402
 1126 235 1126 235 1079 235 c 2,403,-1
 930 235 l 2,404,405
 887 235 887 235 856 264 c 128,-1,406
 825 293 825 293 825 334 c 0,363,364
885 419 m 0,407,408
 885 401 885 401 898 388.5 c 128,-1,409
 911 376 911 376 930 376 c 2,410,-1
 1079 376 l 2,411,412
 1097 376 1097 376 1110.5 388.5 c 128,-1,413
 1124 401 1124 401 1124 419 c 0,414,415
 1124 423 1124 423 1118.5 438.5 c 128,-1,416
 1113 454 1113 454 1109 469 c 256,417,418
 1105 484 1105 484 1097 494 c 128,-1,419
 1089 504 1089 504 1079 504 c 2,420,-1
 907 504 l 1,421,422
 902 481 902 481 893.5 454.5 c 128,-1,423
 885 428 885 428 885 419 c 0,407,408
EndSplineSet
EndChar

StartChar: tm_e
Encoding: 2958 2958 56
Width: 947
GlyphClass: 2
Flags: W
LayerCount: 2
Fore
SplineSet
195 220 m 0,0,1
 195 214 195 214 188 214 c 2,2,-1
 490 214 l 2,3,4
 495 214 495 214 496 213 c 1,5,6
 496 218 496 218 494 226 c 128,-1,7
 492 234 492 234 490 247 c 2,8,-1
 468 325 l 1,9,-1
 468 324 l 2,10,11
 466 332 466 332 460 336 c 128,-1,12
 454 340 454 340 446 340 c 2,13,-1
 215 340 l 1,14,-1
 201 289 l 1,15,-1
 201 290 l 2,16,17
 199 278 199 278 197 260.5 c 128,-1,18
 195 243 195 243 195 220 c 0,0,1
49 135 m 0,19,20
 49 155 49 155 56 187 c 128,-1,21
 63 219 63 219 79 273 c 1,22,-1
 79 271 l 1,23,-1
 179 683 l 2,24,25
 192 728 192 728 222 754.5 c 128,-1,26
 252 781 252 781 287 781 c 2,27,-1
 1017 781 l 1,28,-1
 1017 666 l 1,29,-1
 801 666 l 1,30,-1
 801 249 l 2,31,32
 801 234 801 234 826.5 224 c 128,-1,33
 852 214 852 214 888 214 c 1,34,-1
 888 0 l 1,35,-1
 684 0 l 1,36,-1
 684 666 l 1,37,-1
 302 666 l 2,38,39
 299 666 299 666 293 647 c 1,40,-1
 295 650 l 1,41,-1
 242 455 l 1,42,-1
 476 455 l 2,43,44
 511 455 511 455 541 428.5 c 128,-1,45
 571 402 571 402 584 357 c 2,46,-1
 627 186 l 1,47,-1
 626 188 l 1,48,49
 635 158 635 158 635 142 c 0,50,51
 635 82 635 82 587 40 c 0,52,53
 540 0 540 0 476 0 c 2,54,-1
 187 0 l 2,55,56
 158 0 158 0 133 10.5 c 128,-1,57
 108 21 108 21 89.5 39.5 c 128,-1,58
 71 58 71 58 60 82.5 c 128,-1,59
 49 107 49 107 49 135 c 0,19,20
67 135 m 0,60,61
 67 111 67 111 76.5 89.5 c 128,-1,62
 86 68 86 68 102.5 52.5 c 128,-1,63
 119 37 119 37 140.5 27.5 c 128,-1,64
 162 18 162 18 187 18 c 2,65,-1
 476 18 l 2,66,67
 534 18 534 18 574 54 c 0,68,69
 616 91 616 91 616 142 c 0,70,71
 616 149 616 149 614.5 159.5 c 128,-1,72
 613 170 613 170 609 183 c 1,73,-1
 609 182 l 1,74,-1
 565 353 l 2,75,76
 554 391 554 391 529.5 414 c 128,-1,77
 505 437 505 437 476 437 c 2,78,-1
 217 437 l 1,79,-1
 276 655 l 1,80,-1
 276 653 l 1,81,82
 289 684 289 684 302 684 c 2,83,-1
 702 684 l 1,84,-1
 702 18 l 1,85,-1
 869 18 l 1,86,-1
 869 196 l 1,87,88
 833 196 833 196 807.5 211 c 128,-1,89
 782 226 782 226 782 249 c 2,90,-1
 782 684 l 1,91,-1
 998 684 l 1,92,-1
 998 763 l 1,93,-1
 287 763 l 2,94,95
 258 763 258 763 233.5 739.5 c 128,-1,96
 209 716 209 716 198 678 c 2,97,-1
 97 268 l 2,98,99
 83 215 83 215 75 183.5 c 128,-1,100
 67 152 67 152 67 135 c 0,60,61
176 220 m 0,101,102
 176 244 176 244 178 263 c 128,-1,103
 180 282 180 282 183 294 c 2,104,-1
 200 358 l 1,105,-1
 446 358 l 2,106,107
 460 358 460 358 471 350 c 128,-1,108
 482 342 482 342 487 329 c 2,109,-1
 508 251 l 2,110,111
 514 228 514 228 514 213 c 0,112,113
 514 206 514 206 507.5 201 c 128,-1,114
 501 196 501 196 490 196 c 2,115,-1
 187 196 l 2,116,117
 182 196 182 196 179 203.5 c 128,-1,118
 176 211 176 211 176 220 c 0,101,102
86 135 m 0,119,120
 86 151 86 151 93 181 c 128,-1,121
 100 211 100 211 115 263 c 2,122,-1
 215 674 l 2,123,124
 224 706 224 706 244 725.5 c 128,-1,125
 264 745 264 745 287 745 c 2,126,-1
 980 745 l 1,127,-1
 980 702 l 1,128,-1
 764 702 l 1,129,-1
 764 249 l 2,130,131
 764 219 764 219 789.5 198.5 c 128,-1,132
 815 178 815 178 851 178 c 1,133,-1
 851 36 l 1,134,-1
 720 36 l 1,135,-1
 720 702 l 1,136,-1
 302 702 l 2,137,138
 289 702 289 702 277.5 690.5 c 128,-1,139
 266 679 266 679 259 659 c 2,140,-1
 194 419 l 1,141,-1
 476 419 l 2,142,143
 499 419 499 419 518.5 399.5 c 128,-1,144
 538 380 538 380 548 348 c 2,145,-1
 591 178 l 2,146,147
 595 166 595 166 596.5 157 c 128,-1,148
 598 148 598 148 598 142 c 0,149,150
 598 98 598 98 562 67 c 128,-1,151
 526 36 526 36 476 36 c 2,152,-1
 187 36 l 2,153,154
 145 36 145 36 115.5 65 c 128,-1,155
 86 94 86 94 86 135 c 0,119,120
158 220 m 0,156,157
 158 203 158 203 166 190.5 c 128,-1,158
 174 178 174 178 187 178 c 2,159,-1
 490 178 l 2,160,161
 508 178 508 178 520.5 189 c 128,-1,162
 533 200 533 200 533 213 c 0,163,164
 533 220 533 220 531 231 c 128,-1,165
 529 242 529 242 526 256 c 2,166,-1
 504 334 l 2,167,168
 499 354 499 354 482.5 365 c 128,-1,169
 466 376 466 376 446 376 c 2,170,-1
 187 376 l 1,171,-1
 165 298 l 2,172,173
 162 284 162 284 160 264.5 c 128,-1,174
 158 245 158 245 158 220 c 0,156,157
EndSplineSet
EndChar

StartChar: tm_ee
Encoding: 2959 2959 57
Width: 947
GlyphClass: 2
Flags: W
LayerCount: 2
Fore
SplineSet
195 226 m 0,0,1
 195 220 195 220 188 220 c 2,2,-1
 490 220 l 2,3,4
 495 220 495 220 496 219 c 1,5,6
 496 224 496 224 494 232 c 128,-1,7
 492 240 492 240 490 253 c 2,8,-1
 468 333 l 1,9,-1
 468 332 l 2,10,11
 466 340 466 340 460 344.5 c 128,-1,12
 454 349 454 349 446 349 c 2,13,-1
 215 349 l 1,14,-1
 201 297 l 1,15,-1
 201 298 l 2,16,17
 199 285 199 285 197 267 c 128,-1,18
 195 249 195 249 195 226 c 0,0,1
49 139 m 0,19,20
 49 160 49 160 56 192.5 c 128,-1,21
 63 225 63 225 79 280 c 1,22,-1
 79 278 l 1,23,-1
 179 701 l 2,24,25
 192 746 192 746 222 774 c 128,-1,26
 252 802 252 802 287 802 c 2,27,-1
 1017 802 l 1,28,-1
 1017 683 l 1,29,-1
 801 683 l 1,30,-1
 801 255 l 2,31,32
 801 241 801 241 826.5 230.5 c 128,-1,33
 852 220 852 220 888 220 c 1,34,-1
 888 23 l 1,35,-1
 592 -292 l 1,36,-1
 466 -167 l 1,37,-1
 684 52 l 1,38,-1
 684 683 l 1,39,-1
 302 683 l 2,40,41
 299 683 299 683 293 664 c 1,42,-1
 295 667 l 1,43,-1
 242 467 l 1,44,-1
 476 467 l 2,45,46
 511 467 511 467 541 439.5 c 128,-1,47
 571 412 571 412 584 367 c 2,48,-1
 627 191 l 1,49,-1
 626 193 l 1,50,51
 635 161 635 161 635 146 c 0,52,53
 635 84 635 84 587 41 c 0,54,55
 540 0 540 0 476 0 c 2,56,-1
 187 0 l 2,57,58
 158 0 158 0 133 11 c 128,-1,59
 108 22 108 22 89.5 40.5 c 128,-1,60
 71 59 71 59 60 84.5 c 128,-1,61
 49 110 49 110 49 139 c 0,19,20
67 139 m 0,62,63
 67 114 67 114 76.5 92.5 c 128,-1,64
 86 71 86 71 102.5 54.5 c 128,-1,65
 119 38 119 38 140.5 28.5 c 128,-1,66
 162 19 162 19 187 19 c 2,67,-1
 476 19 l 2,68,69
 534 19 534 19 574 55 c 0,70,71
 616 94 616 94 616 146 c 0,72,73
 616 153 616 153 614.5 163.5 c 128,-1,74
 613 174 613 174 609 188 c 1,75,-1
 609 187 l 1,76,-1
 565 362 l 2,77,78
 554 401 554 401 529.5 425 c 128,-1,79
 505 449 505 449 476 449 c 2,80,-1
 217 449 l 1,81,-1
 276 672 l 1,82,-1
 276 670 l 1,83,84
 289 702 289 702 302 702 c 2,85,-1
 702 702 l 1,86,-1
 702 45 l 1,87,-1
 492 -167 l 1,88,-1
 592 -266 l 1,89,-1
 869 29 l 1,90,-1
 869 201 l 1,91,92
 833 201 833 201 807.5 216.5 c 128,-1,93
 782 232 782 232 782 255 c 2,94,-1
 782 702 l 1,95,-1
 998 702 l 1,96,-1
 998 783 l 1,97,-1
 287 783 l 2,98,99
 258 783 258 783 233.5 759 c 128,-1,100
 209 735 209 735 198 696 c 2,101,-1
 97 275 l 2,102,103
 83 221 83 221 75 188.5 c 128,-1,104
 67 156 67 156 67 139 c 0,62,63
176 226 m 0,105,106
 176 251 176 251 178 270 c 128,-1,107
 180 289 180 289 183 302 c 2,108,-1
 200 368 l 1,109,-1
 446 368 l 2,110,111
 460 368 460 368 471 359.5 c 128,-1,112
 482 351 482 351 487 338 c 2,113,-1
 508 258 l 2,114,115
 514 234 514 234 514 219 c 0,116,117
 514 211 514 211 507.5 206 c 128,-1,118
 501 201 501 201 490 201 c 2,119,-1
 187 201 l 2,120,121
 182 201 182 201 179 208.5 c 128,-1,122
 176 216 176 216 176 226 c 0,105,106
86 139 m 0,123,124
 86 155 86 155 93 186 c 128,-1,125
 100 217 100 217 115 270 c 2,126,-1
 215 692 l 2,127,128
 224 724 224 724 244 744 c 128,-1,129
 264 764 264 764 287 764 c 2,130,-1
 980 764 l 1,131,-1
 980 721 l 1,132,-1
 764 721 l 1,133,-1
 764 255 l 2,134,135
 764 224 764 224 789.5 203 c 128,-1,136
 815 182 815 182 851 182 c 1,137,-1
 851 37 l 1,138,-1
 591 -239 l 1,139,-1
 518 -167 l 1,140,-1
 720 37 l 1,141,-1
 720 721 l 1,142,-1
 302 721 l 2,143,144
 289 721 289 721 277.5 709 c 128,-1,145
 266 697 266 697 259 677 c 2,146,-1
 194 430 l 1,147,-1
 476 430 l 2,148,149
 499 430 499 430 518.5 410 c 128,-1,150
 538 390 538 390 548 357 c 2,151,-1
 591 182 l 2,152,153
 595 170 595 170 596.5 161 c 128,-1,154
 598 152 598 152 598 146 c 0,155,156
 598 101 598 101 562 69 c 128,-1,157
 526 37 526 37 476 37 c 2,158,-1
 187 37 l 2,159,160
 145 37 145 37 115.5 67 c 128,-1,161
 86 97 86 97 86 139 c 0,123,124
158 226 m 0,162,163
 158 209 158 209 166 195.5 c 128,-1,164
 174 182 174 182 187 182 c 2,165,-1
 490 182 l 2,166,167
 508 182 508 182 520.5 193.5 c 128,-1,168
 533 205 533 205 533 219 c 0,169,170
 533 226 533 226 531 237.5 c 128,-1,171
 529 249 529 249 526 263 c 2,172,-1
 504 343 l 2,173,174
 499 363 499 363 482.5 374.5 c 128,-1,175
 466 386 466 386 446 386 c 2,176,-1
 187 386 l 1,177,-1
 165 306 l 2,178,179
 162 291 162 291 160 271 c 128,-1,180
 158 251 158 251 158 226 c 0,162,163
EndSplineSet
EndChar

StartChar: tm_ai
Encoding: 2960 2960 58
Width: 1231
GlyphClass: 2
Flags: W
LayerCount: 2
Fore
SplineSet
227 374 m 0,0,1
 227 368 227 368 226 368 c 2,2,-1
 469 368 l 2,3,4
 469 371 469 371 467 379.5 c 128,-1,5
 465 388 465 388 463 401 c 2,6,-1
 441 482 l 1,7,-1
 441 481 l 1,8,9
 436 496 436 496 446 498 c 2,10,-1
 255 498 l 1,11,-1
 241 445 l 2,12,13
 227 391 227 391 227 374 c 0,0,1
589 353 m 0,14,15
 589 325 589 325 575 302 c 128,-1,16
 561 279 561 279 538 265 c 1,17,-1
 617 265 l 1,18,-1
 617 653 l 2,19,20
 617 667 617 667 606.5 677.5 c 128,-1,21
 596 688 596 688 581 688 c 2,22,-1
 300 688 l 2,23,24
 302 687 302 687 299.5 675 c 128,-1,25
 297 663 297 663 292 644 c 1,26,-1
 292 643 l 2,27,28
 290 637 290 637 288.5 630 c 128,-1,29
 287 623 287 623 285 617 c 1,30,-1
 448 617 l 2,31,32
 484 617 484 617 512.5 597.5 c 128,-1,33
 541 578 541 578 551 544 c 2,34,-1
 581 412 l 1,35,-1
 581 414 l 1,36,37
 585 398 585 398 587 384 c 128,-1,38
 589 370 589 370 589 353 c 0,14,15
737 265 m 1,39,-1
 1083 265 l 2,40,41
 1092 265 1092 265 1098.5 271.5 c 128,-1,42
 1105 278 1105 278 1105 287 c 0,43,44
 1105 343 1105 343 1093 373 c 2,45,-1
 1017 629 l 2,46,47
 1010 655 1010 655 1004.5 671.5 c 128,-1,48
 999 688 999 688 995 688 c 2,49,-1
 773 688 l 2,50,51
 758 688 758 688 747.5 677.5 c 128,-1,52
 737 667 737 667 737 653 c 2,53,-1
 737 265 l 1,39,-1
1075 -59 m 1,54,-1
 1075 44 l 1,55,-1
 197 44 l 2,56,57
 175 44 175 44 158.5 31.5 c 128,-1,58
 142 19 142 19 137 -1 c 2,59,-1
 108 -105 l 1,60,-1
 108 -104 l 2,61,62
 105 -117 105 -117 103 -129.5 c 128,-1,63
 101 -142 101 -142 101 -153 c 0,64,65
 101 -162 101 -162 107.5 -168 c 128,-1,66
 114 -174 114 -174 123 -174 c 2,67,-1
 596 -174 l 2,68,69
 604 -174 604 -174 610.5 -172.5 c 128,-1,70
 617 -171 617 -171 617 -168 c 2,71,-1
 617 16 l 1,72,-1
 737 16 l 1,73,-1
 737 -168 l 2,74,75
 737 -174 737 -174 759 -174 c 2,76,-1
 1187 -174 l 2,77,78
 1200 -174 1200 -174 1206 -171 c 1,79,-1
 1202 -137 l 1,80,-1
 1202 -134 l 1,81,-1
 1187 -83 l 2,82,83
 1185 -72 1185 -72 1181 -65.5 c 128,-1,84
 1177 -59 1177 -59 1172 -59 c 2,85,-1
 1075 -59 l 1,54,-1
-41 -241 m 0,86,87
 -41 -227 -41 -227 -36 -204 c 128,-1,88
 -31 -181 -31 -181 -17 -135 c 1,89,-1
 -18 -137 l 1,90,-1
 42 120 l 2,91,92
 56 173 56 173 92 211 c 128,-1,93
 128 249 128 249 173 261 c 1,94,95
 144 274 144 274 125.5 300 c 128,-1,96
 107 326 107 326 107 360 c 0,97,98
 107 387 107 387 131 473 c 1,99,-1
 131 471 l 1,100,101
 145 531 145 531 160 592 c 128,-1,102
 175 653 175 653 189 714 c 0,103,104
 196 735 196 735 207.5 752 c 128,-1,105
 219 769 219 769 233.5 781 c 128,-1,106
 248 793 248 793 265 800 c 128,-1,107
 282 807 282 807 300 807 c 2,108,-1
 596 807 l 2,109,110
 616 807 616 807 635 800 c 128,-1,111
 654 793 654 793 673 776 c 1,112,113
 690 790 690 790 713 798.5 c 128,-1,114
 736 807 736 807 759 807 c 2,115,-1
 1024 807 l 2,116,117
 1039 807 1039 807 1054.5 796.5 c 128,-1,118
 1070 786 1070 786 1085 766.5 c 128,-1,119
 1100 747 1100 747 1112.5 720.5 c 128,-1,120
 1125 694 1125 694 1134 662 c 2,121,-1
 1238 280 l 1,122,-1
 1245 256 l 1,123,-1
 1249 243 l 2,124,125
 1255 223 1255 223 1258.5 207.5 c 128,-1,126
 1262 192 1262 192 1262 184 c 0,127,128
 1262 124 1262 124 1217 83 c 0,129,130
 1201 68 1201 68 1184 60 c 1,131,-1
 1201 60 l 2,132,133
 1237 60 1237 60 1265 36 c 128,-1,134
 1293 12 1293 12 1304 -25 c 2,135,-1
 1342 -158 l 1,136,-1
 1341 -157 l 1,137,138
 1350 -186 1350 -186 1353.5 -206.5 c 128,-1,139
 1357 -227 1357 -227 1357 -241 c 0,140,141
 1357 -306 1357 -306 1312 -351 c 256,142,143
 1267 -396 1267 -396 1201 -396 c 2,144,-1
 788 -396 l 2,145,146
 754 -396 754 -396 723 -381 c 128,-1,147
 692 -366 692 -366 669 -341 c 1,148,149
 644 -367 644 -367 610 -381.5 c 128,-1,150
 576 -396 576 -396 536 -396 c 2,151,-1
 94 -396 l 2,152,153
 35 -396 35 -396 -4 -348 c 1,154,-1
 -4 -349 l 1,155,156
 -41 -304 -41 -304 -41 -241 c 0,86,87
-22 -241 m 0,157,158
 -22 -269 -22 -269 -13.5 -292.5 c 128,-1,159
 -5 -316 -5 -316 10 -336 c 0,160,161
 27 -355 27 -355 48.5 -366 c 128,-1,162
 70 -377 70 -377 94 -377 c 2,163,-1
 536 -377 l 2,164,165
 578 -377 578 -377 612 -359.5 c 128,-1,166
 646 -342 646 -342 669 -311 c 1,167,168
 689 -343 689 -343 720 -360 c 128,-1,169
 751 -377 751 -377 788 -377 c 2,170,-1
 1201 -377 l 2,171,172
 1258 -377 1258 -377 1299 -338 c 0,173,174
 1338 -298 1338 -298 1338 -241 c 0,175,176
 1338 -228 1338 -228 1335 -208.5 c 128,-1,177
 1332 -189 1332 -189 1323 -162 c 1,178,-1
 1323 -163 l 1,179,-1
 1286 -31 l 2,180,181
 1276 1 1276 1 1253 21 c 128,-1,182
 1230 41 1230 41 1201 41 c 2,183,-1
 1094 41 l 1,184,-1
 1094 -40 l 1,185,-1
 1172 -40 l 2,186,187
 1183 -40 1183 -40 1192 -50.5 c 128,-1,188
 1201 -61 1201 -61 1206 -77 c 0,189,190
 1209 -88 1209 -88 1212.5 -101 c 128,-1,191
 1216 -114 1216 -114 1220 -125 c 0,192,193
 1220 -127 1220 -127 1220.5 -129.5 c 128,-1,194
 1221 -132 1221 -132 1221 -134 c 0,195,196
 1223 -144 1223 -144 1224 -156.5 c 128,-1,197
 1225 -169 1225 -169 1226 -171 c 0,198,199
 1224 -180 1224 -180 1212.5 -186.5 c 128,-1,200
 1201 -193 1201 -193 1187 -193 c 2,201,-1
 759 -193 l 2,202,203
 742 -193 742 -193 730 -185.5 c 128,-1,204
 718 -178 718 -178 718 -168 c 2,205,-1
 718 -3 l 1,206,-1
 636 -3 l 1,207,-1
 636 -168 l 2,208,209
 636 -178 636 -178 624 -185.5 c 128,-1,210
 612 -193 612 -193 596 -193 c 2,211,-1
 123 -193 l 2,212,213
 106 -193 106 -193 94 -181.5 c 128,-1,214
 82 -170 82 -170 82 -153 c 0,215,216
 82 -140 82 -140 84 -125.5 c 128,-1,217
 86 -111 86 -111 89 -99 c 2,218,-1
 118 4 l 2,219,220
 125 30 125 30 146.5 46.5 c 128,-1,221
 168 63 168 63 197 63 c 2,222,-1
 1113 63 l 2,223,224
 1166 63 1166 63 1204 98 c 0,225,226
 1243 131 1243 131 1243 184 c 0,227,228
 1243 192 1243 192 1239.5 206 c 128,-1,229
 1236 220 1236 220 1231 239 c 0,230,231
 1230 240 1230 240 1229.5 241.5 c 128,-1,232
 1229 243 1229 243 1228 244 c 256,233,234
 1227 245 1227 245 1227 246 c 0,235,236
 1223 258 1223 258 1221.5 265 c 128,-1,237
 1220 272 1220 272 1219 276 c 2,238,-1
 1116 657 l 2,239,240
 1099 715 1099 715 1074 752 c 128,-1,241
 1049 789 1049 789 1024 789 c 2,242,-1
 759 789 l 2,243,244
 734 789 734 789 711.5 778 c 128,-1,245
 689 767 689 767 674 750 c 1,246,247
 655 768 655 768 635.5 778.5 c 128,-1,248
 616 789 616 789 596 789 c 2,249,-1
 300 789 l 2,250,251
 271 789 271 789 245 766.5 c 128,-1,252
 219 744 219 744 208 709 c 0,253,254
 194 648 194 648 178.5 588 c 128,-1,255
 163 528 163 528 149 467 c 1,256,-1
 149 468 l 1,257,258
 137 427 137 427 131.5 400 c 128,-1,259
 126 373 126 373 126 360 c 0,260,261
 126 340 126 340 134 323.5 c 128,-1,262
 142 307 142 307 155.5 294.5 c 128,-1,263
 169 282 169 282 187 275 c 128,-1,264
 205 268 205 268 226 268 c 2,265,-1
 478 268 l 2,266,267
 517 268 517 268 543.5 293 c 128,-1,268
 570 318 570 318 570 353 c 0,269,270
 570 367 570 367 568.5 380 c 128,-1,271
 567 393 567 393 562 409 c 1,272,-1
 563 408 l 1,273,-1
 533 539 l 2,274,275
 525 567 525 567 501.5 582.5 c 128,-1,276
 478 598 478 598 448 598 c 2,277,-1
 258 598 l 1,278,-1
 273 648 l 2,279,280
 280 675 280 675 287.5 691 c 128,-1,281
 295 707 295 707 300 707 c 2,282,-1
 581 707 l 2,283,284
 604 707 604 707 620 691.5 c 128,-1,285
 636 676 636 676 636 653 c 2,286,-1
 636 268 l 1,287,-1
 718 268 l 1,288,-1
 718 653 l 2,289,290
 718 676 718 676 734 691.5 c 128,-1,291
 750 707 750 707 773 707 c 2,292,-1
 995 707 l 2,293,294
 1005 707 1005 707 1016.5 686.5 c 128,-1,295
 1028 666 1028 666 1036 633 c 2,296,-1
 1110 380 l 2,297,298
 1124 346 1124 346 1124 287 c 0,299,300
 1124 270 1124 270 1112 258.5 c 128,-1,301
 1100 247 1100 247 1083 247 c 2,302,-1
 212 247 l 2,303,304
 186 247 186 247 162.5 237 c 128,-1,305
 139 227 139 227 119 209.5 c 128,-1,306
 99 192 99 192 84 168 c 128,-1,307
 69 144 69 144 61 115 c 2,308,-1
 1 -142 l 1,309,-1
 1 -141 l 1,310,311
 -12 -186 -12 -186 -17 -207.5 c 128,-1,312
 -22 -229 -22 -229 -22 -241 c 0,157,158
208 374 m 0,313,314
 208 394 208 394 222 450 c 2,315,-1
 240 517 l 1,316,-1
 448 517 l 2,317,318
 449 517 449 517 453 506.5 c 128,-1,319
 457 496 457 496 460 487 c 2,320,-1
 481 406 l 2,321,322
 484 394 484 394 486 383.5 c 128,-1,323
 488 373 488 373 488 368 c 0,324,325
 488 349 488 349 463 349 c 2,326,-1
 226 349 l 2,327,328
 219 349 219 349 213.5 356.5 c 128,-1,329
 208 364 208 364 208 374 c 0,313,314
-3 -241 m 0,330,331
 -3 -230 -3 -230 2 -209 c 128,-1,332
 7 -188 7 -188 19 -145 c 2,333,-1
 79 111 l 2,334,335
 94 162 94 162 130.5 195 c 128,-1,336
 167 228 167 228 212 228 c 2,337,-1
 1083 228 l 2,338,339
 1108 228 1108 228 1125.5 245.5 c 128,-1,340
 1143 263 1143 263 1143 287 c 0,341,342
 1143 318 1143 318 1139 343.5 c 128,-1,343
 1135 369 1135 369 1127 389 c 2,344,-1
 1054 639 l 2,345,346
 1044 677 1044 677 1027.5 701.5 c 128,-1,347
 1011 726 1011 726 995 726 c 2,348,-1
 773 726 l 2,349,350
 742 726 742 726 720.5 705 c 128,-1,351
 699 684 699 684 699 653 c 2,352,-1
 699 287 l 1,353,-1
 655 287 l 1,354,-1
 655 653 l 2,355,356
 655 684 655 684 633.5 705 c 128,-1,357
 612 726 612 726 581 726 c 2,358,-1
 300 726 l 2,359,360
 289 726 289 726 276 705.5 c 128,-1,361
 263 685 263 685 255 653 c 2,362,-1
 234 579 l 1,363,-1
 448 579 l 2,364,365
 472 579 472 579 490.5 567.5 c 128,-1,366
 509 556 509 556 515 535 c 2,367,-1
 544 404 l 2,368,369
 548 391 548 391 549.5 378.5 c 128,-1,370
 551 366 551 366 551 353 c 0,371,372
 551 325 551 325 530 306 c 128,-1,373
 509 287 509 287 478 287 c 2,374,-1
 226 287 l 2,375,376
 193 287 193 287 169 308 c 128,-1,377
 145 329 145 329 145 360 c 0,378,379
 145 372 145 372 150.5 398 c 128,-1,380
 156 424 156 424 167 462 c 2,381,-1
 226 704 l 2,382,383
 236 733 236 733 256 751.5 c 128,-1,384
 276 770 276 770 300 770 c 2,385,-1
 596 770 l 2,386,387
 616 770 616 770 637 756.5 c 128,-1,388
 658 743 658 743 677 719 c 1,389,390
 688 743 688 743 710 756.5 c 128,-1,391
 732 770 732 770 759 770 c 2,392,-1
 1024 770 l 2,393,394
 1042 770 1042 770 1062.5 737 c 128,-1,395
 1083 704 1083 704 1098 653 c 2,396,-1
 1201 272 l 2,397,398
 1203 263 1203 263 1213.5 230 c 128,-1,399
 1224 197 1224 197 1224 184 c 0,400,401
 1224 142 1224 142 1192 112 c 128,-1,402
 1160 82 1160 82 1113 82 c 2,403,-1
 197 82 l 2,404,405
 162 82 162 82 135 61.5 c 128,-1,406
 108 41 108 41 100 8 c 2,407,-1
 71 -95 l 2,408,409
 67 -109 67 -109 65 -124 c 128,-1,410
 63 -139 63 -139 63 -153 c 0,411,412
 63 -177 63 -177 80.5 -194.5 c 128,-1,413
 98 -212 98 -212 123 -212 c 2,414,-1
 596 -212 l 2,415,416
 620 -212 620 -212 637.5 -199 c 128,-1,417
 655 -186 655 -186 655 -168 c 2,418,-1
 655 -22 l 1,419,-1
 699 -22 l 1,420,-1
 699 -168 l 2,421,422
 699 -186 699 -186 716.5 -199 c 128,-1,423
 734 -212 734 -212 759 -212 c 2,424,-1
 1187 -212 l 2,425,426
 1211 -212 1211 -212 1228.5 -199 c 128,-1,427
 1246 -186 1246 -186 1246 -168 c 0,428,429
 1246 -162 1246 -162 1244 -151 c 128,-1,430
 1242 -140 1242 -140 1239 -124 c 2,431,-1
 1224 -72 l 2,432,433
 1218 -51 1218 -51 1203.5 -36.5 c 128,-1,434
 1189 -22 1189 -22 1172 -22 c 2,435,-1
 1113 -22 l 1,436,-1
 1113 23 l 1,437,-1
 1201 23 l 2,438,439
 1224 23 1224 23 1242.5 6.5 c 128,-1,440
 1261 -10 1261 -10 1268 -36 c 2,441,-1
 1305 -168 l 2,442,443
 1313 -193 1313 -193 1316 -211.5 c 128,-1,444
 1319 -230 1319 -230 1319 -241 c 0,445,446
 1319 -291 1319 -291 1285 -324.5 c 128,-1,447
 1251 -358 1251 -358 1201 -358 c 2,448,-1
 788 -358 l 2,449,450
 749 -358 749 -358 717 -334 c 128,-1,451
 685 -310 685 -310 670 -270 c 1,452,453
 655 -310 655 -310 619 -334 c 128,-1,454
 583 -358 583 -358 536 -358 c 2,455,-1
 94 -358 l 2,456,457
 53 -358 53 -358 25 -324.5 c 128,-1,458
 -3 -291 -3 -291 -3 -241 c 0,330,331
189 374 m 0,459,460
 189 356 189 356 200.5 343 c 128,-1,461
 212 330 212 330 226 330 c 2,462,-1
 463 330 l 2,463,464
 481 330 481 330 494 341.5 c 128,-1,465
 507 353 507 353 507 368 c 0,466,467
 507 374 507 374 505 385.5 c 128,-1,468
 503 397 503 397 499 411 c 2,469,-1
 478 491 l 2,470,471
 472 512 472 512 463.5 523.5 c 128,-1,472
 455 535 455 535 448 535 c 2,473,-1
 226 535 l 1,474,-1
 204 455 l 2,475,476
 197 426 197 426 193 405.5 c 128,-1,477
 189 385 189 385 189 374 c 0,459,460
EndSplineSet
EndChar

StartChar: tm_o
Encoding: 2962 2962 59
Width: 1146
GlyphClass: 2
Flags: W
LayerCount: 2
Fore
SplineSet
235 362 m 0,0,1
 235 360 235 360 241 358 c 128,-1,2
 247 356 247 356 255 356 c 2,3,-1
 461 356 l 2,4,5
 465 356 465 356 466 355 c 1,6,7
 465 356 465 356 465 357 c 2,8,-1
 465 362 l 1,9,-1
 462 372 l 1,10,-1
 439 439 l 2,11,12
 434 457 434 457 417 457 c 2,13,-1
 255 457 l 1,14,-1
 241 404 l 2,15,16
 235 378 235 378 235 362 c 0,0,1
922 946 m 2,17,18
 954 946 954 946 984.5 920 c 128,-1,19
 1015 894 1015 894 1030 849 c 2,20,-1
 1135 418 l 2,21,22
 1149 375 1149 375 1157.5 342.5 c 128,-1,23
 1166 310 1166 310 1166 289 c 0,24,25
 1166 256 1166 256 1154.5 228.5 c 128,-1,26
 1143 201 1143 201 1120 178 c 0,27,28
 1075 133 1075 133 1011 133 c 2,29,-1
 835 133 l 2,30,31
 817 133 817 133 802.5 137.5 c 128,-1,32
 788 142 788 142 774 150 c 1,33,-1
 769 130 l 2,34,35
 769 127 769 127 771 123.5 c 128,-1,36
 773 120 773 120 776 120 c 2,37,-1
 1136 120 l 1,38,-1
 1136 0 l 1,39,-1
 747 0 l 2,40,41
 721 0 721 0 708 -36 c 2,42,-1
 590 -295 l 2,43,44
 569 -343 569 -343 533 -370.5 c 128,-1,45
 497 -398 497 -398 453 -398 c 2,46,-1
 87 -398 l 2,47,48
 27 -398 27 -398 -12 -356 c 0,49,50
 -53 -313 -53 -313 -53 -258 c 0,51,52
 -53 -224 -53 -224 -38 -168 c 0,53,54
 -31 -136 -31 -136 -22.5 -99 c 128,-1,55
 -14 -62 -14 -62 -5 -23.5 c 128,-1,56
 4 15 4 15 12 51.5 c 128,-1,57
 20 88 20 88 27 120 c 1,58,-1
 147 120 l 1,59,-1
 87 -161 l 1,60,-1
 88 -160 l 2,61,62
 87 -165 87 -165 85.5 -171 c 128,-1,63
 84 -177 84 -177 83 -182 c 0,64,65
 82 -185 82 -185 82 -188 c 0,66,67
 82 -189 82 -189 81 -190 c 2,68,-1
 87 -190 l 1,69,-1
 483 -190 l 2,70,71
 494 -190 494 -190 509 -173.5 c 128,-1,72
 524 -157 524 -157 537 -130 c 1,73,-1
 536 -131 l 1,74,-1
 595 8 l 2,75,76
 608 34 608 34 623 55.5 c 128,-1,77
 638 77 638 77 657 91 c 1,78,79
 654 100 654 100 652 111.5 c 128,-1,80
 650 123 650 123 650 134 c 0,81,82
 650 156 650 156 656.5 188 c 128,-1,83
 663 220 663 220 675 262 c 1,84,-1
 674 261 l 1,85,-1
 754 577 l 1,86,-1
 876 577 l 1,87,-1
 835 419 l 2,88,89
 833 416 833 416 835 399 c 0,90,91
 835 394 835 394 835.5 388 c 128,-1,92
 836 382 836 382 836 377 c 0,93,94
 836 368 836 368 840 362 c 128,-1,95
 844 356 844 356 849 356 c 2,96,-1
 982 356 l 2,97,98
 996 356 996 356 1006.5 362 c 128,-1,99
 1017 368 1017 368 1017 377 c 0,100,101
 1017 389 1017 389 1014 409 c 128,-1,102
 1011 429 1011 429 1003 456 c 2,103,-1
 930 766 l 2,104,105
 924 792 924 792 914 809 c 128,-1,106
 904 826 904 826 893 826 c 2,107,-1
 351 826 l 2,108,109
 349 826 349 826 342.5 806 c 128,-1,110
 336 786 336 786 328 758 c 0,111,112
 321 730 321 730 315.5 709 c 128,-1,113
 310 688 310 688 305 667.5 c 128,-1,114
 300 647 300 647 294.5 626 c 128,-1,115
 289 605 289 605 282 577 c 1,116,-1
 453 577 l 2,117,118
 491 577 491 577 521 549 c 128,-1,119
 551 521 551 521 563 474 c 2,120,-1
 607 297 l 2,121,122
 610 287 610 287 611 278 c 128,-1,123
 612 269 612 269 612 261 c 0,124,125
 612 221 612 221 586 184 c 1,126,-1
 586 185 l 1,127,128
 547 133 547 133 483 133 c 2,129,-1
 234 133 l 2,130,131
 205 133 205 133 179.5 144 c 128,-1,132
 154 155 154 155 135 174 c 128,-1,133
 116 193 116 193 105 219 c 128,-1,134
 94 245 94 245 94 274 c 0,135,136
 94 295 94 295 101 328 c 128,-1,137
 108 361 108 361 124 417 c 1,138,-1
 124 415 l 1,139,-1
 226 844 l 2,140,141
 239 890 239 890 269.5 918 c 128,-1,142
 300 946 300 946 336 946 c 2,143,-1
 922 946 l 2,17,18
336 927 m 2,144,145
 307 927 307 927 281.5 903 c 128,-1,146
 256 879 256 879 245 839 c 2,147,-1
 143 412 l 2,148,149
 128 357 128 357 120.5 324 c 128,-1,150
 113 291 113 291 113 274 c 0,151,152
 113 249 113 249 122.5 226.5 c 128,-1,153
 132 204 132 204 148.5 187.5 c 128,-1,154
 165 171 165 171 187 161.5 c 128,-1,155
 209 152 209 152 234 152 c 2,156,-1
 483 152 l 2,157,158
 510 152 510 152 532 163.5 c 128,-1,159
 554 175 554 175 571 196 c 0,160,161
 593 227 593 227 593 261 c 0,162,163
 593 269 593 269 592 277 c 128,-1,164
 591 285 591 285 588 294 c 2,165,-1
 544 470 l 2,166,167
 534 510 534 510 509.5 534 c 128,-1,168
 485 558 485 558 453 558 c 2,169,-1
 257 558 l 1,170,-1
 310 763 l 2,171,172
 320 798 320 798 331.5 821.5 c 128,-1,173
 343 845 343 845 351 845 c 2,174,-1
 893 845 l 2,175,176
 910 845 910 845 925.5 824 c 128,-1,177
 941 803 941 803 949 770 c 2,178,-1
 1022 461 l 2,179,180
 1036 405 1036 405 1036 377 c 0,181,182
 1036 361 1036 361 1020.5 349 c 128,-1,183
 1005 337 1005 337 982 337 c 2,184,-1
 849 337 l 2,185,186
 835 337 835 337 826 349 c 128,-1,187
 817 361 817 361 817 377 c 0,188,189
 817 382 817 382 816.5 387.5 c 128,-1,190
 816 393 816 393 816 398 c 0,191,192
 815 406 815 406 815 411.5 c 128,-1,193
 815 417 815 417 815 418 c 2,194,-1
 851 558 l 1,195,-1
 769 558 l 1,196,-1
 693 257 l 1,197,-1
 693 258 l 1,198,199
 669 175 669 175 669 134 c 0,200,201
 669 106 669 106 679 83 c 1,202,203
 661 72 661 72 644 51 c 128,-1,204
 627 30 627 30 613 1 c 2,205,-1
 554 -139 l 1,206,-1
 554 -138 l 1,207,208
 538 -170 538 -170 519 -189.5 c 128,-1,209
 500 -209 500 -209 483 -209 c 2,210,-1
 87 -209 l 2,211,212
 76 -209 76 -209 69 -203.5 c 128,-1,213
 62 -198 62 -198 62 -191 c 1,214,215
 62 -192 62 -192 65 -178 c 0,216,217
 66 -173 66 -173 67.5 -168 c 128,-1,218
 69 -163 69 -163 69 -158 c 2,219,-1
 125 101 l 1,220,-1
 42 101 l 1,221,222
 28 36 28 36 11 -36 c 128,-1,223
 -6 -108 -6 -108 -20 -173 c 1,224,-1
 -19 -171 l 1,225,226
 -35 -225 -35 -225 -35 -258 c 0,227,228
 -35 -307 -35 -307 2 -343 c 0,229,230
 35 -379 35 -379 87 -379 c 2,231,-1
 453 -379 l 2,232,233
 491 -379 491 -379 522.5 -354 c 128,-1,234
 554 -329 554 -329 573 -287 c 2,235,-1
 691 -29 l 2,236,237
 699 -6 699 -6 714.5 6.5 c 128,-1,238
 730 19 730 19 747 19 c 2,239,-1
 1118 19 l 1,240,-1
 1118 101 l 1,241,-1
 776 101 l 2,242,243
 763 101 763 101 755.5 112 c 128,-1,244
 748 123 748 123 750 136 c 2,245,-1
 763 185 l 1,246,247
 776 167 776 167 793.5 159.5 c 128,-1,248
 811 152 811 152 835 152 c 2,249,-1
 1011 152 l 2,250,251
 1068 152 1068 152 1107 192 c 0,252,253
 1147 231 1147 231 1147 289 c 0,254,255
 1147 309 1147 309 1139 340 c 128,-1,256
 1131 371 1131 371 1117 413 c 1,257,-1
 1117 412 l 1,258,-1
 1013 845 l 1,259,260
 999 882 999 882 974 904.5 c 128,-1,261
 949 927 949 927 922 927 c 2,262,-1
 336 927 l 2,144,145
216 362 m 256,263,264
 216 373 216 373 218 384.5 c 128,-1,265
 220 396 220 396 222 409 c 2,266,-1
 240 476 l 1,267,-1
 417 476 l 2,268,269
 431 476 431 476 442 467.5 c 128,-1,270
 453 459 453 459 458 445 c 2,271,-1
 480 378 l 1,272,-1
 482 369 l 2,273,274
 484 364 484 364 485 360.5 c 128,-1,275
 486 357 486 357 486 355 c 0,276,277
 486 347 486 347 479 342 c 128,-1,278
 472 337 472 337 461 337 c 2,279,-1
 255 337 l 2,280,281
 240 337 240 337 228 344 c 128,-1,282
 216 351 216 351 216 362 c 256,263,264
336 908 m 2,283,-1
 922 908 l 2,284,285
 943 908 943 908 963 887.5 c 128,-1,286
 983 867 983 867 996 834 c 1,287,-1
 1099 407 l 2,288,289
 1113 366 1113 366 1120.5 336.5 c 128,-1,290
 1128 307 1128 307 1128 289 c 0,291,292
 1128 239 1128 239 1094 205 c 128,-1,293
 1060 171 1060 171 1011 171 c 2,294,-1
 835 171 l 2,295,296
 803 171 803 171 782 192 c 128,-1,297
 761 213 761 213 761 244 c 1,298,-1
 732 141 l 2,299,300
 726 119 726 119 740 100.5 c 128,-1,301
 754 82 754 82 776 82 c 2,302,-1
 1099 82 l 1,303,-1
 1099 38 l 1,304,-1
 747 38 l 2,305,306
 724 38 724 38 704 22.5 c 128,-1,307
 684 7 684 7 674 -22 c 2,308,-1
 556 -279 l 2,309,310
 540 -316 540 -316 512.5 -338.5 c 128,-1,311
 485 -361 485 -361 453 -361 c 2,312,-1
 87 -361 l 2,313,314
 45 -361 45 -361 14.5 -330 c 128,-1,315
 -16 -299 -16 -299 -16 -258 c 0,316,317
 -16 -243 -16 -243 -12 -222.5 c 128,-1,318
 -8 -202 -8 -202 -1 -176 c 2,319,-1
 57 82 l 1,320,-1
 101 82 l 1,321,-1
 51 -154 l 2,322,323
 47 -171 47 -171 45 -179 c 128,-1,324
 43 -187 43 -187 43 -191 c 0,325,326
 43 -206 43 -206 56 -216.5 c 128,-1,327
 69 -227 69 -227 87 -227 c 2,328,-1
 483 -227 l 2,329,330
 505 -227 505 -227 529 -205 c 128,-1,331
 553 -183 553 -183 571 -146 c 2,332,-1
 630 -7 l 2,333,334
 646 28 646 28 667 49.5 c 128,-1,335
 688 71 688 71 710 75 c 1,336,337
 699 84 699 84 693.5 99.5 c 128,-1,338
 688 115 688 115 688 134 c 0,339,340
 688 154 688 154 693.5 183.5 c 128,-1,341
 699 213 699 213 710 252 c 2,342,-1
 784 539 l 1,343,-1
 828 539 l 1,344,-1
 799 428 l 2,345,346
 797 423 797 423 798 407.5 c 128,-1,347
 799 392 799 392 799 377 c 0,348,349
 799 353 799 353 813.5 335.5 c 128,-1,350
 828 318 828 318 849 318 c 2,351,-1
 982 318 l 2,352,353
 1013 318 1013 318 1034 335.5 c 128,-1,354
 1055 353 1055 353 1055 377 c 0,355,356
 1055 392 1055 392 1051 414 c 128,-1,357
 1047 436 1047 436 1040 465 c 2,358,-1
 967 775 l 2,359,360
 957 814 957 814 936.5 839 c 128,-1,361
 916 864 916 864 893 864 c 2,362,-1
 351 864 l 2,363,364
 336 864 336 864 319.5 837 c 128,-1,365
 303 810 303 810 292 767 c 2,366,-1
 234 539 l 1,367,-1
 453 539 l 2,368,369
 478 539 478 539 498 518.5 c 128,-1,370
 518 498 518 498 526 465 c 2,371,-1
 571 289 l 2,372,373
 584 244 584 244 556 207.5 c 128,-1,374
 528 171 528 171 483 171 c 2,375,-1
 234 171 l 2,376,377
 191 171 191 171 161 201 c 128,-1,378
 131 231 131 231 131 274 c 0,379,380
 131 291 131 291 138 322 c 128,-1,381
 145 353 145 353 160 407 c 2,382,-1
 263 834 l 2,383,384
 272 867 272 867 292 887.5 c 128,-1,385
 312 908 312 908 336 908 c 2,283,-1
197 362 m 0,386,387
 197 344 197 344 214.5 331 c 128,-1,388
 232 318 232 318 255 318 c 2,389,-1
 461 318 l 2,390,391
 480 318 480 318 492.5 329 c 128,-1,392
 505 340 505 340 505 355 c 0,393,394
 505 359 505 359 502 368 c 128,-1,395
 499 377 499 377 497 384 c 2,396,-1
 476 450 l 2,397,398
 470 471 470 471 453.5 483 c 128,-1,399
 437 495 437 495 417 495 c 2,400,-1
 226 495 l 1,401,-1
 205 413 l 2,402,403
 201 399 201 399 199 386 c 128,-1,404
 197 373 197 373 197 362 c 0,386,387
EndSplineSet
EndChar

